%TF.GenerationSoftware,KiCad,Pcbnew,10.0.3*%
%TF.CreationDate,2026-06-03T21:10:29+08:00*%
%TF.ProjectId,iium_sumo,6969756d-5f73-4756-9d6f-2e6b69636164,rev?*%
%TF.SameCoordinates,Original*%
%TF.FileFunction,Paste,Top*%
%TF.FilePolarity,Positive*%
%FSLAX46Y46*%
G04 Gerber Fmt 4.6, Leading zero omitted, Abs format (unit mm)*
G04 Created by KiCad (PCBNEW 10.0.3) date 2026-06-03 21:10:29*
%MOMM*%
%LPD*%
G01*
G04 APERTURE LIST*
G04 Aperture macros list*
%AMRoundRect*
0 Rectangle with rounded corners*
0 $1 Rounding radius*
0 $2 $3 $4 $5 $6 $7 $8 $9 X,Y pos of 4 corners*
0 Add a 4 corners polygon primitive as box body*
4,1,4,$2,$3,$4,$5,$6,$7,$8,$9,$2,$3,0*
0 Add four circle primitives for the rounded corners*
1,1,$1+$1,$2,$3*
1,1,$1+$1,$4,$5*
1,1,$1+$1,$6,$7*
1,1,$1+$1,$8,$9*
0 Add four rect primitives between the rounded corners*
20,1,$1+$1,$2,$3,$4,$5,0*
20,1,$1+$1,$4,$5,$6,$7,0*
20,1,$1+$1,$6,$7,$8,$9,0*
20,1,$1+$1,$8,$9,$2,$3,0*%
G04 Aperture macros list end*
%ADD10RoundRect,0.250000X-0.412500X-0.650000X0.412500X-0.650000X0.412500X0.650000X-0.412500X0.650000X0*%
%ADD11R,1.300000X1.300000*%
%ADD12R,0.600000X1.550000*%
%ADD13R,3.100000X2.600000*%
%ADD14RoundRect,0.250000X0.412500X0.650000X-0.412500X0.650000X-0.412500X-0.650000X0.412500X-0.650000X0*%
%ADD15RoundRect,0.250000X-0.625000X0.400000X-0.625000X-0.400000X0.625000X-0.400000X0.625000X0.400000X0*%
%ADD16RoundRect,0.250000X0.625000X-0.400000X0.625000X0.400000X-0.625000X0.400000X-0.625000X-0.400000X0*%
%ADD17RoundRect,0.250000X0.400000X0.625000X-0.400000X0.625000X-0.400000X-0.625000X0.400000X-0.625000X0*%
%ADD18RoundRect,0.250000X-0.400000X-0.625000X0.400000X-0.625000X0.400000X0.625000X-0.400000X0.625000X0*%
%ADD19RoundRect,0.250001X0.624999X-0.462499X0.624999X0.462499X-0.624999X0.462499X-0.624999X-0.462499X0*%
%ADD20RoundRect,0.250000X0.650000X-0.412500X0.650000X0.412500X-0.650000X0.412500X-0.650000X-0.412500X0*%
%ADD21RoundRect,0.250000X-0.900000X1.500000X-0.900000X-1.500000X0.900000X-1.500000X0.900000X1.500000X0*%
%ADD22RoundRect,0.250000X-0.650000X0.412500X-0.650000X-0.412500X0.650000X-0.412500X0.650000X0.412500X0*%
%ADD23RoundRect,0.375000X-0.625000X-0.375000X0.625000X-0.375000X0.625000X0.375000X-0.625000X0.375000X0*%
%ADD24RoundRect,0.500000X-0.500000X-1.400000X0.500000X-1.400000X0.500000X1.400000X-0.500000X1.400000X0*%
%ADD25RoundRect,0.250000X2.600000X-0.600000X2.600000X0.600000X-2.600000X0.600000X-2.600000X-0.600000X0*%
G04 APERTURE END LIST*
D10*
%TO.C,C15*%
X176714144Y-93237948D03*
X179839144Y-93237948D03*
%TD*%
D11*
%TO.C,SW2*%
X102807005Y-79095755D03*
X102807005Y-71345755D03*
%TD*%
D10*
%TO.C,C8*%
X176371939Y-75237483D03*
X179496939Y-75237483D03*
%TD*%
%TO.C,C5*%
X176371939Y-80320816D03*
X179496939Y-80320816D03*
%TD*%
D12*
%TO.C,U1*%
X189791644Y-82601250D03*
X191061644Y-82601250D03*
X192331644Y-82601250D03*
X193601644Y-82601250D03*
X193601644Y-77201250D03*
X192331644Y-77201250D03*
X191061644Y-77201250D03*
X189791644Y-77201250D03*
D13*
X191696644Y-79901250D03*
%TD*%
D14*
%TO.C,C6*%
X191061644Y-87973750D03*
X187936644Y-87973750D03*
%TD*%
D15*
%TO.C,R5*%
X194696644Y-85298750D03*
X194696644Y-88398750D03*
%TD*%
D14*
%TO.C,C10*%
X187344969Y-70001220D03*
X184219969Y-70001220D03*
%TD*%
D10*
%TO.C,C14*%
X176714144Y-95712948D03*
X179839144Y-95712948D03*
%TD*%
D16*
%TO.C,R9*%
X121902500Y-110868750D03*
X121902500Y-107768750D03*
%TD*%
D17*
%TO.C,R11*%
X155147250Y-92343750D03*
X152047250Y-92343750D03*
%TD*%
D14*
%TO.C,C3*%
X191061644Y-90473750D03*
X187936644Y-90473750D03*
%TD*%
D18*
%TO.C,R10*%
X146407250Y-92343750D03*
X149507250Y-92343750D03*
%TD*%
D10*
%TO.C,C13*%
X176714144Y-98217948D03*
X179839144Y-98217948D03*
%TD*%
D19*
%TO.C,D7*%
X119362500Y-104918750D03*
X119362500Y-101943750D03*
%TD*%
D10*
%TO.C,C7*%
X176371939Y-77779150D03*
X179496939Y-77779150D03*
%TD*%
D19*
%TO.C,D8*%
X121902500Y-104918750D03*
X121902500Y-101943750D03*
%TD*%
D20*
%TO.C,C17*%
X106507005Y-74513255D03*
X106507005Y-71388255D03*
%TD*%
D16*
%TO.C,R8*%
X119362500Y-110868750D03*
X119362500Y-107768750D03*
%TD*%
D14*
%TO.C,C11*%
X187344969Y-72601220D03*
X184219969Y-72601220D03*
%TD*%
D21*
%TO.C,D1*%
X183421939Y-76132483D03*
X183421939Y-81532483D03*
%TD*%
D22*
%TO.C,C16*%
X106500000Y-95881250D03*
X106500000Y-99006250D03*
%TD*%
D11*
%TO.C,SW1*%
X102800000Y-91298750D03*
X102800000Y-99048750D03*
%TD*%
D16*
%TO.C,R4*%
X106507005Y-80600755D03*
X106507005Y-77500755D03*
%TD*%
D20*
%TO.C,C2*%
X187196644Y-81463750D03*
X187196644Y-78338750D03*
%TD*%
D23*
%TO.C,U5*%
X176704439Y-85723750D03*
X176704439Y-88023750D03*
D24*
X183004439Y-88023750D03*
D23*
X176704439Y-90323750D03*
%TD*%
D16*
%TO.C,R6*%
X189844136Y-72851220D03*
X189844136Y-69751220D03*
%TD*%
%TO.C,R2*%
X194927469Y-72851220D03*
X194927469Y-69751220D03*
%TD*%
D25*
%TO.C,L1*%
X185012469Y-66598750D03*
X185012469Y-62098750D03*
%TD*%
D14*
%TO.C,C1*%
X191061644Y-85548750D03*
X187936644Y-85548750D03*
%TD*%
D10*
%TO.C,C12*%
X176371939Y-82862483D03*
X179496939Y-82862483D03*
%TD*%
D16*
%TO.C,R7*%
X116822500Y-110868750D03*
X116822500Y-107768750D03*
%TD*%
D19*
%TO.C,D6*%
X116822500Y-104918750D03*
X116822500Y-101943750D03*
%TD*%
D15*
%TO.C,R1*%
X192385802Y-69751220D03*
X192385802Y-72851220D03*
%TD*%
%TO.C,R3*%
X106500000Y-89793750D03*
X106500000Y-92893750D03*
%TD*%
M02*
