%TF.GenerationSoftware,KiCad,Pcbnew,10.0.3*%
%TF.CreationDate,2026-06-03T21:10:29+08:00*%
%TF.ProjectId,iium_sumo,6969756d-5f73-4756-9d6f-2e6b69636164,rev?*%
%TF.SameCoordinates,Original*%
%TF.FileFunction,Soldermask,Bot*%
%TF.FilePolarity,Negative*%
%FSLAX46Y46*%
G04 Gerber Fmt 4.6, Leading zero omitted, Abs format (unit mm)*
G04 Created by KiCad (PCBNEW 10.0.3) date 2026-06-03 21:10:29*
%MOMM*%
%LPD*%
G01*
G04 APERTURE LIST*
G04 Aperture macros list*
%AMRoundRect*
0 Rectangle with rounded corners*
0 $1 Rounding radius*
0 $2 $3 $4 $5 $6 $7 $8 $9 X,Y pos of 4 corners*
0 Add a 4 corners polygon primitive as box body*
4,1,4,$2,$3,$4,$5,$6,$7,$8,$9,$2,$3,0*
0 Add four circle primitives for the rounded corners*
1,1,$1+$1,$2,$3*
1,1,$1+$1,$4,$5*
1,1,$1+$1,$6,$7*
1,1,$1+$1,$8,$9*
0 Add four rect primitives between the rounded corners*
20,1,$1+$1,$2,$3,$4,$5,0*
20,1,$1+$1,$4,$5,$6,$7,0*
20,1,$1+$1,$6,$7,$8,$9,0*
20,1,$1+$1,$8,$9,$2,$3,0*%
G04 Aperture macros list end*
%ADD10R,2.300000X3.500000*%
%ADD11R,1.700000X1.700000*%
%ADD12C,1.700000*%
%ADD13RoundRect,0.250000X-0.845000X0.620000X-0.845000X-0.620000X0.845000X-0.620000X0.845000X0.620000X0*%
%ADD14O,2.190000X1.740000*%
%ADD15RoundRect,0.250000X0.845000X-0.620000X0.845000X0.620000X-0.845000X0.620000X-0.845000X-0.620000X0*%
%ADD16C,3.500000*%
%ADD17RoundRect,0.102000X1.050000X-1.050000X1.050000X1.050000X-1.050000X1.050000X-1.050000X-1.050000X0*%
%ADD18C,2.304000*%
%ADD19RoundRect,0.250000X-0.620000X-0.845000X0.620000X-0.845000X0.620000X0.845000X-0.620000X0.845000X0*%
%ADD20O,1.740000X2.190000*%
%ADD21O,1.200000X2.000000*%
%ADD22RoundRect,0.450000X1.550000X-1.050000X1.550000X1.050000X-1.550000X1.050000X-1.550000X-1.050000X0*%
G04 APERTURE END LIST*
D10*
%TO.C,SW3*%
X194001644Y-96618750D03*
X189301644Y-96618750D03*
X184601644Y-96618750D03*
%TD*%
D11*
%TO.C,J12*%
X173672250Y-70388750D03*
D12*
X173672250Y-67848750D03*
X173672250Y-65308750D03*
X173672250Y-62768750D03*
%TD*%
D13*
%TO.C,J11*%
X164182250Y-62788750D03*
D14*
X164182250Y-65328750D03*
X164182250Y-67868750D03*
%TD*%
D15*
%TO.C,J2*%
X149269750Y-112911250D03*
D14*
X149269750Y-110371250D03*
X149269750Y-107831250D03*
X149269750Y-105291250D03*
X149269750Y-102751250D03*
%TD*%
D15*
%TO.C,J3*%
X156698917Y-112911250D03*
D14*
X156698917Y-110371250D03*
X156698917Y-107831250D03*
X156698917Y-105291250D03*
X156698917Y-102751250D03*
%TD*%
D16*
%TO.C,REF\u002A\u002A*%
X104527750Y-62950000D03*
%TD*%
D11*
%TO.C,J14*%
X169882250Y-70388750D03*
D12*
X169882250Y-67848750D03*
X169882250Y-65308750D03*
X169882250Y-62768750D03*
%TD*%
D15*
%TO.C,J1*%
X141840583Y-112911250D03*
D14*
X141840583Y-110371250D03*
X141840583Y-107831250D03*
X141840583Y-105291250D03*
X141840583Y-102751250D03*
%TD*%
D15*
%TO.C,J5*%
X171557250Y-112911250D03*
D14*
X171557250Y-110371250D03*
X171557250Y-107831250D03*
X171557250Y-105291250D03*
X171557250Y-102751250D03*
%TD*%
D11*
%TO.C,J13*%
X177462250Y-62768750D03*
D12*
X177462250Y-65308750D03*
X177462250Y-67848750D03*
X177462250Y-70388750D03*
%TD*%
D17*
%TO.C,J16*%
X185500000Y-109000000D03*
D18*
X185500000Y-104000000D03*
%TD*%
D19*
%TO.C,J10*%
X141282250Y-66258750D03*
D20*
X143822250Y-66258750D03*
X146362250Y-66258750D03*
X148902250Y-66258750D03*
X151442250Y-66258750D03*
%TD*%
D13*
%TO.C,J6*%
X113580000Y-62788750D03*
D14*
X113580000Y-65328750D03*
X113580000Y-67868750D03*
%TD*%
D21*
%TO.C,U4*%
X111470000Y-95493750D03*
X114010000Y-95493750D03*
X116550000Y-95493750D03*
X119090000Y-95493750D03*
X121630000Y-95493750D03*
X124170000Y-95493750D03*
X126710000Y-95493750D03*
X129250000Y-95493750D03*
X131790000Y-95493750D03*
X134330000Y-95493750D03*
X136870000Y-95493750D03*
X139410000Y-95493750D03*
X141950000Y-95493750D03*
X144490000Y-95493750D03*
X147030000Y-95493750D03*
X149570000Y-95493750D03*
X152110000Y-95493750D03*
X154650000Y-95493750D03*
X157190000Y-95493750D03*
X159730000Y-95493750D03*
X159730000Y-75493750D03*
X157190000Y-75493750D03*
X154650000Y-75493750D03*
X152110000Y-75493750D03*
X149570000Y-75493750D03*
X147030000Y-75493750D03*
X144490000Y-75493750D03*
X141950000Y-75493750D03*
X139410000Y-75493750D03*
X136870000Y-75493750D03*
X134330000Y-75493750D03*
X131790000Y-75493750D03*
X129250000Y-75493750D03*
X126710000Y-75493750D03*
X124170000Y-75493750D03*
X121630000Y-75493750D03*
X119090000Y-75493750D03*
X116550000Y-75493750D03*
X114010000Y-75493750D03*
X111470000Y-75493750D03*
%TD*%
D15*
%TO.C,J18*%
X126982250Y-107831250D03*
D14*
X126982250Y-105291250D03*
X126982250Y-102751250D03*
%TD*%
D13*
%TO.C,J7*%
X120909917Y-62788750D03*
D14*
X120909917Y-65328750D03*
X120909917Y-67868750D03*
%TD*%
D13*
%TO.C,J9*%
X135569750Y-62788750D03*
D14*
X135569750Y-65328750D03*
X135569750Y-67868750D03*
%TD*%
D13*
%TO.C,J8*%
X128239833Y-62788750D03*
D14*
X128239833Y-65328750D03*
X128239833Y-67868750D03*
%TD*%
D15*
%TO.C,J4*%
X164128083Y-112911250D03*
D14*
X164128083Y-110371250D03*
X164128083Y-107831250D03*
X164128083Y-105291250D03*
X164128083Y-102751250D03*
%TD*%
D16*
%TO.C,REF\u002A\u002A*%
X104527750Y-111950000D03*
%TD*%
D13*
%TO.C,J19*%
X156982250Y-62788750D03*
D14*
X156982250Y-65328750D03*
X156982250Y-67868750D03*
%TD*%
D16*
%TO.C,REF\u002A\u002A*%
X193527750Y-62950000D03*
%TD*%
%TO.C,REF\u002A\u002A*%
X193527750Y-111950000D03*
%TD*%
D15*
%TO.C,J15*%
X134411417Y-112911250D03*
D14*
X134411417Y-110371250D03*
X134411417Y-107831250D03*
X134411417Y-105291250D03*
X134411417Y-102751250D03*
%TD*%
D22*
%TO.C,J17*%
X193650000Y-105853750D03*
X193650000Y-100773750D03*
%TD*%
M02*
