%TF.GenerationSoftware,KiCad,Pcbnew,10.0.3*%
%TF.CreationDate,2026-06-03T21:10:29+08:00*%
%TF.ProjectId,iium_sumo,6969756d-5f73-4756-9d6f-2e6b69636164,rev?*%
%TF.SameCoordinates,Original*%
%TF.FileFunction,Copper,L2,Bot*%
%TF.FilePolarity,Positive*%
%FSLAX46Y46*%
G04 Gerber Fmt 4.6, Leading zero omitted, Abs format (unit mm)*
G04 Created by KiCad (PCBNEW 10.0.3) date 2026-06-03 21:10:29*
%MOMM*%
%LPD*%
G01*
G04 APERTURE LIST*
G04 Aperture macros list*
%AMRoundRect*
0 Rectangle with rounded corners*
0 $1 Rounding radius*
0 $2 $3 $4 $5 $6 $7 $8 $9 X,Y pos of 4 corners*
0 Add a 4 corners polygon primitive as box body*
4,1,4,$2,$3,$4,$5,$6,$7,$8,$9,$2,$3,0*
0 Add four circle primitives for the rounded corners*
1,1,$1+$1,$2,$3*
1,1,$1+$1,$4,$5*
1,1,$1+$1,$6,$7*
1,1,$1+$1,$8,$9*
0 Add four rect primitives between the rounded corners*
20,1,$1+$1,$2,$3,$4,$5,0*
20,1,$1+$1,$4,$5,$6,$7,0*
20,1,$1+$1,$6,$7,$8,$9,0*
20,1,$1+$1,$8,$9,$2,$3,0*%
G04 Aperture macros list end*
%TA.AperFunction,ComponentPad*%
%ADD10R,2.300000X3.500000*%
%TD*%
%TA.AperFunction,ComponentPad*%
%ADD11C,0.600000*%
%TD*%
%TA.AperFunction,SMDPad,CuDef*%
%ADD12R,4.500000X2.950000*%
%TD*%
%TA.AperFunction,ComponentPad*%
%ADD13R,1.700000X1.700000*%
%TD*%
%TA.AperFunction,ComponentPad*%
%ADD14C,1.700000*%
%TD*%
%TA.AperFunction,ComponentPad*%
%ADD15RoundRect,0.250000X-0.845000X0.620000X-0.845000X-0.620000X0.845000X-0.620000X0.845000X0.620000X0*%
%TD*%
%TA.AperFunction,ComponentPad*%
%ADD16O,2.190000X1.740000*%
%TD*%
%TA.AperFunction,ComponentPad*%
%ADD17RoundRect,0.250000X0.845000X-0.620000X0.845000X0.620000X-0.845000X0.620000X-0.845000X-0.620000X0*%
%TD*%
%TA.AperFunction,ComponentPad*%
%ADD18R,2.100000X2.100000*%
%TD*%
%TA.AperFunction,ComponentPad*%
%ADD19C,2.100000*%
%TD*%
%TA.AperFunction,ComponentPad*%
%ADD20RoundRect,0.250000X-0.620000X-0.845000X0.620000X-0.845000X0.620000X0.845000X-0.620000X0.845000X0*%
%TD*%
%TA.AperFunction,ComponentPad*%
%ADD21O,1.740000X2.190000*%
%TD*%
%TA.AperFunction,ComponentPad*%
%ADD22O,1.200000X2.000000*%
%TD*%
%TA.AperFunction,SMDPad,CuDef*%
%ADD23RoundRect,0.450000X1.550000X-1.050000X1.550000X1.050000X-1.550000X1.050000X-1.550000X-1.050000X0*%
%TD*%
%TA.AperFunction,ViaPad*%
%ADD24C,0.600000*%
%TD*%
%TA.AperFunction,Conductor*%
%ADD25C,1.000000*%
%TD*%
%TA.AperFunction,Conductor*%
%ADD26C,0.500000*%
%TD*%
G04 APERTURE END LIST*
D10*
%TO.P,SW3,1,A_1*%
%TO.N,+36V*%
X194001644Y-96618750D03*
%TO.P,SW3,2,B_2*%
%TO.N,Net-(SW3-B)*%
X189301644Y-96618750D03*
%TO.P,SW3,3,C_3*%
%TO.N,unconnected-(SW3-C-Pad3)*%
X184601644Y-96618750D03*
%TD*%
D11*
%TO.P,U1,9,GNDPAD_9*%
%TO.N,GND*%
X189896644Y-80501250D03*
X191096644Y-80501250D03*
X192396644Y-80501250D03*
X193496644Y-80501250D03*
D12*
X191696644Y-79901250D03*
D11*
X189896644Y-79301250D03*
X191096644Y-79301250D03*
X192396644Y-79301250D03*
X193496644Y-79301250D03*
%TD*%
D13*
%TO.P,J12,1,Pin_1_1*%
%TO.N,+3V3*%
X173672250Y-70388750D03*
D14*
%TO.P,J12,2,Pin_2_2*%
X173672250Y-67848750D03*
%TO.P,J12,3,Pin_3_3*%
X173672250Y-65308750D03*
%TO.P,J12,4,Pin_4_4*%
X173672250Y-62768750D03*
%TD*%
D15*
%TO.P,J11,1,Pin_1_1*%
%TO.N,GND*%
X164182250Y-62788750D03*
D16*
%TO.P,J11,2,Pin_2_2*%
%TO.N,+3V3*%
X164182250Y-65328750D03*
%TO.P,J11,3,Pin_3_3*%
%TO.N,/SM_Signal*%
X164182250Y-67868750D03*
%TD*%
D17*
%TO.P,J2,1,Pin_1_1*%
%TO.N,+3V3*%
X149269750Y-112911250D03*
D16*
%TO.P,J2,2,Pin_2_2*%
%TO.N,GND*%
X149269750Y-110371250D03*
%TO.P,J2,3,Pin_3_3*%
%TO.N,/I2C_SCL*%
X149269750Y-107831250D03*
%TO.P,J2,4,Pin_4_4*%
%TO.N,/I2C_SDA*%
X149269750Y-105291250D03*
%TO.P,J2,5,Pin_5_5*%
%TO.N,/XHUT2*%
X149269750Y-102751250D03*
%TD*%
D17*
%TO.P,J3,1,Pin_1_1*%
%TO.N,+3V3*%
X156698917Y-112911250D03*
D16*
%TO.P,J3,2,Pin_2_2*%
%TO.N,GND*%
X156698917Y-110371250D03*
%TO.P,J3,3,Pin_3_3*%
%TO.N,/I2C_SCL*%
X156698917Y-107831250D03*
%TO.P,J3,4,Pin_4_4*%
%TO.N,/I2C_SDA*%
X156698917Y-105291250D03*
%TO.P,J3,5,Pin_5_5*%
%TO.N,/XHUT3*%
X156698917Y-102751250D03*
%TD*%
D13*
%TO.P,J14,1,Pin_1_1*%
%TO.N,GND*%
X169882250Y-70388750D03*
D14*
%TO.P,J14,2,Pin_2_2*%
X169882250Y-67848750D03*
%TO.P,J14,3,Pin_3_3*%
X169882250Y-65308750D03*
%TO.P,J14,4,Pin_4_4*%
X169882250Y-62768750D03*
%TD*%
D17*
%TO.P,J1,1,Pin_1_1*%
%TO.N,+3V3*%
X141840583Y-112911250D03*
D16*
%TO.P,J1,2,Pin_2_2*%
%TO.N,GND*%
X141840583Y-110371250D03*
%TO.P,J1,3,Pin_3_3*%
%TO.N,/I2C_SCL*%
X141840583Y-107831250D03*
%TO.P,J1,4,Pin_4_4*%
%TO.N,/I2C_SDA*%
X141840583Y-105291250D03*
%TO.P,J1,5,Pin_5_5*%
%TO.N,/XHUT1*%
X141840583Y-102751250D03*
%TD*%
D17*
%TO.P,J5,1,Pin_1_1*%
%TO.N,+3V3*%
X171557250Y-112911250D03*
D16*
%TO.P,J5,2,Pin_2_2*%
%TO.N,GND*%
X171557250Y-110371250D03*
%TO.P,J5,3,Pin_3_3*%
%TO.N,/I2C_SCL*%
X171557250Y-107831250D03*
%TO.P,J5,4,Pin_4_4*%
%TO.N,/I2C_SDA*%
X171557250Y-105291250D03*
%TO.P,J5,5,Pin_5_5*%
%TO.N,/XHUT5*%
X171557250Y-102751250D03*
%TD*%
D13*
%TO.P,J13,1,Pin_1_1*%
%TO.N,+5V*%
X177462250Y-62768750D03*
D14*
%TO.P,J13,2,Pin_2_2*%
X177462250Y-65308750D03*
%TO.P,J13,3,Pin_3_3*%
X177462250Y-67848750D03*
%TO.P,J13,4,Pin_4_4*%
X177462250Y-70388750D03*
%TD*%
D18*
%TO.P,J16,1,Pin_1_1*%
%TO.N,GND*%
X185500000Y-109000000D03*
D19*
%TO.P,J16,2,Pin_2_2*%
%TO.N,+36V*%
X185500000Y-104000000D03*
%TD*%
D20*
%TO.P,J10,1,Pin_1_1*%
%TO.N,GND*%
X141282250Y-66258750D03*
D21*
%TO.P,J10,2,Pin_2_2*%
%TO.N,/RIGHT_PWM*%
X143822250Y-66258750D03*
%TO.P,J10,3,Pin_3_3*%
%TO.N,/RIGHT_DIR*%
X146362250Y-66258750D03*
%TO.P,J10,4,Pin_4_4*%
%TO.N,/LEFT_PWM*%
X148902250Y-66258750D03*
%TO.P,J10,5,Pin_5_5*%
%TO.N,/LEFT_DIR*%
X151442250Y-66258750D03*
%TD*%
D15*
%TO.P,J6,1,Pin_1_1*%
%TO.N,+5V*%
X113580000Y-62788750D03*
D16*
%TO.P,J6,2,Pin_2_2*%
%TO.N,GND*%
X113580000Y-65328750D03*
%TO.P,J6,3,Pin_3_3*%
%TO.N,/IR1_D0*%
X113580000Y-67868750D03*
%TD*%
D22*
%TO.P,U4,1,PB12_1*%
%TO.N,/PB12*%
X111470000Y-95493750D03*
%TO.P,U4,2,PB13_2*%
%TO.N,/PB13*%
X114010000Y-95493750D03*
%TO.P,U4,3,PB14_3*%
%TO.N,/PB14*%
X116550000Y-95493750D03*
%TO.P,U4,4,PB15_4*%
%TO.N,/PB15*%
X119090000Y-95493750D03*
%TO.P,U4,5,PA8_5*%
%TO.N,/PA8*%
X121630000Y-95493750D03*
%TO.P,U4,6,PA9_6*%
%TO.N,/TX1*%
X124170000Y-95493750D03*
%TO.P,U4,7,PA10_7*%
%TO.N,/RX1*%
X126710000Y-95493750D03*
%TO.P,U4,8,PA11_8*%
%TO.N,/PA11*%
X129250000Y-95493750D03*
%TO.P,U4,9,PA12_9*%
%TO.N,/PA12*%
X131790000Y-95493750D03*
%TO.P,U4,10,PA15_10*%
%TO.N,/PA15*%
X134330000Y-95493750D03*
%TO.P,U4,11,PB3_11*%
%TO.N,/XHUT1*%
X136870000Y-95493750D03*
%TO.P,U4,12,PB4_12*%
%TO.N,/XHUT2*%
X139410000Y-95493750D03*
%TO.P,U4,13,PB5_13*%
%TO.N,/XHUT3*%
X141950000Y-95493750D03*
%TO.P,U4,14,PB6_14*%
%TO.N,/XHUT4*%
X144490000Y-95493750D03*
%TO.P,U4,15,PB7_15*%
%TO.N,/XHUT5*%
X147030000Y-95493750D03*
%TO.P,U4,16,PB8_16*%
%TO.N,/I2C_SCL*%
X149570000Y-95493750D03*
%TO.P,U4,17,PB9_17*%
%TO.N,/I2C_SDA*%
X152110000Y-95493750D03*
%TO.P,U4,18,+5V_18*%
%TO.N,+5V*%
X154650000Y-95493750D03*
%TO.P,U4,19,GND_19*%
%TO.N,GND*%
X157190000Y-95493750D03*
%TO.P,U4,20,3.3V_20*%
%TO.N,unconnected-(U4-3.3V-Pad20)*%
X159730000Y-95493750D03*
%TO.P,U4,21,VB_21*%
%TO.N,unconnected-(U4-VB-Pad21)*%
X159730000Y-75493750D03*
%TO.P,U4,22,PC13_22*%
%TO.N,/SM_Signal*%
X157190000Y-75493750D03*
%TO.P,U4,23,PC14_23*%
%TO.N,unconnected-(U4-PC14-Pad23)*%
X154650000Y-75493750D03*
%TO.P,U4,24,PC15_24*%
%TO.N,unconnected-(U4-PC15-Pad24)*%
X152110000Y-75493750D03*
%TO.P,U4,25,~{RST}_25*%
%TO.N,unconnected-(U4-~{RST}-Pad25)*%
X149570000Y-75493750D03*
%TO.P,U4,26,PA0_26*%
%TO.N,unconnected-(U4-PA0-Pad26)*%
X147030000Y-75493750D03*
%TO.P,U4,27,PA1_27*%
%TO.N,unconnected-(U4-PA1-Pad27)*%
X144490000Y-75493750D03*
%TO.P,U4,28,PA2_28*%
%TO.N,/RX2*%
X141950000Y-75493750D03*
%TO.P,U4,29,PA3_29*%
%TO.N,/TX2*%
X139410000Y-75493750D03*
%TO.P,U4,30,PA4_30*%
%TO.N,/LEFT_DIR*%
X136870000Y-75493750D03*
%TO.P,U4,31,PA5_31*%
%TO.N,/LEFT_PWM*%
X134330000Y-75493750D03*
%TO.P,U4,32,PA6_32*%
%TO.N,/RIGHT_DIR*%
X131790000Y-75493750D03*
%TO.P,U4,33,PA7_33*%
%TO.N,/RIGHT_PWM*%
X129250000Y-75493750D03*
%TO.P,U4,34,PB0_34*%
%TO.N,/IR4_D0*%
X126710000Y-75493750D03*
%TO.P,U4,35,PB1_35*%
%TO.N,/IR3_D0*%
X124170000Y-75493750D03*
%TO.P,U4,36,PB2_36*%
%TO.N,/IR2_D0*%
X121630000Y-75493750D03*
%TO.P,U4,37,PB10_37*%
%TO.N,/IR1_D0*%
X119090000Y-75493750D03*
%TO.P,U4,38,3.3V_38*%
%TO.N,unconnected-(U4-3.3V-Pad38)*%
X116550000Y-75493750D03*
%TO.P,U4,39,GND_39*%
%TO.N,GND*%
X114010000Y-75493750D03*
%TO.P,U4,40,5V_40*%
%TO.N,+5V*%
X111470000Y-75493750D03*
%TD*%
D17*
%TO.P,J18,1,Pin_1_1*%
%TO.N,GND*%
X126982250Y-107831250D03*
D16*
%TO.P,J18,2,Pin_2_2*%
%TO.N,/TX1*%
X126982250Y-105291250D03*
%TO.P,J18,3,Pin_3_3*%
%TO.N,/RX1*%
X126982250Y-102751250D03*
%TD*%
D15*
%TO.P,J7,1,Pin_1_1*%
%TO.N,+5V*%
X120909917Y-62788750D03*
D16*
%TO.P,J7,2,Pin_2_2*%
%TO.N,GND*%
X120909917Y-65328750D03*
%TO.P,J7,3,Pin_3_3*%
%TO.N,/IR2_D0*%
X120909917Y-67868750D03*
%TD*%
D15*
%TO.P,J9,1,Pin_1_1*%
%TO.N,+5V*%
X135569750Y-62788750D03*
D16*
%TO.P,J9,2,Pin_2_2*%
%TO.N,GND*%
X135569750Y-65328750D03*
%TO.P,J9,3,Pin_3_3*%
%TO.N,/IR4_D0*%
X135569750Y-67868750D03*
%TD*%
D15*
%TO.P,J8,1,Pin_1_1*%
%TO.N,+5V*%
X128239833Y-62788750D03*
D16*
%TO.P,J8,2,Pin_2_2*%
%TO.N,GND*%
X128239833Y-65328750D03*
%TO.P,J8,3,Pin_3_3*%
%TO.N,/IR3_D0*%
X128239833Y-67868750D03*
%TD*%
D17*
%TO.P,J4,1,Pin_1_1*%
%TO.N,+3V3*%
X164128083Y-112911250D03*
D16*
%TO.P,J4,2,Pin_2_2*%
%TO.N,GND*%
X164128083Y-110371250D03*
%TO.P,J4,3,Pin_3_3*%
%TO.N,/I2C_SCL*%
X164128083Y-107831250D03*
%TO.P,J4,4,Pin_4_4*%
%TO.N,/I2C_SDA*%
X164128083Y-105291250D03*
%TO.P,J4,5,Pin_5_5*%
%TO.N,/XHUT4*%
X164128083Y-102751250D03*
%TD*%
D15*
%TO.P,J19,1,Pin_1_1*%
%TO.N,GND*%
X156982250Y-62788750D03*
D16*
%TO.P,J19,2,Pin_2_2*%
%TO.N,/TX2*%
X156982250Y-65328750D03*
%TO.P,J19,3,Pin_3_3*%
%TO.N,/RX2*%
X156982250Y-67868750D03*
%TD*%
D17*
%TO.P,J15,1,Pin_1_1*%
%TO.N,+3V3*%
X134411417Y-112911250D03*
D16*
%TO.P,J15,2,Pin_2_2*%
%TO.N,GND*%
X134411417Y-110371250D03*
%TO.P,J15,3,Pin_3_3*%
%TO.N,/PA11*%
X134411417Y-107831250D03*
%TO.P,J15,4,Pin_4_4*%
%TO.N,/PA12*%
X134411417Y-105291250D03*
%TO.P,J15,5,Pin_5_5*%
%TO.N,/PA15*%
X134411417Y-102751250D03*
%TD*%
D23*
%TO.P,J17,1,Pin_1_1*%
%TO.N,GND*%
X193650000Y-105853750D03*
%TO.P,J17,2,Pin_2_2*%
%TO.N,+36V*%
X193650000Y-100773750D03*
%TD*%
D24*
%TO.N,+3V3*%
X106500000Y-83143750D03*
X150850000Y-90693750D03*
X106500000Y-87243750D03*
%TO.N,GND*%
X191061644Y-75798750D03*
X181130065Y-98321770D03*
X180771939Y-79829149D03*
X118862500Y-112118750D03*
X127805924Y-87511439D03*
X122432250Y-112118750D03*
X182969969Y-70501220D03*
X135683333Y-82843750D03*
X182804439Y-83862483D03*
X119892250Y-112118750D03*
X184796644Y-86723750D03*
X181130065Y-93341770D03*
X106507005Y-68788255D03*
X131850000Y-82843750D03*
X180771939Y-82370816D03*
X116322500Y-112118750D03*
X106500000Y-101506250D03*
X135689257Y-87511439D03*
X171650000Y-79693750D03*
X160900000Y-83643750D03*
X131855924Y-87511439D03*
X186686644Y-88498750D03*
X196502101Y-69181942D03*
X162000000Y-88743750D03*
X184796644Y-89273750D03*
X189791644Y-75801250D03*
X175148970Y-87573750D03*
X170400000Y-80793750D03*
X123972591Y-87511439D03*
X186686644Y-90998750D03*
X120133333Y-82843750D03*
X170200000Y-74593750D03*
X139522591Y-87511439D03*
X169100000Y-81993750D03*
X180771939Y-83495816D03*
X186686644Y-86073750D03*
X175146644Y-88523750D03*
X186686644Y-87473750D03*
X182964144Y-71998750D03*
X143355924Y-87511439D03*
X120139257Y-87511439D03*
X127800000Y-82843750D03*
X116300000Y-82843750D03*
X168900000Y-75793750D03*
X163400000Y-87443750D03*
X164650000Y-86300000D03*
X162300000Y-82343750D03*
X186686644Y-89973750D03*
X196504571Y-70318617D03*
X109600000Y-82843750D03*
X145730181Y-58811780D03*
X180771939Y-80954149D03*
X180771939Y-77287483D03*
X184004439Y-83862483D03*
X102800000Y-100298750D03*
X109650000Y-87511439D03*
X180771939Y-78412483D03*
X186686644Y-85048750D03*
X163550000Y-81200000D03*
X171450000Y-73493750D03*
X121402500Y-112118750D03*
X180771939Y-75870816D03*
X182964144Y-69398750D03*
X143350000Y-82843750D03*
X195364144Y-89648750D03*
X193996644Y-89648750D03*
X182969969Y-73101220D03*
X181130065Y-95816770D03*
X123966667Y-82843750D03*
X102807005Y-70095755D03*
X117352250Y-112118750D03*
X139516667Y-82843750D03*
X116305924Y-87511439D03*
X184796644Y-88008173D03*
X180771939Y-74745816D03*
%TD*%
%TO.N,+36V*%
D25*
X190423750Y-104000000D02*
X193650000Y-100773750D01*
X185500000Y-104000000D02*
X190423750Y-104000000D01*
X194001644Y-96618750D02*
X194001644Y-100422106D01*
%TO.N,unconnected-(SW3-C-Pad3)*%
X184582250Y-96638144D02*
X184601644Y-96618750D01*
%TO.N,+36V*%
X194001644Y-100422106D02*
X193650000Y-100773750D01*
%TO.N,+3V3*%
X108500000Y-85143750D02*
X106500000Y-83143750D01*
X150850000Y-90693750D02*
X150550000Y-90693750D01*
X106500000Y-87143750D02*
X108500000Y-85143750D01*
X106500000Y-87243750D02*
X106500000Y-87143750D01*
X145000000Y-85143750D02*
X108500000Y-85143750D01*
X150550000Y-90693750D02*
X145000000Y-85143750D01*
%TO.N,+5V*%
X154650000Y-95493750D02*
X154587250Y-95431000D01*
X154587250Y-95431000D02*
X154587250Y-93263750D01*
X154587250Y-93263750D02*
X177462250Y-70388750D01*
%TO.N,/I2C_SCL*%
D26*
X153000000Y-98923750D02*
X153000000Y-104132333D01*
X149507250Y-95431000D02*
X153000000Y-98923750D01*
X153000000Y-104132333D02*
X156698917Y-107831250D01*
X149507250Y-95368750D02*
X149507250Y-95431000D01*
X164128083Y-107831250D02*
X156937500Y-107831250D01*
%TO.N,/I2C_SDA*%
X164128083Y-105291250D02*
X161907500Y-105291250D01*
X152047250Y-95431000D02*
X152047250Y-95368750D01*
X161907500Y-105291250D02*
X152047250Y-95431000D01*
X142124750Y-105291250D02*
X141840583Y-105291250D01*
%TO.N,/RIGHT_PWM*%
X129375000Y-75368750D02*
X129187250Y-75368750D01*
X143822250Y-66258750D02*
X140137250Y-69943750D01*
X140137250Y-69943750D02*
X134800000Y-69943750D01*
X134800000Y-69943750D02*
X129375000Y-75368750D01*
%TO.N,/LEFT_PWM*%
X148902250Y-66258750D02*
X143767250Y-71393750D01*
X134267250Y-75556500D02*
X134267250Y-75283750D01*
X138430000Y-71393750D02*
X134267250Y-75556500D01*
X143767250Y-71393750D02*
X138430000Y-71393750D01*
%TO.N,/TX2*%
X148667250Y-73643750D02*
X141260000Y-73643750D01*
X139535000Y-75368750D02*
X139347250Y-75368750D01*
X156982250Y-65328750D02*
X148667250Y-73643750D01*
X141260000Y-73643750D02*
X139535000Y-75368750D01*
%TD*%
%TA.AperFunction,Conductor*%
%TO.N,GND*%
G36*
X197032168Y-57750816D02*
G01*
X197260774Y-57767165D01*
X197278275Y-57769682D01*
X197497893Y-57817456D01*
X197514852Y-57822435D01*
X197725448Y-57900984D01*
X197741528Y-57908328D01*
X197938786Y-58016039D01*
X197953669Y-58025604D01*
X198133586Y-58160288D01*
X198146957Y-58171874D01*
X198305875Y-58330792D01*
X198317461Y-58344163D01*
X198452145Y-58524080D01*
X198461710Y-58538963D01*
X198569418Y-58736215D01*
X198576768Y-58752308D01*
X198655311Y-58962889D01*
X198660295Y-58979865D01*
X198708066Y-59199468D01*
X198710584Y-59216980D01*
X198726934Y-59445581D01*
X198727250Y-59454427D01*
X198727250Y-115445572D01*
X198726934Y-115454418D01*
X198710584Y-115683019D01*
X198708066Y-115700531D01*
X198660295Y-115920134D01*
X198655311Y-115937110D01*
X198576768Y-116147691D01*
X198569418Y-116163784D01*
X198461710Y-116361036D01*
X198452145Y-116375919D01*
X198317461Y-116555836D01*
X198305875Y-116569207D01*
X198146957Y-116728125D01*
X198133586Y-116739711D01*
X197953669Y-116874395D01*
X197938786Y-116883960D01*
X197741534Y-116991668D01*
X197725441Y-116999018D01*
X197514860Y-117077561D01*
X197497884Y-117082545D01*
X197278281Y-117130316D01*
X197260769Y-117132834D01*
X197032168Y-117149184D01*
X197023322Y-117149500D01*
X101032178Y-117149500D01*
X101023332Y-117149184D01*
X100794730Y-117132834D01*
X100777218Y-117130316D01*
X100557615Y-117082545D01*
X100540639Y-117077561D01*
X100330058Y-116999018D01*
X100313965Y-116991668D01*
X100116713Y-116883960D01*
X100101830Y-116874395D01*
X99921913Y-116739711D01*
X99908542Y-116728125D01*
X99749624Y-116569207D01*
X99738038Y-116555836D01*
X99603354Y-116375919D01*
X99593789Y-116361036D01*
X99486081Y-116163784D01*
X99478734Y-116147698D01*
X99400185Y-115937102D01*
X99395206Y-115920143D01*
X99347432Y-115700525D01*
X99344915Y-115683019D01*
X99328566Y-115454418D01*
X99328250Y-115445572D01*
X99328250Y-111818872D01*
X102527250Y-111818872D01*
X102527250Y-112081127D01*
X102548330Y-112241233D01*
X102561480Y-112341116D01*
X102629352Y-112594418D01*
X102629355Y-112594428D01*
X102729703Y-112836690D01*
X102729708Y-112836700D01*
X102860825Y-113063803D01*
X103020468Y-113271851D01*
X103020476Y-113271860D01*
X103205890Y-113457274D01*
X103205898Y-113457281D01*
X103413946Y-113616924D01*
X103641049Y-113748041D01*
X103641059Y-113748046D01*
X103883321Y-113848394D01*
X103883331Y-113848398D01*
X104136634Y-113916270D01*
X104396630Y-113950500D01*
X104396637Y-113950500D01*
X104658863Y-113950500D01*
X104658870Y-113950500D01*
X104918866Y-113916270D01*
X105172169Y-113848398D01*
X105414447Y-113748043D01*
X105641553Y-113616924D01*
X105849601Y-113457282D01*
X105849605Y-113457277D01*
X105849610Y-113457274D01*
X106035024Y-113271860D01*
X106035027Y-113271855D01*
X106035032Y-113271851D01*
X106194674Y-113063803D01*
X106325793Y-112836697D01*
X106426148Y-112594419D01*
X106494020Y-112341116D01*
X106507170Y-112241233D01*
X132815917Y-112241233D01*
X132815917Y-113581251D01*
X132815918Y-113581268D01*
X132826417Y-113684046D01*
X132826418Y-113684049D01*
X132847624Y-113748043D01*
X132881603Y-113850584D01*
X132973705Y-113999906D01*
X133097761Y-114123962D01*
X133247083Y-114216064D01*
X133413620Y-114271249D01*
X133516408Y-114281750D01*
X135306425Y-114281749D01*
X135409214Y-114271249D01*
X135575751Y-114216064D01*
X135725073Y-114123962D01*
X135849129Y-113999906D01*
X135941231Y-113850584D01*
X135996416Y-113684047D01*
X136006917Y-113581259D01*
X136006916Y-112241242D01*
X136006915Y-112241233D01*
X140245083Y-112241233D01*
X140245083Y-113581251D01*
X140245084Y-113581268D01*
X140255583Y-113684046D01*
X140255584Y-113684049D01*
X140276790Y-113748043D01*
X140310769Y-113850584D01*
X140402871Y-113999906D01*
X140526927Y-114123962D01*
X140676249Y-114216064D01*
X140842786Y-114271249D01*
X140945574Y-114281750D01*
X142735591Y-114281749D01*
X142838380Y-114271249D01*
X143004917Y-114216064D01*
X143154239Y-114123962D01*
X143278295Y-113999906D01*
X143370397Y-113850584D01*
X143425582Y-113684047D01*
X143436083Y-113581259D01*
X143436082Y-112241242D01*
X143436081Y-112241233D01*
X147674250Y-112241233D01*
X147674250Y-113581251D01*
X147674251Y-113581268D01*
X147684750Y-113684046D01*
X147684751Y-113684049D01*
X147705957Y-113748043D01*
X147739936Y-113850584D01*
X147832038Y-113999906D01*
X147956094Y-114123962D01*
X148105416Y-114216064D01*
X148271953Y-114271249D01*
X148374741Y-114281750D01*
X150164758Y-114281749D01*
X150267547Y-114271249D01*
X150434084Y-114216064D01*
X150583406Y-114123962D01*
X150707462Y-113999906D01*
X150799564Y-113850584D01*
X150854749Y-113684047D01*
X150865250Y-113581259D01*
X150865249Y-112241242D01*
X150865248Y-112241233D01*
X155103417Y-112241233D01*
X155103417Y-113581251D01*
X155103418Y-113581268D01*
X155113917Y-113684046D01*
X155113918Y-113684049D01*
X155135124Y-113748043D01*
X155169103Y-113850584D01*
X155261205Y-113999906D01*
X155385261Y-114123962D01*
X155534583Y-114216064D01*
X155701120Y-114271249D01*
X155803908Y-114281750D01*
X157593925Y-114281749D01*
X157696714Y-114271249D01*
X157863251Y-114216064D01*
X158012573Y-114123962D01*
X158136629Y-113999906D01*
X158228731Y-113850584D01*
X158283916Y-113684047D01*
X158294417Y-113581259D01*
X158294416Y-112241242D01*
X158294415Y-112241233D01*
X162532583Y-112241233D01*
X162532583Y-113581251D01*
X162532584Y-113581268D01*
X162543083Y-113684046D01*
X162543084Y-113684049D01*
X162564290Y-113748043D01*
X162598269Y-113850584D01*
X162690371Y-113999906D01*
X162814427Y-114123962D01*
X162963749Y-114216064D01*
X163130286Y-114271249D01*
X163233074Y-114281750D01*
X165023091Y-114281749D01*
X165125880Y-114271249D01*
X165292417Y-114216064D01*
X165441739Y-114123962D01*
X165565795Y-113999906D01*
X165657897Y-113850584D01*
X165713082Y-113684047D01*
X165723583Y-113581259D01*
X165723582Y-112241242D01*
X165723581Y-112241233D01*
X169961750Y-112241233D01*
X169961750Y-113581251D01*
X169961751Y-113581268D01*
X169972250Y-113684046D01*
X169972251Y-113684049D01*
X169993457Y-113748043D01*
X170027436Y-113850584D01*
X170119538Y-113999906D01*
X170243594Y-114123962D01*
X170392916Y-114216064D01*
X170559453Y-114271249D01*
X170662241Y-114281750D01*
X172452258Y-114281749D01*
X172555047Y-114271249D01*
X172721584Y-114216064D01*
X172870906Y-114123962D01*
X172994962Y-113999906D01*
X173087064Y-113850584D01*
X173142249Y-113684047D01*
X173152750Y-113581259D01*
X173152749Y-112241242D01*
X173142249Y-112138453D01*
X173087064Y-111971916D01*
X172994962Y-111822594D01*
X172991240Y-111818872D01*
X191527250Y-111818872D01*
X191527250Y-112081127D01*
X191548330Y-112241233D01*
X191561480Y-112341116D01*
X191629352Y-112594418D01*
X191629355Y-112594428D01*
X191729703Y-112836690D01*
X191729708Y-112836700D01*
X191860825Y-113063803D01*
X192020468Y-113271851D01*
X192020476Y-113271860D01*
X192205890Y-113457274D01*
X192205898Y-113457281D01*
X192413946Y-113616924D01*
X192641049Y-113748041D01*
X192641059Y-113748046D01*
X192883321Y-113848394D01*
X192883331Y-113848398D01*
X193136634Y-113916270D01*
X193396630Y-113950500D01*
X193396637Y-113950500D01*
X193658863Y-113950500D01*
X193658870Y-113950500D01*
X193918866Y-113916270D01*
X194172169Y-113848398D01*
X194414447Y-113748043D01*
X194641553Y-113616924D01*
X194849601Y-113457282D01*
X194849605Y-113457277D01*
X194849610Y-113457274D01*
X195035024Y-113271860D01*
X195035027Y-113271855D01*
X195035032Y-113271851D01*
X195194674Y-113063803D01*
X195325793Y-112836697D01*
X195426148Y-112594419D01*
X195494020Y-112341116D01*
X195528250Y-112081120D01*
X195528250Y-111818880D01*
X195494020Y-111558884D01*
X195426148Y-111305581D01*
X195426144Y-111305571D01*
X195325796Y-111063309D01*
X195325791Y-111063299D01*
X195194674Y-110836196D01*
X195035031Y-110628148D01*
X195035024Y-110628140D01*
X194849610Y-110442726D01*
X194849601Y-110442718D01*
X194641553Y-110283075D01*
X194414450Y-110151958D01*
X194414440Y-110151953D01*
X194172178Y-110051605D01*
X194172171Y-110051603D01*
X194172169Y-110051602D01*
X193918866Y-109983730D01*
X193861089Y-109976123D01*
X193658877Y-109949500D01*
X193658870Y-109949500D01*
X193396630Y-109949500D01*
X193396622Y-109949500D01*
X193165522Y-109979926D01*
X193136634Y-109983730D01*
X192883331Y-110051602D01*
X192883321Y-110051605D01*
X192641059Y-110151953D01*
X192641049Y-110151958D01*
X192413946Y-110283075D01*
X192205898Y-110442718D01*
X192020468Y-110628148D01*
X191860825Y-110836196D01*
X191729708Y-111063299D01*
X191729703Y-111063309D01*
X191629355Y-111305571D01*
X191629352Y-111305581D01*
X191563526Y-111551251D01*
X191561480Y-111558885D01*
X191527250Y-111818872D01*
X172991240Y-111818872D01*
X172870906Y-111698538D01*
X172721584Y-111606436D01*
X172555047Y-111551251D01*
X172555045Y-111551250D01*
X172452260Y-111540750D01*
X170662248Y-111540750D01*
X170662231Y-111540751D01*
X170559453Y-111551250D01*
X170559450Y-111551251D01*
X170392918Y-111606435D01*
X170392913Y-111606437D01*
X170243592Y-111698539D01*
X170119539Y-111822592D01*
X170027437Y-111971913D01*
X170027436Y-111971916D01*
X169972251Y-112138453D01*
X169972251Y-112138454D01*
X169972250Y-112138454D01*
X169961750Y-112241233D01*
X165723581Y-112241233D01*
X165713082Y-112138453D01*
X165657897Y-111971916D01*
X165565795Y-111822594D01*
X165441739Y-111698538D01*
X165292417Y-111606436D01*
X165125880Y-111551251D01*
X165125878Y-111551250D01*
X165023093Y-111540750D01*
X163233081Y-111540750D01*
X163233064Y-111540751D01*
X163130286Y-111551250D01*
X163130283Y-111551251D01*
X162963751Y-111606435D01*
X162963746Y-111606437D01*
X162814425Y-111698539D01*
X162690372Y-111822592D01*
X162598270Y-111971913D01*
X162598269Y-111971916D01*
X162543084Y-112138453D01*
X162543084Y-112138454D01*
X162543083Y-112138454D01*
X162532583Y-112241233D01*
X158294415Y-112241233D01*
X158283916Y-112138453D01*
X158228731Y-111971916D01*
X158136629Y-111822594D01*
X158012573Y-111698538D01*
X157863251Y-111606436D01*
X157696714Y-111551251D01*
X157696712Y-111551250D01*
X157593927Y-111540750D01*
X155803915Y-111540750D01*
X155803898Y-111540751D01*
X155701120Y-111551250D01*
X155701117Y-111551251D01*
X155534585Y-111606435D01*
X155534580Y-111606437D01*
X155385259Y-111698539D01*
X155261206Y-111822592D01*
X155169104Y-111971913D01*
X155169103Y-111971916D01*
X155113918Y-112138453D01*
X155113918Y-112138454D01*
X155113917Y-112138454D01*
X155103417Y-112241233D01*
X150865248Y-112241233D01*
X150854749Y-112138453D01*
X150799564Y-111971916D01*
X150707462Y-111822594D01*
X150583406Y-111698538D01*
X150434084Y-111606436D01*
X150267547Y-111551251D01*
X150267545Y-111551250D01*
X150164760Y-111540750D01*
X148374748Y-111540750D01*
X148374731Y-111540751D01*
X148271953Y-111551250D01*
X148271950Y-111551251D01*
X148105418Y-111606435D01*
X148105413Y-111606437D01*
X147956092Y-111698539D01*
X147832039Y-111822592D01*
X147739937Y-111971913D01*
X147739936Y-111971916D01*
X147684751Y-112138453D01*
X147684751Y-112138454D01*
X147684750Y-112138454D01*
X147674250Y-112241233D01*
X143436081Y-112241233D01*
X143425582Y-112138453D01*
X143370397Y-111971916D01*
X143278295Y-111822594D01*
X143154239Y-111698538D01*
X143004917Y-111606436D01*
X142838380Y-111551251D01*
X142838378Y-111551250D01*
X142735593Y-111540750D01*
X140945581Y-111540750D01*
X140945564Y-111540751D01*
X140842786Y-111551250D01*
X140842783Y-111551251D01*
X140676251Y-111606435D01*
X140676246Y-111606437D01*
X140526925Y-111698539D01*
X140402872Y-111822592D01*
X140310770Y-111971913D01*
X140310769Y-111971916D01*
X140255584Y-112138453D01*
X140255584Y-112138454D01*
X140255583Y-112138454D01*
X140245083Y-112241233D01*
X136006915Y-112241233D01*
X135996416Y-112138453D01*
X135941231Y-111971916D01*
X135849129Y-111822594D01*
X135725073Y-111698538D01*
X135575751Y-111606436D01*
X135409214Y-111551251D01*
X135409212Y-111551250D01*
X135306427Y-111540750D01*
X133516415Y-111540750D01*
X133516398Y-111540751D01*
X133413620Y-111551250D01*
X133413617Y-111551251D01*
X133247085Y-111606435D01*
X133247080Y-111606437D01*
X133097759Y-111698539D01*
X132973706Y-111822592D01*
X132881604Y-111971913D01*
X132881603Y-111971916D01*
X132826418Y-112138453D01*
X132826418Y-112138454D01*
X132826417Y-112138454D01*
X132815917Y-112241233D01*
X106507170Y-112241233D01*
X106528250Y-112081120D01*
X106528250Y-111818880D01*
X106494020Y-111558884D01*
X106426148Y-111305581D01*
X106426144Y-111305571D01*
X106325796Y-111063309D01*
X106325791Y-111063299D01*
X106194674Y-110836196D01*
X106035031Y-110628148D01*
X106035024Y-110628140D01*
X105849610Y-110442726D01*
X105849601Y-110442718D01*
X105641553Y-110283075D01*
X105414450Y-110151958D01*
X105414440Y-110151953D01*
X105172178Y-110051605D01*
X105172171Y-110051603D01*
X105172169Y-110051602D01*
X104918866Y-109983730D01*
X104861089Y-109976123D01*
X104658877Y-109949500D01*
X104658870Y-109949500D01*
X104396630Y-109949500D01*
X104396622Y-109949500D01*
X104165522Y-109979926D01*
X104136634Y-109983730D01*
X103883331Y-110051602D01*
X103883321Y-110051605D01*
X103641059Y-110151953D01*
X103641049Y-110151958D01*
X103413946Y-110283075D01*
X103205898Y-110442718D01*
X103020468Y-110628148D01*
X102860825Y-110836196D01*
X102729708Y-111063299D01*
X102729703Y-111063309D01*
X102629355Y-111305571D01*
X102629352Y-111305581D01*
X102563526Y-111551251D01*
X102561480Y-111558885D01*
X102527250Y-111818872D01*
X99328250Y-111818872D01*
X99328250Y-102643383D01*
X125386750Y-102643383D01*
X125386750Y-102859116D01*
X125408536Y-102996666D01*
X125420496Y-103072176D01*
X125487158Y-103277339D01*
X125585093Y-103469549D01*
X125711891Y-103644071D01*
X125864429Y-103796609D01*
X125948629Y-103857784D01*
X126035544Y-103920932D01*
X126078209Y-103976262D01*
X126084188Y-104045876D01*
X126051582Y-104107671D01*
X126035544Y-104121568D01*
X125970288Y-104168979D01*
X125864429Y-104245891D01*
X125864427Y-104245893D01*
X125864426Y-104245893D01*
X125711893Y-104398426D01*
X125711893Y-104398427D01*
X125711891Y-104398429D01*
X125657436Y-104473379D01*
X125585093Y-104572950D01*
X125487159Y-104765158D01*
X125420495Y-104970327D01*
X125386750Y-105183383D01*
X125386750Y-105399116D01*
X125420495Y-105612172D01*
X125420496Y-105612176D01*
X125487158Y-105817339D01*
X125585093Y-106009549D01*
X125711891Y-106184071D01*
X125864429Y-106336609D01*
X126038951Y-106463407D01*
X126231161Y-106561342D01*
X126436324Y-106628004D01*
X126516223Y-106640658D01*
X126649384Y-106661750D01*
X126649389Y-106661750D01*
X127315116Y-106661750D01*
X127433480Y-106643002D01*
X127528176Y-106628004D01*
X127733339Y-106561342D01*
X127925549Y-106463407D01*
X128100071Y-106336609D01*
X128252609Y-106184071D01*
X128379407Y-106009549D01*
X128477342Y-105817339D01*
X128544004Y-105612176D01*
X128559819Y-105512321D01*
X128577750Y-105399116D01*
X128577750Y-105183383D01*
X128550300Y-105010076D01*
X128544004Y-104970324D01*
X128477342Y-104765161D01*
X128379407Y-104572951D01*
X128252609Y-104398429D01*
X128100071Y-104245891D01*
X127928954Y-104121567D01*
X127886290Y-104066238D01*
X127880311Y-103996624D01*
X127912917Y-103934830D01*
X127928952Y-103920934D01*
X128100071Y-103796609D01*
X128252609Y-103644071D01*
X128379407Y-103469549D01*
X128477342Y-103277339D01*
X128544004Y-103072176D01*
X128566029Y-102933116D01*
X128577750Y-102859116D01*
X128577750Y-102643383D01*
X132815917Y-102643383D01*
X132815917Y-102859116D01*
X132837703Y-102996666D01*
X132849663Y-103072176D01*
X132916325Y-103277339D01*
X133014260Y-103469549D01*
X133141058Y-103644071D01*
X133293596Y-103796609D01*
X133377796Y-103857784D01*
X133464711Y-103920932D01*
X133507376Y-103976262D01*
X133513355Y-104045876D01*
X133480749Y-104107671D01*
X133464711Y-104121568D01*
X133399455Y-104168979D01*
X133293596Y-104245891D01*
X133293594Y-104245893D01*
X133293593Y-104245893D01*
X133141060Y-104398426D01*
X133141060Y-104398427D01*
X133141058Y-104398429D01*
X133086603Y-104473379D01*
X133014260Y-104572950D01*
X132916326Y-104765158D01*
X132849662Y-104970327D01*
X132815917Y-105183383D01*
X132815917Y-105399116D01*
X132849662Y-105612172D01*
X132849663Y-105612176D01*
X132916325Y-105817339D01*
X133014260Y-106009549D01*
X133141058Y-106184071D01*
X133293596Y-106336609D01*
X133414871Y-106424721D01*
X133464711Y-106460932D01*
X133507376Y-106516262D01*
X133513355Y-106585876D01*
X133480749Y-106647671D01*
X133464711Y-106661568D01*
X133293596Y-106785891D01*
X133293594Y-106785893D01*
X133293593Y-106785893D01*
X133141060Y-106938426D01*
X133141060Y-106938427D01*
X133141058Y-106938429D01*
X133086603Y-107013379D01*
X133014260Y-107112950D01*
X132916326Y-107305158D01*
X132849662Y-107510327D01*
X132815917Y-107723383D01*
X132815917Y-107939116D01*
X132849662Y-108152172D01*
X132849663Y-108152176D01*
X132916325Y-108357339D01*
X133014260Y-108549549D01*
X133141058Y-108724071D01*
X133293596Y-108876609D01*
X133468118Y-109003407D01*
X133660328Y-109101342D01*
X133865491Y-109168004D01*
X133945390Y-109180658D01*
X134078551Y-109201750D01*
X134078556Y-109201750D01*
X134744283Y-109201750D01*
X134862647Y-109183002D01*
X134957343Y-109168004D01*
X135162506Y-109101342D01*
X135354716Y-109003407D01*
X135529238Y-108876609D01*
X135681776Y-108724071D01*
X135808574Y-108549549D01*
X135906509Y-108357339D01*
X135973171Y-108152176D01*
X135988169Y-108057480D01*
X136006917Y-107939116D01*
X136006917Y-107723383D01*
X135973171Y-107510327D01*
X135973171Y-107510324D01*
X135906509Y-107305161D01*
X135808574Y-107112951D01*
X135681776Y-106938429D01*
X135529238Y-106785891D01*
X135358121Y-106661567D01*
X135315457Y-106606238D01*
X135309478Y-106536624D01*
X135342084Y-106474830D01*
X135358119Y-106460934D01*
X135529238Y-106336609D01*
X135681776Y-106184071D01*
X135808574Y-106009549D01*
X135906509Y-105817339D01*
X135973171Y-105612176D01*
X135988986Y-105512321D01*
X136006917Y-105399116D01*
X136006917Y-105183383D01*
X135979467Y-105010076D01*
X135973171Y-104970324D01*
X135906509Y-104765161D01*
X135808574Y-104572951D01*
X135681776Y-104398429D01*
X135529238Y-104245891D01*
X135358121Y-104121567D01*
X135315457Y-104066238D01*
X135309478Y-103996624D01*
X135342084Y-103934830D01*
X135358119Y-103920934D01*
X135529238Y-103796609D01*
X135681776Y-103644071D01*
X135808574Y-103469549D01*
X135906509Y-103277339D01*
X135973171Y-103072176D01*
X135995196Y-102933116D01*
X136006917Y-102859116D01*
X136006917Y-102643383D01*
X140245083Y-102643383D01*
X140245083Y-102859116D01*
X140266869Y-102996666D01*
X140278829Y-103072176D01*
X140345491Y-103277339D01*
X140443426Y-103469549D01*
X140570224Y-103644071D01*
X140722762Y-103796609D01*
X140806962Y-103857784D01*
X140893877Y-103920932D01*
X140936542Y-103976262D01*
X140942521Y-104045876D01*
X140909915Y-104107671D01*
X140893877Y-104121568D01*
X140828621Y-104168979D01*
X140722762Y-104245891D01*
X140722760Y-104245893D01*
X140722759Y-104245893D01*
X140570226Y-104398426D01*
X140570226Y-104398427D01*
X140570224Y-104398429D01*
X140515769Y-104473379D01*
X140443426Y-104572950D01*
X140345492Y-104765158D01*
X140278828Y-104970327D01*
X140245083Y-105183383D01*
X140245083Y-105399116D01*
X140278828Y-105612172D01*
X140278829Y-105612176D01*
X140345491Y-105817339D01*
X140443426Y-106009549D01*
X140570224Y-106184071D01*
X140722762Y-106336609D01*
X140844037Y-106424721D01*
X140893877Y-106460932D01*
X140936542Y-106516262D01*
X140942521Y-106585876D01*
X140909915Y-106647671D01*
X140893877Y-106661568D01*
X140722762Y-106785891D01*
X140722760Y-106785893D01*
X140722759Y-106785893D01*
X140570226Y-106938426D01*
X140570226Y-106938427D01*
X140570224Y-106938429D01*
X140515769Y-107013379D01*
X140443426Y-107112950D01*
X140345492Y-107305158D01*
X140278828Y-107510327D01*
X140245083Y-107723383D01*
X140245083Y-107939116D01*
X140278828Y-108152172D01*
X140278829Y-108152176D01*
X140345491Y-108357339D01*
X140443426Y-108549549D01*
X140570224Y-108724071D01*
X140722762Y-108876609D01*
X140897284Y-109003407D01*
X141089494Y-109101342D01*
X141294657Y-109168004D01*
X141374556Y-109180658D01*
X141507717Y-109201750D01*
X141507722Y-109201750D01*
X142173449Y-109201750D01*
X142291813Y-109183002D01*
X142386509Y-109168004D01*
X142591672Y-109101342D01*
X142783882Y-109003407D01*
X142958404Y-108876609D01*
X143110942Y-108724071D01*
X143237740Y-108549549D01*
X143335675Y-108357339D01*
X143402337Y-108152176D01*
X143417335Y-108057480D01*
X143436083Y-107939116D01*
X143436083Y-107723383D01*
X143402337Y-107510327D01*
X143402337Y-107510324D01*
X143335675Y-107305161D01*
X143237740Y-107112951D01*
X143110942Y-106938429D01*
X142958404Y-106785891D01*
X142787287Y-106661567D01*
X142744623Y-106606238D01*
X142738644Y-106536624D01*
X142771250Y-106474830D01*
X142787285Y-106460934D01*
X142958404Y-106336609D01*
X143110942Y-106184071D01*
X143237740Y-106009549D01*
X143335675Y-105817339D01*
X143402337Y-105612176D01*
X143418152Y-105512321D01*
X143436083Y-105399116D01*
X143436083Y-105183383D01*
X143408633Y-105010076D01*
X143402337Y-104970324D01*
X143335675Y-104765161D01*
X143237740Y-104572951D01*
X143110942Y-104398429D01*
X142958404Y-104245891D01*
X142787287Y-104121567D01*
X142744623Y-104066238D01*
X142738644Y-103996624D01*
X142771250Y-103934830D01*
X142787285Y-103920934D01*
X142958404Y-103796609D01*
X143110942Y-103644071D01*
X143237740Y-103469549D01*
X143335675Y-103277339D01*
X143402337Y-103072176D01*
X143424362Y-102933116D01*
X143436083Y-102859116D01*
X143436083Y-102643383D01*
X147674250Y-102643383D01*
X147674250Y-102859116D01*
X147696036Y-102996666D01*
X147707996Y-103072176D01*
X147774658Y-103277339D01*
X147872593Y-103469549D01*
X147999391Y-103644071D01*
X148151929Y-103796609D01*
X148236129Y-103857784D01*
X148323044Y-103920932D01*
X148365709Y-103976262D01*
X148371688Y-104045876D01*
X148339082Y-104107671D01*
X148323044Y-104121568D01*
X148257788Y-104168979D01*
X148151929Y-104245891D01*
X148151927Y-104245893D01*
X148151926Y-104245893D01*
X147999393Y-104398426D01*
X147999393Y-104398427D01*
X147999391Y-104398429D01*
X147944936Y-104473379D01*
X147872593Y-104572950D01*
X147774659Y-104765158D01*
X147707995Y-104970327D01*
X147674250Y-105183383D01*
X147674250Y-105399116D01*
X147707995Y-105612172D01*
X147707996Y-105612176D01*
X147774658Y-105817339D01*
X147872593Y-106009549D01*
X147999391Y-106184071D01*
X148151929Y-106336609D01*
X148273204Y-106424721D01*
X148323044Y-106460932D01*
X148365709Y-106516262D01*
X148371688Y-106585876D01*
X148339082Y-106647671D01*
X148323044Y-106661568D01*
X148151929Y-106785891D01*
X148151927Y-106785893D01*
X148151926Y-106785893D01*
X147999393Y-106938426D01*
X147999393Y-106938427D01*
X147999391Y-106938429D01*
X147944936Y-107013379D01*
X147872593Y-107112950D01*
X147774659Y-107305158D01*
X147707995Y-107510327D01*
X147674250Y-107723383D01*
X147674250Y-107939116D01*
X147707995Y-108152172D01*
X147707996Y-108152176D01*
X147774658Y-108357339D01*
X147872593Y-108549549D01*
X147999391Y-108724071D01*
X148151929Y-108876609D01*
X148326451Y-109003407D01*
X148518661Y-109101342D01*
X148723824Y-109168004D01*
X148803723Y-109180658D01*
X148936884Y-109201750D01*
X148936889Y-109201750D01*
X149602616Y-109201750D01*
X149720980Y-109183002D01*
X149815676Y-109168004D01*
X150020839Y-109101342D01*
X150213049Y-109003407D01*
X150387571Y-108876609D01*
X150540109Y-108724071D01*
X150666907Y-108549549D01*
X150764842Y-108357339D01*
X150831504Y-108152176D01*
X150846502Y-108057480D01*
X150865250Y-107939116D01*
X150865250Y-107723383D01*
X150831504Y-107510327D01*
X150831504Y-107510324D01*
X150764842Y-107305161D01*
X150666907Y-107112951D01*
X150540109Y-106938429D01*
X150387571Y-106785891D01*
X150216454Y-106661567D01*
X150173790Y-106606238D01*
X150167811Y-106536624D01*
X150200417Y-106474830D01*
X150216452Y-106460934D01*
X150387571Y-106336609D01*
X150540109Y-106184071D01*
X150666907Y-106009549D01*
X150764842Y-105817339D01*
X150831504Y-105612176D01*
X150847319Y-105512321D01*
X150865250Y-105399116D01*
X150865250Y-105183383D01*
X150837800Y-105010076D01*
X150831504Y-104970324D01*
X150764842Y-104765161D01*
X150666907Y-104572951D01*
X150540109Y-104398429D01*
X150387571Y-104245891D01*
X150216454Y-104121567D01*
X150173790Y-104066238D01*
X150167811Y-103996624D01*
X150200417Y-103934830D01*
X150216452Y-103920934D01*
X150387571Y-103796609D01*
X150540109Y-103644071D01*
X150666907Y-103469549D01*
X150764842Y-103277339D01*
X150831504Y-103072176D01*
X150853529Y-102933116D01*
X150865250Y-102859116D01*
X150865250Y-102643383D01*
X150831504Y-102430327D01*
X150831504Y-102430324D01*
X150764842Y-102225161D01*
X150666907Y-102032951D01*
X150540109Y-101858429D01*
X150387571Y-101705891D01*
X150213049Y-101579093D01*
X150020839Y-101481158D01*
X149815676Y-101414496D01*
X149815674Y-101414495D01*
X149815672Y-101414495D01*
X149602616Y-101380750D01*
X149602611Y-101380750D01*
X148936889Y-101380750D01*
X148936884Y-101380750D01*
X148723827Y-101414495D01*
X148518658Y-101481159D01*
X148326450Y-101579093D01*
X148226879Y-101651436D01*
X148151929Y-101705891D01*
X148151927Y-101705893D01*
X148151926Y-101705893D01*
X147999393Y-101858426D01*
X147999393Y-101858427D01*
X147999391Y-101858429D01*
X147984528Y-101878886D01*
X147872593Y-102032950D01*
X147774659Y-102225158D01*
X147707995Y-102430327D01*
X147674250Y-102643383D01*
X143436083Y-102643383D01*
X143402337Y-102430327D01*
X143402337Y-102430324D01*
X143335675Y-102225161D01*
X143237740Y-102032951D01*
X143110942Y-101858429D01*
X142958404Y-101705891D01*
X142783882Y-101579093D01*
X142591672Y-101481158D01*
X142386509Y-101414496D01*
X142386507Y-101414495D01*
X142386505Y-101414495D01*
X142173449Y-101380750D01*
X142173444Y-101380750D01*
X141507722Y-101380750D01*
X141507717Y-101380750D01*
X141294660Y-101414495D01*
X141089491Y-101481159D01*
X140897283Y-101579093D01*
X140797712Y-101651436D01*
X140722762Y-101705891D01*
X140722760Y-101705893D01*
X140722759Y-101705893D01*
X140570226Y-101858426D01*
X140570226Y-101858427D01*
X140570224Y-101858429D01*
X140555361Y-101878886D01*
X140443426Y-102032950D01*
X140345492Y-102225158D01*
X140278828Y-102430327D01*
X140245083Y-102643383D01*
X136006917Y-102643383D01*
X135973171Y-102430327D01*
X135973171Y-102430324D01*
X135906509Y-102225161D01*
X135808574Y-102032951D01*
X135681776Y-101858429D01*
X135529238Y-101705891D01*
X135354716Y-101579093D01*
X135162506Y-101481158D01*
X134957343Y-101414496D01*
X134957341Y-101414495D01*
X134957339Y-101414495D01*
X134744283Y-101380750D01*
X134744278Y-101380750D01*
X134078556Y-101380750D01*
X134078551Y-101380750D01*
X133865494Y-101414495D01*
X133660325Y-101481159D01*
X133468117Y-101579093D01*
X133368546Y-101651436D01*
X133293596Y-101705891D01*
X133293594Y-101705893D01*
X133293593Y-101705893D01*
X133141060Y-101858426D01*
X133141060Y-101858427D01*
X133141058Y-101858429D01*
X133126195Y-101878886D01*
X133014260Y-102032950D01*
X132916326Y-102225158D01*
X132849662Y-102430327D01*
X132815917Y-102643383D01*
X128577750Y-102643383D01*
X128544004Y-102430327D01*
X128544004Y-102430324D01*
X128477342Y-102225161D01*
X128379407Y-102032951D01*
X128252609Y-101858429D01*
X128100071Y-101705891D01*
X127925549Y-101579093D01*
X127733339Y-101481158D01*
X127528176Y-101414496D01*
X127528174Y-101414495D01*
X127528172Y-101414495D01*
X127315116Y-101380750D01*
X127315111Y-101380750D01*
X126649389Y-101380750D01*
X126649384Y-101380750D01*
X126436327Y-101414495D01*
X126231158Y-101481159D01*
X126038950Y-101579093D01*
X125939379Y-101651436D01*
X125864429Y-101705891D01*
X125864427Y-101705893D01*
X125864426Y-101705893D01*
X125711893Y-101858426D01*
X125711893Y-101858427D01*
X125711891Y-101858429D01*
X125697028Y-101878886D01*
X125585093Y-102032950D01*
X125487159Y-102225158D01*
X125420495Y-102430327D01*
X125386750Y-102643383D01*
X99328250Y-102643383D01*
X99328250Y-95007139D01*
X110369500Y-95007139D01*
X110369500Y-95980361D01*
X110396598Y-96151451D01*
X110450127Y-96316195D01*
X110528768Y-96470538D01*
X110630586Y-96610678D01*
X110753072Y-96733164D01*
X110893212Y-96834982D01*
X111047555Y-96913623D01*
X111212299Y-96967152D01*
X111383389Y-96994250D01*
X111383390Y-96994250D01*
X111556610Y-96994250D01*
X111556611Y-96994250D01*
X111727701Y-96967152D01*
X111892445Y-96913623D01*
X112046788Y-96834982D01*
X112186928Y-96733164D01*
X112309414Y-96610678D01*
X112411232Y-96470538D01*
X112489873Y-96316195D01*
X112543402Y-96151451D01*
X112570500Y-95980361D01*
X112570500Y-95007139D01*
X112909500Y-95007139D01*
X112909500Y-95980361D01*
X112936598Y-96151451D01*
X112990127Y-96316195D01*
X113068768Y-96470538D01*
X113170586Y-96610678D01*
X113293072Y-96733164D01*
X113433212Y-96834982D01*
X113587555Y-96913623D01*
X113752299Y-96967152D01*
X113923389Y-96994250D01*
X113923390Y-96994250D01*
X114096610Y-96994250D01*
X114096611Y-96994250D01*
X114267701Y-96967152D01*
X114432445Y-96913623D01*
X114586788Y-96834982D01*
X114726928Y-96733164D01*
X114849414Y-96610678D01*
X114951232Y-96470538D01*
X115029873Y-96316195D01*
X115083402Y-96151451D01*
X115110500Y-95980361D01*
X115110500Y-95007139D01*
X115449500Y-95007139D01*
X115449500Y-95980361D01*
X115476598Y-96151451D01*
X115530127Y-96316195D01*
X115608768Y-96470538D01*
X115710586Y-96610678D01*
X115833072Y-96733164D01*
X115973212Y-96834982D01*
X116127555Y-96913623D01*
X116292299Y-96967152D01*
X116463389Y-96994250D01*
X116463390Y-96994250D01*
X116636610Y-96994250D01*
X116636611Y-96994250D01*
X116807701Y-96967152D01*
X116972445Y-96913623D01*
X117126788Y-96834982D01*
X117266928Y-96733164D01*
X117389414Y-96610678D01*
X117491232Y-96470538D01*
X117569873Y-96316195D01*
X117623402Y-96151451D01*
X117650500Y-95980361D01*
X117650500Y-95007139D01*
X117989500Y-95007139D01*
X117989500Y-95980361D01*
X118016598Y-96151451D01*
X118070127Y-96316195D01*
X118148768Y-96470538D01*
X118250586Y-96610678D01*
X118373072Y-96733164D01*
X118513212Y-96834982D01*
X118667555Y-96913623D01*
X118832299Y-96967152D01*
X119003389Y-96994250D01*
X119003390Y-96994250D01*
X119176610Y-96994250D01*
X119176611Y-96994250D01*
X119347701Y-96967152D01*
X119512445Y-96913623D01*
X119666788Y-96834982D01*
X119806928Y-96733164D01*
X119929414Y-96610678D01*
X120031232Y-96470538D01*
X120109873Y-96316195D01*
X120163402Y-96151451D01*
X120190500Y-95980361D01*
X120190500Y-95007139D01*
X120529500Y-95007139D01*
X120529500Y-95980361D01*
X120556598Y-96151451D01*
X120610127Y-96316195D01*
X120688768Y-96470538D01*
X120790586Y-96610678D01*
X120913072Y-96733164D01*
X121053212Y-96834982D01*
X121207555Y-96913623D01*
X121372299Y-96967152D01*
X121543389Y-96994250D01*
X121543390Y-96994250D01*
X121716610Y-96994250D01*
X121716611Y-96994250D01*
X121887701Y-96967152D01*
X122052445Y-96913623D01*
X122206788Y-96834982D01*
X122346928Y-96733164D01*
X122469414Y-96610678D01*
X122571232Y-96470538D01*
X122649873Y-96316195D01*
X122703402Y-96151451D01*
X122730500Y-95980361D01*
X122730500Y-95007139D01*
X123069500Y-95007139D01*
X123069500Y-95980361D01*
X123096598Y-96151451D01*
X123150127Y-96316195D01*
X123228768Y-96470538D01*
X123330586Y-96610678D01*
X123453072Y-96733164D01*
X123593212Y-96834982D01*
X123747555Y-96913623D01*
X123912299Y-96967152D01*
X124083389Y-96994250D01*
X124083390Y-96994250D01*
X124256610Y-96994250D01*
X124256611Y-96994250D01*
X124427701Y-96967152D01*
X124592445Y-96913623D01*
X124746788Y-96834982D01*
X124886928Y-96733164D01*
X125009414Y-96610678D01*
X125111232Y-96470538D01*
X125189873Y-96316195D01*
X125243402Y-96151451D01*
X125270500Y-95980361D01*
X125270500Y-95007139D01*
X125609500Y-95007139D01*
X125609500Y-95980361D01*
X125636598Y-96151451D01*
X125690127Y-96316195D01*
X125768768Y-96470538D01*
X125870586Y-96610678D01*
X125993072Y-96733164D01*
X126133212Y-96834982D01*
X126287555Y-96913623D01*
X126452299Y-96967152D01*
X126623389Y-96994250D01*
X126623390Y-96994250D01*
X126796610Y-96994250D01*
X126796611Y-96994250D01*
X126967701Y-96967152D01*
X127132445Y-96913623D01*
X127286788Y-96834982D01*
X127426928Y-96733164D01*
X127549414Y-96610678D01*
X127651232Y-96470538D01*
X127729873Y-96316195D01*
X127783402Y-96151451D01*
X127810500Y-95980361D01*
X127810500Y-95007139D01*
X128149500Y-95007139D01*
X128149500Y-95980361D01*
X128176598Y-96151451D01*
X128230127Y-96316195D01*
X128308768Y-96470538D01*
X128410586Y-96610678D01*
X128533072Y-96733164D01*
X128673212Y-96834982D01*
X128827555Y-96913623D01*
X128992299Y-96967152D01*
X129163389Y-96994250D01*
X129163390Y-96994250D01*
X129336610Y-96994250D01*
X129336611Y-96994250D01*
X129507701Y-96967152D01*
X129672445Y-96913623D01*
X129826788Y-96834982D01*
X129966928Y-96733164D01*
X130089414Y-96610678D01*
X130191232Y-96470538D01*
X130269873Y-96316195D01*
X130323402Y-96151451D01*
X130350500Y-95980361D01*
X130350500Y-95007139D01*
X130689500Y-95007139D01*
X130689500Y-95980361D01*
X130716598Y-96151451D01*
X130770127Y-96316195D01*
X130848768Y-96470538D01*
X130950586Y-96610678D01*
X131073072Y-96733164D01*
X131213212Y-96834982D01*
X131367555Y-96913623D01*
X131532299Y-96967152D01*
X131703389Y-96994250D01*
X131703390Y-96994250D01*
X131876610Y-96994250D01*
X131876611Y-96994250D01*
X132047701Y-96967152D01*
X132212445Y-96913623D01*
X132366788Y-96834982D01*
X132506928Y-96733164D01*
X132629414Y-96610678D01*
X132731232Y-96470538D01*
X132809873Y-96316195D01*
X132863402Y-96151451D01*
X132890500Y-95980361D01*
X132890500Y-95007139D01*
X133229500Y-95007139D01*
X133229500Y-95980361D01*
X133256598Y-96151451D01*
X133310127Y-96316195D01*
X133388768Y-96470538D01*
X133490586Y-96610678D01*
X133613072Y-96733164D01*
X133753212Y-96834982D01*
X133907555Y-96913623D01*
X134072299Y-96967152D01*
X134243389Y-96994250D01*
X134243390Y-96994250D01*
X134416610Y-96994250D01*
X134416611Y-96994250D01*
X134587701Y-96967152D01*
X134752445Y-96913623D01*
X134906788Y-96834982D01*
X135046928Y-96733164D01*
X135169414Y-96610678D01*
X135271232Y-96470538D01*
X135349873Y-96316195D01*
X135403402Y-96151451D01*
X135430500Y-95980361D01*
X135430500Y-95007139D01*
X135769500Y-95007139D01*
X135769500Y-95980361D01*
X135796598Y-96151451D01*
X135850127Y-96316195D01*
X135928768Y-96470538D01*
X136030586Y-96610678D01*
X136153072Y-96733164D01*
X136293212Y-96834982D01*
X136447555Y-96913623D01*
X136612299Y-96967152D01*
X136783389Y-96994250D01*
X136783390Y-96994250D01*
X136956610Y-96994250D01*
X136956611Y-96994250D01*
X137127701Y-96967152D01*
X137292445Y-96913623D01*
X137446788Y-96834982D01*
X137586928Y-96733164D01*
X137709414Y-96610678D01*
X137811232Y-96470538D01*
X137889873Y-96316195D01*
X137943402Y-96151451D01*
X137970500Y-95980361D01*
X137970500Y-95007139D01*
X138309500Y-95007139D01*
X138309500Y-95980361D01*
X138336598Y-96151451D01*
X138390127Y-96316195D01*
X138468768Y-96470538D01*
X138570586Y-96610678D01*
X138693072Y-96733164D01*
X138833212Y-96834982D01*
X138987555Y-96913623D01*
X139152299Y-96967152D01*
X139323389Y-96994250D01*
X139323390Y-96994250D01*
X139496610Y-96994250D01*
X139496611Y-96994250D01*
X139667701Y-96967152D01*
X139832445Y-96913623D01*
X139986788Y-96834982D01*
X140126928Y-96733164D01*
X140249414Y-96610678D01*
X140351232Y-96470538D01*
X140429873Y-96316195D01*
X140483402Y-96151451D01*
X140510500Y-95980361D01*
X140510500Y-95007139D01*
X140849500Y-95007139D01*
X140849500Y-95980361D01*
X140876598Y-96151451D01*
X140930127Y-96316195D01*
X141008768Y-96470538D01*
X141110586Y-96610678D01*
X141233072Y-96733164D01*
X141373212Y-96834982D01*
X141527555Y-96913623D01*
X141692299Y-96967152D01*
X141863389Y-96994250D01*
X141863390Y-96994250D01*
X142036610Y-96994250D01*
X142036611Y-96994250D01*
X142207701Y-96967152D01*
X142372445Y-96913623D01*
X142526788Y-96834982D01*
X142666928Y-96733164D01*
X142789414Y-96610678D01*
X142891232Y-96470538D01*
X142969873Y-96316195D01*
X143023402Y-96151451D01*
X143050500Y-95980361D01*
X143050500Y-95007139D01*
X143389500Y-95007139D01*
X143389500Y-95980361D01*
X143416598Y-96151451D01*
X143470127Y-96316195D01*
X143548768Y-96470538D01*
X143650586Y-96610678D01*
X143773072Y-96733164D01*
X143913212Y-96834982D01*
X144067555Y-96913623D01*
X144232299Y-96967152D01*
X144403389Y-96994250D01*
X144403390Y-96994250D01*
X144576610Y-96994250D01*
X144576611Y-96994250D01*
X144747701Y-96967152D01*
X144912445Y-96913623D01*
X145066788Y-96834982D01*
X145206928Y-96733164D01*
X145329414Y-96610678D01*
X145431232Y-96470538D01*
X145509873Y-96316195D01*
X145563402Y-96151451D01*
X145590500Y-95980361D01*
X145590500Y-95007139D01*
X145929500Y-95007139D01*
X145929500Y-95980361D01*
X145956598Y-96151451D01*
X146010127Y-96316195D01*
X146088768Y-96470538D01*
X146190586Y-96610678D01*
X146313072Y-96733164D01*
X146453212Y-96834982D01*
X146607555Y-96913623D01*
X146772299Y-96967152D01*
X146943389Y-96994250D01*
X146943390Y-96994250D01*
X147116610Y-96994250D01*
X147116611Y-96994250D01*
X147287701Y-96967152D01*
X147452445Y-96913623D01*
X147606788Y-96834982D01*
X147746928Y-96733164D01*
X147869414Y-96610678D01*
X147971232Y-96470538D01*
X148049873Y-96316195D01*
X148103402Y-96151451D01*
X148130500Y-95980361D01*
X148130500Y-95007139D01*
X148469500Y-95007139D01*
X148469500Y-95980361D01*
X148496598Y-96151451D01*
X148550127Y-96316195D01*
X148628768Y-96470538D01*
X148730586Y-96610678D01*
X148853072Y-96733164D01*
X148993212Y-96834982D01*
X149147555Y-96913623D01*
X149312299Y-96967152D01*
X149483389Y-96994250D01*
X149483390Y-96994250D01*
X149656610Y-96994250D01*
X149656611Y-96994250D01*
X149827701Y-96967152D01*
X149871917Y-96952784D01*
X149941756Y-96950788D01*
X149997916Y-96983034D01*
X152213181Y-99198298D01*
X152246666Y-99259621D01*
X152249500Y-99285979D01*
X152249500Y-104206251D01*
X152249500Y-104206253D01*
X152249499Y-104206253D01*
X152278340Y-104351240D01*
X152278343Y-104351250D01*
X152334914Y-104487825D01*
X152367812Y-104537060D01*
X152367813Y-104537063D01*
X152417046Y-104610747D01*
X152417052Y-104610754D01*
X155127441Y-107321141D01*
X155160926Y-107382464D01*
X155157692Y-107447138D01*
X155137162Y-107510324D01*
X155103417Y-107723383D01*
X155103417Y-107939116D01*
X155137162Y-108152172D01*
X155137163Y-108152176D01*
X155203825Y-108357339D01*
X155301760Y-108549549D01*
X155428558Y-108724071D01*
X155581096Y-108876609D01*
X155755618Y-109003407D01*
X155947828Y-109101342D01*
X156152991Y-109168004D01*
X156232890Y-109180658D01*
X156366051Y-109201750D01*
X156366056Y-109201750D01*
X157031783Y-109201750D01*
X157150147Y-109183002D01*
X157244843Y-109168004D01*
X157450006Y-109101342D01*
X157642216Y-109003407D01*
X157816738Y-108876609D01*
X157969276Y-108724071D01*
X158035542Y-108632863D01*
X158090873Y-108590199D01*
X158135860Y-108581750D01*
X162691140Y-108581750D01*
X162758179Y-108601435D01*
X162791457Y-108632863D01*
X162857724Y-108724071D01*
X163010262Y-108876609D01*
X163184784Y-109003407D01*
X163376994Y-109101342D01*
X163582157Y-109168004D01*
X163662056Y-109180658D01*
X163795217Y-109201750D01*
X163795222Y-109201750D01*
X164460949Y-109201750D01*
X164579313Y-109183002D01*
X164674009Y-109168004D01*
X164879172Y-109101342D01*
X165071382Y-109003407D01*
X165245904Y-108876609D01*
X165398442Y-108724071D01*
X165525240Y-108549549D01*
X165623175Y-108357339D01*
X165689837Y-108152176D01*
X165704835Y-108057480D01*
X165723583Y-107939116D01*
X165723583Y-107723383D01*
X165689837Y-107510327D01*
X165689837Y-107510324D01*
X165623175Y-107305161D01*
X165525240Y-107112951D01*
X165398442Y-106938429D01*
X165245904Y-106785891D01*
X165074787Y-106661567D01*
X165032123Y-106606238D01*
X165026144Y-106536624D01*
X165058750Y-106474830D01*
X165074785Y-106460934D01*
X165245904Y-106336609D01*
X165398442Y-106184071D01*
X165525240Y-106009549D01*
X165623175Y-105817339D01*
X165689837Y-105612176D01*
X165705652Y-105512321D01*
X165723583Y-105399116D01*
X165723583Y-105183383D01*
X165696133Y-105010076D01*
X165689837Y-104970324D01*
X165623175Y-104765161D01*
X165525240Y-104572951D01*
X165398442Y-104398429D01*
X165245904Y-104245891D01*
X165074787Y-104121567D01*
X165032123Y-104066238D01*
X165026144Y-103996624D01*
X165058750Y-103934830D01*
X165074785Y-103920934D01*
X165245904Y-103796609D01*
X165398442Y-103644071D01*
X165525240Y-103469549D01*
X165623175Y-103277339D01*
X165689837Y-103072176D01*
X165711862Y-102933116D01*
X165723583Y-102859116D01*
X165723583Y-102643383D01*
X169961750Y-102643383D01*
X169961750Y-102859116D01*
X169983536Y-102996666D01*
X169995496Y-103072176D01*
X170062158Y-103277339D01*
X170160093Y-103469549D01*
X170286891Y-103644071D01*
X170439429Y-103796609D01*
X170523629Y-103857784D01*
X170610544Y-103920932D01*
X170653209Y-103976262D01*
X170659188Y-104045876D01*
X170626582Y-104107671D01*
X170610544Y-104121568D01*
X170545288Y-104168979D01*
X170439429Y-104245891D01*
X170439427Y-104245893D01*
X170439426Y-104245893D01*
X170286893Y-104398426D01*
X170286893Y-104398427D01*
X170286891Y-104398429D01*
X170232436Y-104473379D01*
X170160093Y-104572950D01*
X170062159Y-104765158D01*
X169995495Y-104970327D01*
X169961750Y-105183383D01*
X169961750Y-105399116D01*
X169995495Y-105612172D01*
X169995496Y-105612176D01*
X170062158Y-105817339D01*
X170160093Y-106009549D01*
X170286891Y-106184071D01*
X170439429Y-106336609D01*
X170560704Y-106424721D01*
X170610544Y-106460932D01*
X170653209Y-106516262D01*
X170659188Y-106585876D01*
X170626582Y-106647671D01*
X170610544Y-106661568D01*
X170439429Y-106785891D01*
X170439427Y-106785893D01*
X170439426Y-106785893D01*
X170286893Y-106938426D01*
X170286893Y-106938427D01*
X170286891Y-106938429D01*
X170232436Y-107013379D01*
X170160093Y-107112950D01*
X170062159Y-107305158D01*
X169995495Y-107510327D01*
X169961750Y-107723383D01*
X169961750Y-107939116D01*
X169995495Y-108152172D01*
X169995496Y-108152176D01*
X170062158Y-108357339D01*
X170160093Y-108549549D01*
X170286891Y-108724071D01*
X170439429Y-108876609D01*
X170613951Y-109003407D01*
X170806161Y-109101342D01*
X171011324Y-109168004D01*
X171091223Y-109180658D01*
X171224384Y-109201750D01*
X171224389Y-109201750D01*
X171890116Y-109201750D01*
X172008480Y-109183002D01*
X172103176Y-109168004D01*
X172308339Y-109101342D01*
X172500549Y-109003407D01*
X172675071Y-108876609D01*
X172827609Y-108724071D01*
X172954407Y-108549549D01*
X173052342Y-108357339D01*
X173119004Y-108152176D01*
X173134002Y-108057480D01*
X173152750Y-107939116D01*
X173152750Y-107723383D01*
X173119004Y-107510327D01*
X173119004Y-107510324D01*
X173052342Y-107305161D01*
X172954407Y-107112951D01*
X172827609Y-106938429D01*
X172675071Y-106785891D01*
X172503954Y-106661567D01*
X172461290Y-106606238D01*
X172455311Y-106536624D01*
X172487917Y-106474830D01*
X172503952Y-106460934D01*
X172675071Y-106336609D01*
X172827609Y-106184071D01*
X172954407Y-106009549D01*
X173052342Y-105817339D01*
X173119004Y-105612176D01*
X173134819Y-105512321D01*
X173152750Y-105399116D01*
X173152750Y-105183383D01*
X173125300Y-105010076D01*
X173119004Y-104970324D01*
X173052342Y-104765161D01*
X172954407Y-104572951D01*
X172827609Y-104398429D01*
X172675071Y-104245891D01*
X172503954Y-104121567D01*
X172487367Y-104100056D01*
X172468125Y-104080889D01*
X172466348Y-104072797D01*
X172461290Y-104066238D01*
X172458965Y-104039177D01*
X172453140Y-104012646D01*
X172456019Y-104004878D01*
X172455311Y-103996624D01*
X172467987Y-103972600D01*
X172477429Y-103947134D01*
X172485774Y-103938890D01*
X172487917Y-103934830D01*
X172502337Y-103922128D01*
X172503136Y-103921527D01*
X172563083Y-103877973D01*
X183949500Y-103877973D01*
X183949500Y-104122027D01*
X183987679Y-104363076D01*
X184063096Y-104595185D01*
X184149701Y-104765158D01*
X184173896Y-104812642D01*
X184317339Y-105010076D01*
X184317343Y-105010081D01*
X184489918Y-105182656D01*
X184489923Y-105182660D01*
X184662136Y-105307779D01*
X184687361Y-105326106D01*
X184904815Y-105436904D01*
X185136924Y-105512321D01*
X185377973Y-105550500D01*
X185377974Y-105550500D01*
X185622026Y-105550500D01*
X185622027Y-105550500D01*
X185863076Y-105512321D01*
X186095185Y-105436904D01*
X186312639Y-105326106D01*
X186510083Y-105182655D01*
X186655920Y-105036818D01*
X186717243Y-105003334D01*
X186743601Y-105000500D01*
X190522292Y-105000500D01*
X190553316Y-104994328D01*
X190618938Y-104981275D01*
X190715586Y-104962051D01*
X190768915Y-104939961D01*
X190897664Y-104886632D01*
X191061532Y-104777139D01*
X191200889Y-104637782D01*
X191200889Y-104637780D01*
X191211097Y-104627573D01*
X191211098Y-104627570D01*
X193028102Y-102810569D01*
X193089425Y-102777084D01*
X193115783Y-102774250D01*
X195255130Y-102774250D01*
X195255138Y-102774250D01*
X195368552Y-102764167D01*
X195554406Y-102710987D01*
X195725751Y-102621484D01*
X195875571Y-102499321D01*
X195997734Y-102349501D01*
X196087237Y-102178156D01*
X196140417Y-101992302D01*
X196150500Y-101878888D01*
X196150500Y-99668612D01*
X196140417Y-99555198D01*
X196087237Y-99369344D01*
X195997734Y-99197999D01*
X195936652Y-99123089D01*
X195875571Y-99048178D01*
X195725751Y-98926016D01*
X195591815Y-98856054D01*
X195541508Y-98807567D01*
X195525401Y-98739579D01*
X195548608Y-98673676D01*
X195549961Y-98671834D01*
X195595437Y-98611085D01*
X195595436Y-98611085D01*
X195595440Y-98611081D01*
X195645735Y-98476233D01*
X195652144Y-98416623D01*
X195652143Y-94820878D01*
X195645735Y-94761267D01*
X195612181Y-94671305D01*
X195595441Y-94626421D01*
X195595437Y-94626414D01*
X195509191Y-94511205D01*
X195509188Y-94511202D01*
X195393979Y-94424956D01*
X195393972Y-94424952D01*
X195259126Y-94374658D01*
X195259127Y-94374658D01*
X195199527Y-94368251D01*
X195199525Y-94368250D01*
X195199517Y-94368250D01*
X195199508Y-94368250D01*
X192803773Y-94368250D01*
X192803767Y-94368251D01*
X192744160Y-94374658D01*
X192609315Y-94424952D01*
X192609308Y-94424956D01*
X192494099Y-94511202D01*
X192494096Y-94511205D01*
X192407850Y-94626414D01*
X192407846Y-94626421D01*
X192357552Y-94761267D01*
X192352872Y-94804804D01*
X192351145Y-94820873D01*
X192351144Y-94820885D01*
X192351144Y-98416620D01*
X192351145Y-98416626D01*
X192357552Y-98476233D01*
X192405922Y-98605917D01*
X192410906Y-98675608D01*
X192377421Y-98736931D01*
X192316098Y-98770416D01*
X192289740Y-98773250D01*
X192044862Y-98773250D01*
X192032599Y-98774340D01*
X191931451Y-98783332D01*
X191745594Y-98836512D01*
X191574250Y-98926015D01*
X191424428Y-99048178D01*
X191302265Y-99198000D01*
X191212762Y-99369344D01*
X191159582Y-99555201D01*
X191149500Y-99668613D01*
X191149500Y-101807967D01*
X191129815Y-101875006D01*
X191113181Y-101895648D01*
X190045649Y-102963181D01*
X189984326Y-102996666D01*
X189957968Y-102999500D01*
X186743601Y-102999500D01*
X186676562Y-102979815D01*
X186655920Y-102963182D01*
X186588922Y-102896184D01*
X186510083Y-102817345D01*
X186510079Y-102817342D01*
X186510075Y-102817338D01*
X186312642Y-102673896D01*
X186312641Y-102673895D01*
X186312639Y-102673894D01*
X186095185Y-102563096D01*
X185863076Y-102487679D01*
X185863074Y-102487678D01*
X185863072Y-102487678D01*
X185694769Y-102461021D01*
X185622027Y-102449500D01*
X185377973Y-102449500D01*
X185322093Y-102458350D01*
X185136927Y-102487678D01*
X184904812Y-102563097D01*
X184687357Y-102673896D01*
X184489923Y-102817339D01*
X184489918Y-102817343D01*
X184317343Y-102989918D01*
X184317339Y-102989923D01*
X184173896Y-103187357D01*
X184063097Y-103404812D01*
X183987678Y-103636927D01*
X183966585Y-103770103D01*
X183949500Y-103877973D01*
X172563083Y-103877973D01*
X172675071Y-103796609D01*
X172827609Y-103644071D01*
X172954407Y-103469549D01*
X173052342Y-103277339D01*
X173119004Y-103072176D01*
X173141029Y-102933116D01*
X173152750Y-102859116D01*
X173152750Y-102643383D01*
X173119004Y-102430327D01*
X173119004Y-102430324D01*
X173052342Y-102225161D01*
X172954407Y-102032951D01*
X172827609Y-101858429D01*
X172675071Y-101705891D01*
X172500549Y-101579093D01*
X172308339Y-101481158D01*
X172103176Y-101414496D01*
X172103174Y-101414495D01*
X172103172Y-101414495D01*
X171890116Y-101380750D01*
X171890111Y-101380750D01*
X171224389Y-101380750D01*
X171224384Y-101380750D01*
X171011327Y-101414495D01*
X170806158Y-101481159D01*
X170613950Y-101579093D01*
X170514379Y-101651436D01*
X170439429Y-101705891D01*
X170439427Y-101705893D01*
X170439426Y-101705893D01*
X170286893Y-101858426D01*
X170286893Y-101858427D01*
X170286891Y-101858429D01*
X170272028Y-101878886D01*
X170160093Y-102032950D01*
X170062159Y-102225158D01*
X169995495Y-102430327D01*
X169961750Y-102643383D01*
X165723583Y-102643383D01*
X165689837Y-102430327D01*
X165689837Y-102430324D01*
X165623175Y-102225161D01*
X165525240Y-102032951D01*
X165398442Y-101858429D01*
X165245904Y-101705891D01*
X165071382Y-101579093D01*
X164879172Y-101481158D01*
X164674009Y-101414496D01*
X164674007Y-101414495D01*
X164674005Y-101414495D01*
X164460949Y-101380750D01*
X164460944Y-101380750D01*
X163795222Y-101380750D01*
X163795217Y-101380750D01*
X163582160Y-101414495D01*
X163376991Y-101481159D01*
X163184783Y-101579093D01*
X163085212Y-101651436D01*
X163010262Y-101705891D01*
X163010260Y-101705893D01*
X163010259Y-101705893D01*
X162857726Y-101858426D01*
X162857726Y-101858427D01*
X162857724Y-101858429D01*
X162842861Y-101878886D01*
X162730926Y-102032950D01*
X162632992Y-102225158D01*
X162566328Y-102430327D01*
X162532583Y-102643383D01*
X162532583Y-102859116D01*
X162554369Y-102996666D01*
X162566329Y-103072176D01*
X162632991Y-103277339D01*
X162730926Y-103469549D01*
X162857724Y-103644071D01*
X163010262Y-103796609D01*
X163094462Y-103857784D01*
X163181377Y-103920932D01*
X163224042Y-103976262D01*
X163230021Y-104045876D01*
X163197415Y-104107671D01*
X163181377Y-104121568D01*
X163116121Y-104168979D01*
X163010262Y-104245891D01*
X163010260Y-104245893D01*
X163010259Y-104245893D01*
X162857725Y-104398427D01*
X162857724Y-104398429D01*
X162792772Y-104487828D01*
X162791458Y-104489636D01*
X162736127Y-104532301D01*
X162691140Y-104540750D01*
X162269729Y-104540750D01*
X162202690Y-104521065D01*
X162182048Y-104504431D01*
X158846686Y-101169069D01*
X154852236Y-97174618D01*
X154818753Y-97113298D01*
X154823737Y-97043606D01*
X154865609Y-96987673D01*
X154903469Y-96969892D01*
X154903068Y-96968657D01*
X154907698Y-96967152D01*
X154907701Y-96967152D01*
X155072445Y-96913623D01*
X155226788Y-96834982D01*
X155366928Y-96733164D01*
X155489414Y-96610678D01*
X155591232Y-96470538D01*
X155669873Y-96316195D01*
X155723402Y-96151451D01*
X155750500Y-95980361D01*
X155750500Y-95007139D01*
X158629500Y-95007139D01*
X158629500Y-95980361D01*
X158656598Y-96151451D01*
X158710127Y-96316195D01*
X158788768Y-96470538D01*
X158890586Y-96610678D01*
X159013072Y-96733164D01*
X159153212Y-96834982D01*
X159307555Y-96913623D01*
X159472299Y-96967152D01*
X159643389Y-96994250D01*
X159643390Y-96994250D01*
X159816610Y-96994250D01*
X159816611Y-96994250D01*
X159987701Y-96967152D01*
X160152445Y-96913623D01*
X160306788Y-96834982D01*
X160446928Y-96733164D01*
X160569414Y-96610678D01*
X160671232Y-96470538D01*
X160749873Y-96316195D01*
X160803402Y-96151451D01*
X160830500Y-95980361D01*
X160830500Y-95007139D01*
X160803402Y-94836049D01*
X160798475Y-94820885D01*
X182951144Y-94820885D01*
X182951144Y-98416620D01*
X182951145Y-98416626D01*
X182957552Y-98476233D01*
X183007846Y-98611078D01*
X183007850Y-98611085D01*
X183094096Y-98726294D01*
X183094099Y-98726297D01*
X183209308Y-98812543D01*
X183209315Y-98812547D01*
X183344161Y-98862841D01*
X183344160Y-98862841D01*
X183351088Y-98863585D01*
X183403771Y-98869250D01*
X185799516Y-98869249D01*
X185859127Y-98862841D01*
X185993975Y-98812546D01*
X186109190Y-98726296D01*
X186195440Y-98611081D01*
X186245735Y-98476233D01*
X186252144Y-98416623D01*
X186252143Y-94820885D01*
X187651144Y-94820885D01*
X187651144Y-98416620D01*
X187651145Y-98416626D01*
X187657552Y-98476233D01*
X187707846Y-98611078D01*
X187707850Y-98611085D01*
X187794096Y-98726294D01*
X187794099Y-98726297D01*
X187909308Y-98812543D01*
X187909315Y-98812547D01*
X188044161Y-98862841D01*
X188044160Y-98862841D01*
X188051088Y-98863585D01*
X188103771Y-98869250D01*
X190499516Y-98869249D01*
X190559127Y-98862841D01*
X190693975Y-98812546D01*
X190809190Y-98726296D01*
X190895440Y-98611081D01*
X190945735Y-98476233D01*
X190952144Y-98416623D01*
X190952143Y-94820878D01*
X190945735Y-94761267D01*
X190912181Y-94671305D01*
X190895441Y-94626421D01*
X190895437Y-94626414D01*
X190809191Y-94511205D01*
X190809188Y-94511202D01*
X190693979Y-94424956D01*
X190693972Y-94424952D01*
X190559126Y-94374658D01*
X190559127Y-94374658D01*
X190499527Y-94368251D01*
X190499525Y-94368250D01*
X190499517Y-94368250D01*
X190499508Y-94368250D01*
X188103773Y-94368250D01*
X188103767Y-94368251D01*
X188044160Y-94374658D01*
X187909315Y-94424952D01*
X187909308Y-94424956D01*
X187794099Y-94511202D01*
X187794096Y-94511205D01*
X187707850Y-94626414D01*
X187707846Y-94626421D01*
X187657552Y-94761267D01*
X187652872Y-94804804D01*
X187651145Y-94820873D01*
X187651144Y-94820885D01*
X186252143Y-94820885D01*
X186252143Y-94820878D01*
X186245735Y-94761267D01*
X186212181Y-94671305D01*
X186195441Y-94626421D01*
X186195437Y-94626414D01*
X186109191Y-94511205D01*
X186109188Y-94511202D01*
X185993979Y-94424956D01*
X185993972Y-94424952D01*
X185859126Y-94374658D01*
X185859127Y-94374658D01*
X185799527Y-94368251D01*
X185799525Y-94368250D01*
X185799517Y-94368250D01*
X185799508Y-94368250D01*
X183403773Y-94368250D01*
X183403767Y-94368251D01*
X183344160Y-94374658D01*
X183209315Y-94424952D01*
X183209308Y-94424956D01*
X183094099Y-94511202D01*
X183094096Y-94511205D01*
X183007850Y-94626414D01*
X183007846Y-94626421D01*
X182957552Y-94761267D01*
X182952872Y-94804804D01*
X182951145Y-94820873D01*
X182951144Y-94820885D01*
X160798475Y-94820885D01*
X160749873Y-94671305D01*
X160671232Y-94516962D01*
X160569414Y-94376822D01*
X160446928Y-94254336D01*
X160306788Y-94152518D01*
X160152445Y-94073877D01*
X159987701Y-94020348D01*
X159987699Y-94020347D01*
X159987698Y-94020347D01*
X159856271Y-93999531D01*
X159816611Y-93993250D01*
X159643389Y-93993250D01*
X159603728Y-93999531D01*
X159472302Y-94020347D01*
X159307552Y-94073878D01*
X159153211Y-94152518D01*
X159073256Y-94210609D01*
X159013072Y-94254336D01*
X159013070Y-94254338D01*
X159013069Y-94254338D01*
X158890588Y-94376819D01*
X158890588Y-94376820D01*
X158890586Y-94376822D01*
X158846859Y-94437006D01*
X158788768Y-94516961D01*
X158710128Y-94671302D01*
X158656597Y-94836052D01*
X158629500Y-95007139D01*
X155750500Y-95007139D01*
X155723402Y-94836049D01*
X155669873Y-94671305D01*
X155601265Y-94536653D01*
X155587750Y-94480358D01*
X155587750Y-93729532D01*
X155607435Y-93662493D01*
X155624069Y-93641851D01*
X166414007Y-82851913D01*
X177490748Y-71775171D01*
X177552069Y-71741688D01*
X177567529Y-71739409D01*
X177568533Y-71739250D01*
X177568537Y-71739250D01*
X177778493Y-71705996D01*
X177980662Y-71640307D01*
X178170066Y-71543801D01*
X178256388Y-71481085D01*
X178342036Y-71418859D01*
X178342038Y-71418856D01*
X178342042Y-71418854D01*
X178492354Y-71268542D01*
X178492356Y-71268538D01*
X178492359Y-71268536D01*
X178617298Y-71096570D01*
X178617297Y-71096570D01*
X178617301Y-71096566D01*
X178713807Y-70907162D01*
X178779496Y-70704993D01*
X178812750Y-70495037D01*
X178812750Y-70282463D01*
X178779496Y-70072507D01*
X178713807Y-69870338D01*
X178617301Y-69680934D01*
X178617299Y-69680931D01*
X178617298Y-69680929D01*
X178492359Y-69508963D01*
X178342036Y-69358640D01*
X178170070Y-69233701D01*
X178169365Y-69233341D01*
X178161304Y-69229235D01*
X178110509Y-69181262D01*
X178093713Y-69113442D01*
X178116249Y-69047306D01*
X178161304Y-69008265D01*
X178170066Y-69003801D01*
X178212335Y-68973091D01*
X178342036Y-68878859D01*
X178342038Y-68878856D01*
X178342042Y-68878854D01*
X178492354Y-68728542D01*
X178492356Y-68728538D01*
X178492359Y-68728536D01*
X178617298Y-68556570D01*
X178617297Y-68556570D01*
X178617301Y-68556566D01*
X178713807Y-68367162D01*
X178779496Y-68164993D01*
X178812750Y-67955037D01*
X178812750Y-67742463D01*
X178779496Y-67532507D01*
X178713807Y-67330338D01*
X178617301Y-67140934D01*
X178617299Y-67140931D01*
X178617298Y-67140929D01*
X178492359Y-66968963D01*
X178342036Y-66818640D01*
X178170070Y-66693701D01*
X178169365Y-66693341D01*
X178161304Y-66689235D01*
X178110509Y-66641262D01*
X178093713Y-66573442D01*
X178116249Y-66507306D01*
X178161304Y-66468265D01*
X178170066Y-66463801D01*
X178192039Y-66447836D01*
X178342036Y-66338859D01*
X178342038Y-66338856D01*
X178342042Y-66338854D01*
X178492354Y-66188542D01*
X178492356Y-66188538D01*
X178492359Y-66188536D01*
X178617298Y-66016570D01*
X178617297Y-66016570D01*
X178617301Y-66016566D01*
X178713807Y-65827162D01*
X178779496Y-65624993D01*
X178812750Y-65415037D01*
X178812750Y-65202463D01*
X178779496Y-64992507D01*
X178713807Y-64790338D01*
X178617301Y-64600934D01*
X178617299Y-64600931D01*
X178617298Y-64600929D01*
X178492359Y-64428963D01*
X178378819Y-64315423D01*
X178345334Y-64254100D01*
X178350318Y-64184408D01*
X178392190Y-64128475D01*
X178423165Y-64111560D01*
X178554581Y-64062546D01*
X178669796Y-63976296D01*
X178756046Y-63861081D01*
X178806341Y-63726233D01*
X178812750Y-63666623D01*
X178812749Y-62818872D01*
X191527250Y-62818872D01*
X191527250Y-63081127D01*
X191553873Y-63283339D01*
X191561480Y-63341116D01*
X191620544Y-63561546D01*
X191629352Y-63594418D01*
X191629355Y-63594428D01*
X191729703Y-63836690D01*
X191729708Y-63836700D01*
X191860825Y-64063803D01*
X192020468Y-64271851D01*
X192020476Y-64271860D01*
X192205890Y-64457274D01*
X192205898Y-64457281D01*
X192413946Y-64616924D01*
X192641049Y-64748041D01*
X192641059Y-64748046D01*
X192772912Y-64802661D01*
X192883331Y-64848398D01*
X193136634Y-64916270D01*
X193396630Y-64950500D01*
X193396637Y-64950500D01*
X193658863Y-64950500D01*
X193658870Y-64950500D01*
X193918866Y-64916270D01*
X194172169Y-64848398D01*
X194414447Y-64748043D01*
X194641553Y-64616924D01*
X194849601Y-64457282D01*
X194849605Y-64457277D01*
X194849610Y-64457274D01*
X195035024Y-64271860D01*
X195035027Y-64271855D01*
X195035032Y-64271851D01*
X195194674Y-64063803D01*
X195325793Y-63836697D01*
X195426148Y-63594419D01*
X195494020Y-63341116D01*
X195528250Y-63081120D01*
X195528250Y-62818880D01*
X195494020Y-62558884D01*
X195426148Y-62305581D01*
X195426144Y-62305571D01*
X195325796Y-62063309D01*
X195325791Y-62063299D01*
X195194674Y-61836196D01*
X195035031Y-61628148D01*
X195035024Y-61628140D01*
X194849610Y-61442726D01*
X194849601Y-61442718D01*
X194641553Y-61283075D01*
X194414450Y-61151958D01*
X194414440Y-61151953D01*
X194172178Y-61051605D01*
X194172171Y-61051603D01*
X194172169Y-61051602D01*
X193918866Y-60983730D01*
X193861089Y-60976123D01*
X193658877Y-60949500D01*
X193658870Y-60949500D01*
X193396630Y-60949500D01*
X193396622Y-60949500D01*
X193165522Y-60979926D01*
X193136634Y-60983730D01*
X192883331Y-61051602D01*
X192883321Y-61051605D01*
X192641059Y-61151953D01*
X192641049Y-61151958D01*
X192413946Y-61283075D01*
X192205898Y-61442718D01*
X192020468Y-61628148D01*
X191860825Y-61836196D01*
X191729708Y-62063299D01*
X191729703Y-62063309D01*
X191629355Y-62305571D01*
X191629352Y-62305581D01*
X191589984Y-62452507D01*
X191561480Y-62558885D01*
X191527250Y-62818872D01*
X178812749Y-62818872D01*
X178812749Y-62662463D01*
X178812749Y-61870879D01*
X178812748Y-61870873D01*
X178812747Y-61870866D01*
X178806341Y-61811267D01*
X178764875Y-61700092D01*
X178756047Y-61676421D01*
X178756043Y-61676414D01*
X178669797Y-61561205D01*
X178669794Y-61561202D01*
X178554585Y-61474956D01*
X178554578Y-61474952D01*
X178419732Y-61424658D01*
X178419733Y-61424658D01*
X178360133Y-61418251D01*
X178360131Y-61418250D01*
X178360123Y-61418250D01*
X178360114Y-61418250D01*
X176564379Y-61418250D01*
X176564373Y-61418251D01*
X176504766Y-61424658D01*
X176369921Y-61474952D01*
X176369914Y-61474956D01*
X176254705Y-61561202D01*
X176254702Y-61561205D01*
X176168456Y-61676414D01*
X176168452Y-61676421D01*
X176118158Y-61811267D01*
X176114057Y-61849416D01*
X176111751Y-61870873D01*
X176111750Y-61870885D01*
X176111750Y-63666620D01*
X176111751Y-63666626D01*
X176118158Y-63726233D01*
X176168452Y-63861078D01*
X176168456Y-63861085D01*
X176254702Y-63976294D01*
X176254705Y-63976297D01*
X176369914Y-64062543D01*
X176369921Y-64062547D01*
X176501332Y-64111560D01*
X176557266Y-64153431D01*
X176581683Y-64218895D01*
X176566832Y-64287168D01*
X176545681Y-64315423D01*
X176432139Y-64428965D01*
X176307201Y-64600929D01*
X176210694Y-64790335D01*
X176145003Y-64992510D01*
X176121496Y-65140927D01*
X176111750Y-65202463D01*
X176111750Y-65415037D01*
X176145004Y-65624993D01*
X176197034Y-65785125D01*
X176210694Y-65827164D01*
X176307201Y-66016570D01*
X176432140Y-66188536D01*
X176582463Y-66338859D01*
X176754432Y-66463800D01*
X176763196Y-66468266D01*
X176813992Y-66516241D01*
X176830786Y-66584062D01*
X176808248Y-66650197D01*
X176763196Y-66689234D01*
X176754432Y-66693699D01*
X176582463Y-66818640D01*
X176432140Y-66968963D01*
X176307201Y-67140929D01*
X176210694Y-67330335D01*
X176145003Y-67532510D01*
X176125459Y-67655906D01*
X176111750Y-67742463D01*
X176111750Y-67955037D01*
X176145004Y-68164993D01*
X176157234Y-68202634D01*
X176210694Y-68367164D01*
X176307201Y-68556570D01*
X176432140Y-68728536D01*
X176582463Y-68878859D01*
X176754432Y-69003800D01*
X176763196Y-69008266D01*
X176813992Y-69056241D01*
X176830786Y-69124062D01*
X176808248Y-69190197D01*
X176763196Y-69229234D01*
X176754432Y-69233699D01*
X176582463Y-69358640D01*
X176432140Y-69508963D01*
X176307201Y-69680929D01*
X176210694Y-69870335D01*
X176145003Y-70072510D01*
X176110988Y-70287275D01*
X176109934Y-70287108D01*
X176086871Y-70347600D01*
X176075826Y-70360253D01*
X175234430Y-71201648D01*
X175173107Y-71235133D01*
X175103415Y-71230149D01*
X175047482Y-71188277D01*
X175023065Y-71122813D01*
X175022749Y-71113992D01*
X175022749Y-69490878D01*
X175016341Y-69431267D01*
X174966046Y-69296419D01*
X174966043Y-69296414D01*
X174879797Y-69181205D01*
X174879794Y-69181202D01*
X174764585Y-69094956D01*
X174764578Y-69094952D01*
X174633167Y-69045939D01*
X174577233Y-69004068D01*
X174552816Y-68938603D01*
X174567668Y-68870330D01*
X174588813Y-68842082D01*
X174702354Y-68728542D01*
X174827301Y-68556566D01*
X174923807Y-68367162D01*
X174989496Y-68164993D01*
X175022750Y-67955037D01*
X175022750Y-67742463D01*
X174989496Y-67532507D01*
X174923807Y-67330338D01*
X174827301Y-67140934D01*
X174827299Y-67140931D01*
X174827298Y-67140929D01*
X174702359Y-66968963D01*
X174552036Y-66818640D01*
X174380070Y-66693701D01*
X174379365Y-66693341D01*
X174371304Y-66689235D01*
X174320509Y-66641262D01*
X174303713Y-66573442D01*
X174326249Y-66507306D01*
X174371304Y-66468265D01*
X174380066Y-66463801D01*
X174402039Y-66447836D01*
X174552036Y-66338859D01*
X174552038Y-66338856D01*
X174552042Y-66338854D01*
X174702354Y-66188542D01*
X174702356Y-66188538D01*
X174702359Y-66188536D01*
X174827298Y-66016570D01*
X174827297Y-66016570D01*
X174827301Y-66016566D01*
X174923807Y-65827162D01*
X174989496Y-65624993D01*
X175022750Y-65415037D01*
X175022750Y-65202463D01*
X174989496Y-64992507D01*
X174923807Y-64790338D01*
X174827301Y-64600934D01*
X174827299Y-64600931D01*
X174827298Y-64600929D01*
X174702359Y-64428963D01*
X174552036Y-64278640D01*
X174380070Y-64153701D01*
X174379365Y-64153341D01*
X174371304Y-64149235D01*
X174320509Y-64101262D01*
X174303713Y-64033442D01*
X174326249Y-63967306D01*
X174371304Y-63928265D01*
X174380066Y-63923801D01*
X174402039Y-63907836D01*
X174552036Y-63798859D01*
X174552038Y-63798856D01*
X174552042Y-63798854D01*
X174702354Y-63648542D01*
X174702356Y-63648538D01*
X174702359Y-63648536D01*
X174827298Y-63476570D01*
X174827297Y-63476570D01*
X174827301Y-63476566D01*
X174923807Y-63287162D01*
X174989496Y-63084993D01*
X175022750Y-62875037D01*
X175022750Y-62662463D01*
X174989496Y-62452507D01*
X174923807Y-62250338D01*
X174827301Y-62060934D01*
X174827299Y-62060931D01*
X174827298Y-62060929D01*
X174702359Y-61888963D01*
X174552036Y-61738640D01*
X174380070Y-61613701D01*
X174190664Y-61517194D01*
X174190663Y-61517193D01*
X174190662Y-61517193D01*
X173988493Y-61451504D01*
X173988491Y-61451503D01*
X173988490Y-61451503D01*
X173827207Y-61425958D01*
X173778537Y-61418250D01*
X173565963Y-61418250D01*
X173517292Y-61425958D01*
X173356010Y-61451503D01*
X173153835Y-61517194D01*
X172964429Y-61613701D01*
X172792463Y-61738640D01*
X172642140Y-61888963D01*
X172517201Y-62060929D01*
X172420694Y-62250335D01*
X172355003Y-62452510D01*
X172321750Y-62662463D01*
X172321750Y-62875036D01*
X172355003Y-63084989D01*
X172420694Y-63287164D01*
X172517201Y-63476570D01*
X172642140Y-63648536D01*
X172792463Y-63798859D01*
X172964432Y-63923800D01*
X172973196Y-63928266D01*
X173023992Y-63976241D01*
X173040786Y-64044062D01*
X173018248Y-64110197D01*
X172973196Y-64149234D01*
X172964432Y-64153699D01*
X172792463Y-64278640D01*
X172642140Y-64428963D01*
X172517201Y-64600929D01*
X172420694Y-64790335D01*
X172355003Y-64992510D01*
X172331496Y-65140927D01*
X172321750Y-65202463D01*
X172321750Y-65415037D01*
X172355004Y-65624993D01*
X172407034Y-65785125D01*
X172420694Y-65827164D01*
X172517201Y-66016570D01*
X172642140Y-66188536D01*
X172792463Y-66338859D01*
X172964432Y-66463800D01*
X172973196Y-66468266D01*
X173023992Y-66516241D01*
X173040786Y-66584062D01*
X173018248Y-66650197D01*
X172973196Y-66689234D01*
X172964432Y-66693699D01*
X172792463Y-66818640D01*
X172642140Y-66968963D01*
X172517201Y-67140929D01*
X172420694Y-67330335D01*
X172355003Y-67532510D01*
X172335459Y-67655906D01*
X172321750Y-67742463D01*
X172321750Y-67955037D01*
X172355004Y-68164993D01*
X172367234Y-68202634D01*
X172420694Y-68367164D01*
X172517201Y-68556570D01*
X172642140Y-68728536D01*
X172755680Y-68842076D01*
X172789165Y-68903399D01*
X172784181Y-68973091D01*
X172742309Y-69029024D01*
X172711333Y-69045939D01*
X172579919Y-69094953D01*
X172579914Y-69094956D01*
X172464705Y-69181202D01*
X172464702Y-69181205D01*
X172378456Y-69296414D01*
X172378454Y-69296419D01*
X172328158Y-69431267D01*
X172321751Y-69490866D01*
X172321751Y-69490873D01*
X172321750Y-69490885D01*
X172321750Y-71286620D01*
X172321751Y-71286626D01*
X172328158Y-71346233D01*
X172378452Y-71481078D01*
X172378456Y-71481085D01*
X172464702Y-71596294D01*
X172464705Y-71596297D01*
X172579914Y-71682543D01*
X172579921Y-71682547D01*
X172714767Y-71732841D01*
X172714766Y-71732841D01*
X172721694Y-71733585D01*
X172774377Y-71739250D01*
X174397467Y-71739249D01*
X174464506Y-71758934D01*
X174510261Y-71811737D01*
X174520205Y-71880896D01*
X174491180Y-71944452D01*
X174485148Y-71950930D01*
X164178962Y-82257117D01*
X153949471Y-92486608D01*
X153949468Y-92486611D01*
X153879788Y-92556290D01*
X153810109Y-92625969D01*
X153700621Y-92789829D01*
X153700614Y-92789842D01*
X153625200Y-92971910D01*
X153625197Y-92971920D01*
X153586750Y-93165206D01*
X153586750Y-94785164D01*
X153580681Y-94823482D01*
X153576598Y-94836047D01*
X153549500Y-95007139D01*
X153549500Y-95572520D01*
X153543261Y-95593765D01*
X153541682Y-95615854D01*
X153533609Y-95626637D01*
X153529815Y-95639559D01*
X153513081Y-95654058D01*
X153499810Y-95671787D01*
X153487189Y-95676494D01*
X153477011Y-95685314D01*
X153455093Y-95688465D01*
X153434346Y-95696204D01*
X153421185Y-95693341D01*
X153407853Y-95695258D01*
X153387709Y-95686058D01*
X153366073Y-95681352D01*
X153348347Y-95668083D01*
X153344297Y-95666233D01*
X153337819Y-95660201D01*
X153246819Y-95569201D01*
X153213334Y-95507878D01*
X153210500Y-95481520D01*
X153210500Y-95007139D01*
X153183545Y-94836954D01*
X153183402Y-94836049D01*
X153129873Y-94671305D01*
X153051232Y-94516962D01*
X152949414Y-94376822D01*
X152826928Y-94254336D01*
X152686788Y-94152518D01*
X152532445Y-94073877D01*
X152367701Y-94020348D01*
X152367699Y-94020347D01*
X152367698Y-94020347D01*
X152236271Y-93999531D01*
X152196611Y-93993250D01*
X152023389Y-93993250D01*
X151983728Y-93999531D01*
X151852302Y-94020347D01*
X151687552Y-94073878D01*
X151533211Y-94152518D01*
X151453256Y-94210609D01*
X151393072Y-94254336D01*
X151393070Y-94254338D01*
X151393069Y-94254338D01*
X151270588Y-94376819D01*
X151270588Y-94376820D01*
X151270586Y-94376822D01*
X151226859Y-94437006D01*
X151168768Y-94516961D01*
X151090128Y-94671302D01*
X151036597Y-94836052D01*
X151009500Y-95007139D01*
X151009500Y-95572520D01*
X151003261Y-95593765D01*
X151001682Y-95615854D01*
X150993609Y-95626637D01*
X150989815Y-95639559D01*
X150973081Y-95654058D01*
X150959810Y-95671787D01*
X150947189Y-95676494D01*
X150937011Y-95685314D01*
X150915093Y-95688465D01*
X150894346Y-95696204D01*
X150881185Y-95693341D01*
X150867853Y-95695258D01*
X150847709Y-95686058D01*
X150826073Y-95681352D01*
X150808347Y-95668083D01*
X150804297Y-95666233D01*
X150797819Y-95660201D01*
X150706819Y-95569201D01*
X150673334Y-95507878D01*
X150670500Y-95481520D01*
X150670500Y-95007139D01*
X150643545Y-94836954D01*
X150643402Y-94836049D01*
X150589873Y-94671305D01*
X150511232Y-94516962D01*
X150409414Y-94376822D01*
X150286928Y-94254336D01*
X150146788Y-94152518D01*
X149992445Y-94073877D01*
X149827701Y-94020348D01*
X149827699Y-94020347D01*
X149827698Y-94020347D01*
X149696271Y-93999531D01*
X149656611Y-93993250D01*
X149483389Y-93993250D01*
X149443728Y-93999531D01*
X149312302Y-94020347D01*
X149147552Y-94073878D01*
X148993211Y-94152518D01*
X148913256Y-94210609D01*
X148853072Y-94254336D01*
X148853070Y-94254338D01*
X148853069Y-94254338D01*
X148730588Y-94376819D01*
X148730588Y-94376820D01*
X148730586Y-94376822D01*
X148686859Y-94437006D01*
X148628768Y-94516961D01*
X148550128Y-94671302D01*
X148496597Y-94836052D01*
X148469500Y-95007139D01*
X148130500Y-95007139D01*
X148103402Y-94836049D01*
X148049873Y-94671305D01*
X147971232Y-94516962D01*
X147869414Y-94376822D01*
X147746928Y-94254336D01*
X147606788Y-94152518D01*
X147452445Y-94073877D01*
X147287701Y-94020348D01*
X147287699Y-94020347D01*
X147287698Y-94020347D01*
X147156271Y-93999531D01*
X147116611Y-93993250D01*
X146943389Y-93993250D01*
X146903728Y-93999531D01*
X146772302Y-94020347D01*
X146607552Y-94073878D01*
X146453211Y-94152518D01*
X146373256Y-94210609D01*
X146313072Y-94254336D01*
X146313070Y-94254338D01*
X146313069Y-94254338D01*
X146190588Y-94376819D01*
X146190588Y-94376820D01*
X146190586Y-94376822D01*
X146146859Y-94437006D01*
X146088768Y-94516961D01*
X146010128Y-94671302D01*
X145956597Y-94836052D01*
X145929500Y-95007139D01*
X145590500Y-95007139D01*
X145563402Y-94836049D01*
X145509873Y-94671305D01*
X145431232Y-94516962D01*
X145329414Y-94376822D01*
X145206928Y-94254336D01*
X145066788Y-94152518D01*
X144912445Y-94073877D01*
X144747701Y-94020348D01*
X144747699Y-94020347D01*
X144747698Y-94020347D01*
X144616271Y-93999531D01*
X144576611Y-93993250D01*
X144403389Y-93993250D01*
X144363728Y-93999531D01*
X144232302Y-94020347D01*
X144067552Y-94073878D01*
X143913211Y-94152518D01*
X143833256Y-94210609D01*
X143773072Y-94254336D01*
X143773070Y-94254338D01*
X143773069Y-94254338D01*
X143650588Y-94376819D01*
X143650588Y-94376820D01*
X143650586Y-94376822D01*
X143606859Y-94437006D01*
X143548768Y-94516961D01*
X143470128Y-94671302D01*
X143416597Y-94836052D01*
X143389500Y-95007139D01*
X143050500Y-95007139D01*
X143023402Y-94836049D01*
X142969873Y-94671305D01*
X142891232Y-94516962D01*
X142789414Y-94376822D01*
X142666928Y-94254336D01*
X142526788Y-94152518D01*
X142372445Y-94073877D01*
X142207701Y-94020348D01*
X142207699Y-94020347D01*
X142207698Y-94020347D01*
X142076271Y-93999531D01*
X142036611Y-93993250D01*
X141863389Y-93993250D01*
X141823728Y-93999531D01*
X141692302Y-94020347D01*
X141527552Y-94073878D01*
X141373211Y-94152518D01*
X141293256Y-94210609D01*
X141233072Y-94254336D01*
X141233070Y-94254338D01*
X141233069Y-94254338D01*
X141110588Y-94376819D01*
X141110588Y-94376820D01*
X141110586Y-94376822D01*
X141066859Y-94437006D01*
X141008768Y-94516961D01*
X140930128Y-94671302D01*
X140876597Y-94836052D01*
X140849500Y-95007139D01*
X140510500Y-95007139D01*
X140483402Y-94836049D01*
X140429873Y-94671305D01*
X140351232Y-94516962D01*
X140249414Y-94376822D01*
X140126928Y-94254336D01*
X139986788Y-94152518D01*
X139832445Y-94073877D01*
X139667701Y-94020348D01*
X139667699Y-94020347D01*
X139667698Y-94020347D01*
X139536271Y-93999531D01*
X139496611Y-93993250D01*
X139323389Y-93993250D01*
X139283728Y-93999531D01*
X139152302Y-94020347D01*
X138987552Y-94073878D01*
X138833211Y-94152518D01*
X138753256Y-94210609D01*
X138693072Y-94254336D01*
X138693070Y-94254338D01*
X138693069Y-94254338D01*
X138570588Y-94376819D01*
X138570588Y-94376820D01*
X138570586Y-94376822D01*
X138526859Y-94437006D01*
X138468768Y-94516961D01*
X138390128Y-94671302D01*
X138336597Y-94836052D01*
X138309500Y-95007139D01*
X137970500Y-95007139D01*
X137943402Y-94836049D01*
X137889873Y-94671305D01*
X137811232Y-94516962D01*
X137709414Y-94376822D01*
X137586928Y-94254336D01*
X137446788Y-94152518D01*
X137292445Y-94073877D01*
X137127701Y-94020348D01*
X137127699Y-94020347D01*
X137127698Y-94020347D01*
X136996271Y-93999531D01*
X136956611Y-93993250D01*
X136783389Y-93993250D01*
X136743728Y-93999531D01*
X136612302Y-94020347D01*
X136447552Y-94073878D01*
X136293211Y-94152518D01*
X136213256Y-94210609D01*
X136153072Y-94254336D01*
X136153070Y-94254338D01*
X136153069Y-94254338D01*
X136030588Y-94376819D01*
X136030588Y-94376820D01*
X136030586Y-94376822D01*
X135986859Y-94437006D01*
X135928768Y-94516961D01*
X135850128Y-94671302D01*
X135796597Y-94836052D01*
X135769500Y-95007139D01*
X135430500Y-95007139D01*
X135403402Y-94836049D01*
X135349873Y-94671305D01*
X135271232Y-94516962D01*
X135169414Y-94376822D01*
X135046928Y-94254336D01*
X134906788Y-94152518D01*
X134752445Y-94073877D01*
X134587701Y-94020348D01*
X134587699Y-94020347D01*
X134587698Y-94020347D01*
X134456271Y-93999531D01*
X134416611Y-93993250D01*
X134243389Y-93993250D01*
X134203728Y-93999531D01*
X134072302Y-94020347D01*
X133907552Y-94073878D01*
X133753211Y-94152518D01*
X133673256Y-94210609D01*
X133613072Y-94254336D01*
X133613070Y-94254338D01*
X133613069Y-94254338D01*
X133490588Y-94376819D01*
X133490588Y-94376820D01*
X133490586Y-94376822D01*
X133446859Y-94437006D01*
X133388768Y-94516961D01*
X133310128Y-94671302D01*
X133256597Y-94836052D01*
X133229500Y-95007139D01*
X132890500Y-95007139D01*
X132863402Y-94836049D01*
X132809873Y-94671305D01*
X132731232Y-94516962D01*
X132629414Y-94376822D01*
X132506928Y-94254336D01*
X132366788Y-94152518D01*
X132212445Y-94073877D01*
X132047701Y-94020348D01*
X132047699Y-94020347D01*
X132047698Y-94020347D01*
X131916271Y-93999531D01*
X131876611Y-93993250D01*
X131703389Y-93993250D01*
X131663728Y-93999531D01*
X131532302Y-94020347D01*
X131367552Y-94073878D01*
X131213211Y-94152518D01*
X131133256Y-94210609D01*
X131073072Y-94254336D01*
X131073070Y-94254338D01*
X131073069Y-94254338D01*
X130950588Y-94376819D01*
X130950588Y-94376820D01*
X130950586Y-94376822D01*
X130906859Y-94437006D01*
X130848768Y-94516961D01*
X130770128Y-94671302D01*
X130716597Y-94836052D01*
X130689500Y-95007139D01*
X130350500Y-95007139D01*
X130323402Y-94836049D01*
X130269873Y-94671305D01*
X130191232Y-94516962D01*
X130089414Y-94376822D01*
X129966928Y-94254336D01*
X129826788Y-94152518D01*
X129672445Y-94073877D01*
X129507701Y-94020348D01*
X129507699Y-94020347D01*
X129507698Y-94020347D01*
X129376271Y-93999531D01*
X129336611Y-93993250D01*
X129163389Y-93993250D01*
X129123728Y-93999531D01*
X128992302Y-94020347D01*
X128827552Y-94073878D01*
X128673211Y-94152518D01*
X128593256Y-94210609D01*
X128533072Y-94254336D01*
X128533070Y-94254338D01*
X128533069Y-94254338D01*
X128410588Y-94376819D01*
X128410588Y-94376820D01*
X128410586Y-94376822D01*
X128366859Y-94437006D01*
X128308768Y-94516961D01*
X128230128Y-94671302D01*
X128176597Y-94836052D01*
X128149500Y-95007139D01*
X127810500Y-95007139D01*
X127783402Y-94836049D01*
X127729873Y-94671305D01*
X127651232Y-94516962D01*
X127549414Y-94376822D01*
X127426928Y-94254336D01*
X127286788Y-94152518D01*
X127132445Y-94073877D01*
X126967701Y-94020348D01*
X126967699Y-94020347D01*
X126967698Y-94020347D01*
X126836271Y-93999531D01*
X126796611Y-93993250D01*
X126623389Y-93993250D01*
X126583728Y-93999531D01*
X126452302Y-94020347D01*
X126287552Y-94073878D01*
X126133211Y-94152518D01*
X126053256Y-94210609D01*
X125993072Y-94254336D01*
X125993070Y-94254338D01*
X125993069Y-94254338D01*
X125870588Y-94376819D01*
X125870588Y-94376820D01*
X125870586Y-94376822D01*
X125826859Y-94437006D01*
X125768768Y-94516961D01*
X125690128Y-94671302D01*
X125636597Y-94836052D01*
X125609500Y-95007139D01*
X125270500Y-95007139D01*
X125243402Y-94836049D01*
X125189873Y-94671305D01*
X125111232Y-94516962D01*
X125009414Y-94376822D01*
X124886928Y-94254336D01*
X124746788Y-94152518D01*
X124592445Y-94073877D01*
X124427701Y-94020348D01*
X124427699Y-94020347D01*
X124427698Y-94020347D01*
X124296271Y-93999531D01*
X124256611Y-93993250D01*
X124083389Y-93993250D01*
X124043728Y-93999531D01*
X123912302Y-94020347D01*
X123747552Y-94073878D01*
X123593211Y-94152518D01*
X123513256Y-94210609D01*
X123453072Y-94254336D01*
X123453070Y-94254338D01*
X123453069Y-94254338D01*
X123330588Y-94376819D01*
X123330588Y-94376820D01*
X123330586Y-94376822D01*
X123286859Y-94437006D01*
X123228768Y-94516961D01*
X123150128Y-94671302D01*
X123096597Y-94836052D01*
X123069500Y-95007139D01*
X122730500Y-95007139D01*
X122703402Y-94836049D01*
X122649873Y-94671305D01*
X122571232Y-94516962D01*
X122469414Y-94376822D01*
X122346928Y-94254336D01*
X122206788Y-94152518D01*
X122052445Y-94073877D01*
X121887701Y-94020348D01*
X121887699Y-94020347D01*
X121887698Y-94020347D01*
X121756271Y-93999531D01*
X121716611Y-93993250D01*
X121543389Y-93993250D01*
X121503728Y-93999531D01*
X121372302Y-94020347D01*
X121207552Y-94073878D01*
X121053211Y-94152518D01*
X120973256Y-94210609D01*
X120913072Y-94254336D01*
X120913070Y-94254338D01*
X120913069Y-94254338D01*
X120790588Y-94376819D01*
X120790588Y-94376820D01*
X120790586Y-94376822D01*
X120746859Y-94437006D01*
X120688768Y-94516961D01*
X120610128Y-94671302D01*
X120556597Y-94836052D01*
X120529500Y-95007139D01*
X120190500Y-95007139D01*
X120163402Y-94836049D01*
X120109873Y-94671305D01*
X120031232Y-94516962D01*
X119929414Y-94376822D01*
X119806928Y-94254336D01*
X119666788Y-94152518D01*
X119512445Y-94073877D01*
X119347701Y-94020348D01*
X119347699Y-94020347D01*
X119347698Y-94020347D01*
X119216271Y-93999531D01*
X119176611Y-93993250D01*
X119003389Y-93993250D01*
X118963728Y-93999531D01*
X118832302Y-94020347D01*
X118667552Y-94073878D01*
X118513211Y-94152518D01*
X118433256Y-94210609D01*
X118373072Y-94254336D01*
X118373070Y-94254338D01*
X118373069Y-94254338D01*
X118250588Y-94376819D01*
X118250588Y-94376820D01*
X118250586Y-94376822D01*
X118206859Y-94437006D01*
X118148768Y-94516961D01*
X118070128Y-94671302D01*
X118016597Y-94836052D01*
X117989500Y-95007139D01*
X117650500Y-95007139D01*
X117623402Y-94836049D01*
X117569873Y-94671305D01*
X117491232Y-94516962D01*
X117389414Y-94376822D01*
X117266928Y-94254336D01*
X117126788Y-94152518D01*
X116972445Y-94073877D01*
X116807701Y-94020348D01*
X116807699Y-94020347D01*
X116807698Y-94020347D01*
X116676271Y-93999531D01*
X116636611Y-93993250D01*
X116463389Y-93993250D01*
X116423728Y-93999531D01*
X116292302Y-94020347D01*
X116127552Y-94073878D01*
X115973211Y-94152518D01*
X115893256Y-94210609D01*
X115833072Y-94254336D01*
X115833070Y-94254338D01*
X115833069Y-94254338D01*
X115710588Y-94376819D01*
X115710588Y-94376820D01*
X115710586Y-94376822D01*
X115666859Y-94437006D01*
X115608768Y-94516961D01*
X115530128Y-94671302D01*
X115476597Y-94836052D01*
X115449500Y-95007139D01*
X115110500Y-95007139D01*
X115083402Y-94836049D01*
X115029873Y-94671305D01*
X114951232Y-94516962D01*
X114849414Y-94376822D01*
X114726928Y-94254336D01*
X114586788Y-94152518D01*
X114432445Y-94073877D01*
X114267701Y-94020348D01*
X114267699Y-94020347D01*
X114267698Y-94020347D01*
X114136271Y-93999531D01*
X114096611Y-93993250D01*
X113923389Y-93993250D01*
X113883728Y-93999531D01*
X113752302Y-94020347D01*
X113587552Y-94073878D01*
X113433211Y-94152518D01*
X113353256Y-94210609D01*
X113293072Y-94254336D01*
X113293070Y-94254338D01*
X113293069Y-94254338D01*
X113170588Y-94376819D01*
X113170588Y-94376820D01*
X113170586Y-94376822D01*
X113126859Y-94437006D01*
X113068768Y-94516961D01*
X112990128Y-94671302D01*
X112936597Y-94836052D01*
X112909500Y-95007139D01*
X112570500Y-95007139D01*
X112543402Y-94836049D01*
X112489873Y-94671305D01*
X112411232Y-94516962D01*
X112309414Y-94376822D01*
X112186928Y-94254336D01*
X112046788Y-94152518D01*
X111892445Y-94073877D01*
X111727701Y-94020348D01*
X111727699Y-94020347D01*
X111727698Y-94020347D01*
X111596271Y-93999531D01*
X111556611Y-93993250D01*
X111383389Y-93993250D01*
X111343728Y-93999531D01*
X111212302Y-94020347D01*
X111047552Y-94073878D01*
X110893211Y-94152518D01*
X110813256Y-94210609D01*
X110753072Y-94254336D01*
X110753070Y-94254338D01*
X110753069Y-94254338D01*
X110630588Y-94376819D01*
X110630588Y-94376820D01*
X110630586Y-94376822D01*
X110586859Y-94437006D01*
X110528768Y-94516961D01*
X110450128Y-94671302D01*
X110396597Y-94836052D01*
X110369500Y-95007139D01*
X99328250Y-95007139D01*
X99328250Y-87342293D01*
X105499499Y-87342293D01*
X105537947Y-87535579D01*
X105537950Y-87535589D01*
X105613364Y-87717657D01*
X105613371Y-87717670D01*
X105722860Y-87881531D01*
X105722863Y-87881535D01*
X105862214Y-88020886D01*
X105862218Y-88020889D01*
X106026079Y-88130378D01*
X106026092Y-88130385D01*
X106208160Y-88205799D01*
X106208165Y-88205801D01*
X106208169Y-88205801D01*
X106208170Y-88205802D01*
X106401456Y-88244250D01*
X106401459Y-88244250D01*
X106598543Y-88244250D01*
X106728582Y-88218382D01*
X106791835Y-88205801D01*
X106973914Y-88130382D01*
X107137782Y-88020889D01*
X107277139Y-87881532D01*
X107386632Y-87717664D01*
X107409456Y-87662558D01*
X107436332Y-87622336D01*
X108878101Y-86180569D01*
X108939424Y-86147084D01*
X108965782Y-86144250D01*
X144534218Y-86144250D01*
X144601257Y-86163935D01*
X144621898Y-86180568D01*
X149772860Y-91331531D01*
X149772861Y-91331532D01*
X149912215Y-91470886D01*
X149912219Y-91470890D01*
X150076079Y-91580378D01*
X150076092Y-91580385D01*
X150204833Y-91633711D01*
X150247744Y-91651485D01*
X150258164Y-91655801D01*
X150354812Y-91675025D01*
X150403135Y-91684637D01*
X150451458Y-91694250D01*
X150451459Y-91694250D01*
X150948543Y-91694250D01*
X151078582Y-91668382D01*
X151141835Y-91655801D01*
X151323914Y-91580382D01*
X151487782Y-91470889D01*
X151627139Y-91331532D01*
X151736632Y-91167664D01*
X151812051Y-90985585D01*
X151850500Y-90792291D01*
X151850500Y-90595209D01*
X151850500Y-90595206D01*
X151812052Y-90401920D01*
X151812051Y-90401919D01*
X151812051Y-90401915D01*
X151812049Y-90401910D01*
X151736635Y-90219842D01*
X151736628Y-90219829D01*
X151627139Y-90055968D01*
X151627136Y-90055964D01*
X151487785Y-89916613D01*
X151487781Y-89916610D01*
X151323920Y-89807121D01*
X151323907Y-89807114D01*
X151141839Y-89731700D01*
X151141827Y-89731697D01*
X151005256Y-89704531D01*
X150943345Y-89672146D01*
X150941766Y-89670595D01*
X145784209Y-84513039D01*
X145784206Y-84513035D01*
X145784206Y-84513036D01*
X145777139Y-84505969D01*
X145777139Y-84505968D01*
X145637782Y-84366611D01*
X145637781Y-84366610D01*
X145637780Y-84366609D01*
X145473920Y-84257121D01*
X145473911Y-84257116D01*
X145401315Y-84227046D01*
X145345165Y-84203788D01*
X145291836Y-84181699D01*
X145291832Y-84181698D01*
X145291828Y-84181696D01*
X145195188Y-84162474D01*
X145098544Y-84143250D01*
X145098541Y-84143250D01*
X108965782Y-84143250D01*
X108898743Y-84123565D01*
X108878101Y-84106931D01*
X107137784Y-82366613D01*
X107137780Y-82366610D01*
X106973920Y-82257122D01*
X106973910Y-82257117D01*
X106791836Y-82181699D01*
X106791828Y-82181697D01*
X106598543Y-82143250D01*
X106598540Y-82143250D01*
X106401460Y-82143250D01*
X106401457Y-82143250D01*
X106208171Y-82181697D01*
X106208163Y-82181699D01*
X106026089Y-82257117D01*
X106026079Y-82257122D01*
X105862219Y-82366610D01*
X105862215Y-82366613D01*
X105722863Y-82505965D01*
X105722860Y-82505969D01*
X105613372Y-82669829D01*
X105613367Y-82669839D01*
X105537949Y-82851913D01*
X105537947Y-82851921D01*
X105499500Y-83045205D01*
X105499500Y-83242294D01*
X105537947Y-83435578D01*
X105537949Y-83435586D01*
X105613367Y-83617660D01*
X105613372Y-83617670D01*
X105722860Y-83781530D01*
X105722863Y-83781534D01*
X106997398Y-85056068D01*
X107030883Y-85117391D01*
X107025899Y-85187083D01*
X106997398Y-85231430D01*
X106084579Y-86144250D01*
X105862221Y-86366608D01*
X105862218Y-86366611D01*
X105792538Y-86436290D01*
X105722859Y-86505969D01*
X105613371Y-86669829D01*
X105613366Y-86669839D01*
X105560038Y-86798585D01*
X105537949Y-86851911D01*
X105537947Y-86851917D01*
X105521298Y-86935623D01*
X105521298Y-86935624D01*
X105499500Y-87045206D01*
X105499500Y-87045209D01*
X105499500Y-87342291D01*
X105499500Y-87342293D01*
X105499499Y-87342293D01*
X99328250Y-87342293D01*
X99328250Y-75007139D01*
X110369500Y-75007139D01*
X110369500Y-75980361D01*
X110396598Y-76151451D01*
X110450127Y-76316195D01*
X110528768Y-76470538D01*
X110630586Y-76610678D01*
X110753072Y-76733164D01*
X110893212Y-76834982D01*
X111047555Y-76913623D01*
X111212299Y-76967152D01*
X111383389Y-76994250D01*
X111383390Y-76994250D01*
X111556610Y-76994250D01*
X111556611Y-76994250D01*
X111727701Y-76967152D01*
X111892445Y-76913623D01*
X112046788Y-76834982D01*
X112186928Y-76733164D01*
X112309414Y-76610678D01*
X112411232Y-76470538D01*
X112489873Y-76316195D01*
X112543402Y-76151451D01*
X112570500Y-75980361D01*
X112570500Y-75007139D01*
X115449500Y-75007139D01*
X115449500Y-75980361D01*
X115476598Y-76151451D01*
X115530127Y-76316195D01*
X115608768Y-76470538D01*
X115710586Y-76610678D01*
X115833072Y-76733164D01*
X115973212Y-76834982D01*
X116127555Y-76913623D01*
X116292299Y-76967152D01*
X116463389Y-76994250D01*
X116463390Y-76994250D01*
X116636610Y-76994250D01*
X116636611Y-76994250D01*
X116807701Y-76967152D01*
X116972445Y-76913623D01*
X117126788Y-76834982D01*
X117266928Y-76733164D01*
X117389414Y-76610678D01*
X117491232Y-76470538D01*
X117569873Y-76316195D01*
X117623402Y-76151451D01*
X117650500Y-75980361D01*
X117650500Y-75007139D01*
X117989500Y-75007139D01*
X117989500Y-75980361D01*
X118016598Y-76151451D01*
X118070127Y-76316195D01*
X118148768Y-76470538D01*
X118250586Y-76610678D01*
X118373072Y-76733164D01*
X118513212Y-76834982D01*
X118667555Y-76913623D01*
X118832299Y-76967152D01*
X119003389Y-76994250D01*
X119003390Y-76994250D01*
X119176610Y-76994250D01*
X119176611Y-76994250D01*
X119347701Y-76967152D01*
X119512445Y-76913623D01*
X119666788Y-76834982D01*
X119806928Y-76733164D01*
X119929414Y-76610678D01*
X120031232Y-76470538D01*
X120109873Y-76316195D01*
X120163402Y-76151451D01*
X120190500Y-75980361D01*
X120190500Y-75007139D01*
X120529500Y-75007139D01*
X120529500Y-75980361D01*
X120556598Y-76151451D01*
X120610127Y-76316195D01*
X120688768Y-76470538D01*
X120790586Y-76610678D01*
X120913072Y-76733164D01*
X121053212Y-76834982D01*
X121207555Y-76913623D01*
X121372299Y-76967152D01*
X121543389Y-76994250D01*
X121543390Y-76994250D01*
X121716610Y-76994250D01*
X121716611Y-76994250D01*
X121887701Y-76967152D01*
X122052445Y-76913623D01*
X122206788Y-76834982D01*
X122346928Y-76733164D01*
X122469414Y-76610678D01*
X122571232Y-76470538D01*
X122649873Y-76316195D01*
X122703402Y-76151451D01*
X122730500Y-75980361D01*
X122730500Y-75007139D01*
X123069500Y-75007139D01*
X123069500Y-75980361D01*
X123096598Y-76151451D01*
X123150127Y-76316195D01*
X123228768Y-76470538D01*
X123330586Y-76610678D01*
X123453072Y-76733164D01*
X123593212Y-76834982D01*
X123747555Y-76913623D01*
X123912299Y-76967152D01*
X124083389Y-76994250D01*
X124083390Y-76994250D01*
X124256610Y-76994250D01*
X124256611Y-76994250D01*
X124427701Y-76967152D01*
X124592445Y-76913623D01*
X124746788Y-76834982D01*
X124886928Y-76733164D01*
X125009414Y-76610678D01*
X125111232Y-76470538D01*
X125189873Y-76316195D01*
X125243402Y-76151451D01*
X125270500Y-75980361D01*
X125270500Y-75007139D01*
X125609500Y-75007139D01*
X125609500Y-75980361D01*
X125636598Y-76151451D01*
X125690127Y-76316195D01*
X125768768Y-76470538D01*
X125870586Y-76610678D01*
X125993072Y-76733164D01*
X126133212Y-76834982D01*
X126287555Y-76913623D01*
X126452299Y-76967152D01*
X126623389Y-76994250D01*
X126623390Y-76994250D01*
X126796610Y-76994250D01*
X126796611Y-76994250D01*
X126967701Y-76967152D01*
X127132445Y-76913623D01*
X127286788Y-76834982D01*
X127426928Y-76733164D01*
X127549414Y-76610678D01*
X127651232Y-76470538D01*
X127729873Y-76316195D01*
X127783402Y-76151451D01*
X127810500Y-75980361D01*
X127810500Y-75007139D01*
X128149500Y-75007139D01*
X128149500Y-75980361D01*
X128176598Y-76151451D01*
X128230127Y-76316195D01*
X128308768Y-76470538D01*
X128410586Y-76610678D01*
X128533072Y-76733164D01*
X128673212Y-76834982D01*
X128827555Y-76913623D01*
X128992299Y-76967152D01*
X129163389Y-76994250D01*
X129163390Y-76994250D01*
X129336610Y-76994250D01*
X129336611Y-76994250D01*
X129507701Y-76967152D01*
X129672445Y-76913623D01*
X129826788Y-76834982D01*
X129966928Y-76733164D01*
X130089414Y-76610678D01*
X130191232Y-76470538D01*
X130269873Y-76316195D01*
X130323402Y-76151451D01*
X130350500Y-75980361D01*
X130350500Y-75505979D01*
X130359144Y-75476538D01*
X130365668Y-75446552D01*
X130369422Y-75441536D01*
X130370185Y-75438940D01*
X130386819Y-75418298D01*
X130477819Y-75327298D01*
X130539142Y-75293813D01*
X130608834Y-75298797D01*
X130664767Y-75340669D01*
X130689184Y-75406133D01*
X130689500Y-75414979D01*
X130689500Y-75980361D01*
X130716598Y-76151451D01*
X130770127Y-76316195D01*
X130848768Y-76470538D01*
X130950586Y-76610678D01*
X131073072Y-76733164D01*
X131213212Y-76834982D01*
X131367555Y-76913623D01*
X131532299Y-76967152D01*
X131703389Y-76994250D01*
X131703390Y-76994250D01*
X131876610Y-76994250D01*
X131876611Y-76994250D01*
X132047701Y-76967152D01*
X132212445Y-76913623D01*
X132366788Y-76834982D01*
X132506928Y-76733164D01*
X132629414Y-76610678D01*
X132731232Y-76470538D01*
X132809873Y-76316195D01*
X132863402Y-76151451D01*
X132890500Y-75980361D01*
X132890500Y-75007139D01*
X132863402Y-74836049D01*
X132809873Y-74671305D01*
X132731232Y-74516962D01*
X132629414Y-74376822D01*
X132506928Y-74254336D01*
X132366788Y-74152518D01*
X132212445Y-74073877D01*
X132047701Y-74020348D01*
X132047698Y-74020347D01*
X132043068Y-74018843D01*
X132043679Y-74016961D01*
X131990335Y-73986296D01*
X131958204Y-73924253D01*
X131964716Y-73854687D01*
X131992234Y-73812883D01*
X135074548Y-70730568D01*
X135135871Y-70697084D01*
X135162229Y-70694250D01*
X137768770Y-70694250D01*
X137835809Y-70713935D01*
X137881564Y-70766739D01*
X137891508Y-70835897D01*
X137862483Y-70899453D01*
X137856451Y-70905931D01*
X134757916Y-74004464D01*
X134696593Y-74037949D01*
X134631917Y-74034714D01*
X134587704Y-74020348D01*
X134459383Y-74000024D01*
X134416611Y-73993250D01*
X134243389Y-73993250D01*
X134203728Y-73999531D01*
X134072302Y-74020347D01*
X133907552Y-74073878D01*
X133753211Y-74152518D01*
X133673256Y-74210609D01*
X133613072Y-74254336D01*
X133613070Y-74254338D01*
X133613069Y-74254338D01*
X133490588Y-74376819D01*
X133490588Y-74376820D01*
X133490586Y-74376822D01*
X133463622Y-74413935D01*
X133388768Y-74516961D01*
X133310128Y-74671302D01*
X133256597Y-74836052D01*
X133229500Y-75007139D01*
X133229500Y-75980361D01*
X133256598Y-76151451D01*
X133310127Y-76316195D01*
X133388768Y-76470538D01*
X133490586Y-76610678D01*
X133613072Y-76733164D01*
X133753212Y-76834982D01*
X133907555Y-76913623D01*
X134072299Y-76967152D01*
X134243389Y-76994250D01*
X134243390Y-76994250D01*
X134416610Y-76994250D01*
X134416611Y-76994250D01*
X134587701Y-76967152D01*
X134752445Y-76913623D01*
X134906788Y-76834982D01*
X135046928Y-76733164D01*
X135169414Y-76610678D01*
X135271232Y-76470538D01*
X135349873Y-76316195D01*
X135403402Y-76151451D01*
X135430500Y-75980361D01*
X135430500Y-75505979D01*
X135439144Y-75476538D01*
X135445668Y-75446552D01*
X135449422Y-75441536D01*
X135450185Y-75438940D01*
X135466819Y-75418298D01*
X135557819Y-75327298D01*
X135619142Y-75293813D01*
X135688834Y-75298797D01*
X135744767Y-75340669D01*
X135769184Y-75406133D01*
X135769500Y-75414979D01*
X135769500Y-75980361D01*
X135796598Y-76151451D01*
X135850127Y-76316195D01*
X135928768Y-76470538D01*
X136030586Y-76610678D01*
X136153072Y-76733164D01*
X136293212Y-76834982D01*
X136447555Y-76913623D01*
X136612299Y-76967152D01*
X136783389Y-76994250D01*
X136783390Y-76994250D01*
X136956610Y-76994250D01*
X136956611Y-76994250D01*
X137127701Y-76967152D01*
X137292445Y-76913623D01*
X137446788Y-76834982D01*
X137586928Y-76733164D01*
X137709414Y-76610678D01*
X137811232Y-76470538D01*
X137889873Y-76316195D01*
X137943402Y-76151451D01*
X137970500Y-75980361D01*
X137970500Y-75007139D01*
X138309500Y-75007139D01*
X138309500Y-75980361D01*
X138336598Y-76151451D01*
X138390127Y-76316195D01*
X138468768Y-76470538D01*
X138570586Y-76610678D01*
X138693072Y-76733164D01*
X138833212Y-76834982D01*
X138987555Y-76913623D01*
X139152299Y-76967152D01*
X139323389Y-76994250D01*
X139323390Y-76994250D01*
X139496610Y-76994250D01*
X139496611Y-76994250D01*
X139667701Y-76967152D01*
X139832445Y-76913623D01*
X139986788Y-76834982D01*
X140126928Y-76733164D01*
X140249414Y-76610678D01*
X140351232Y-76470538D01*
X140429873Y-76316195D01*
X140483402Y-76151451D01*
X140510500Y-75980361D01*
X140510500Y-75505979D01*
X140519144Y-75476538D01*
X140525668Y-75446552D01*
X140529422Y-75441536D01*
X140530185Y-75438940D01*
X140546819Y-75418298D01*
X140637819Y-75327298D01*
X140699142Y-75293813D01*
X140768834Y-75298797D01*
X140824767Y-75340669D01*
X140849184Y-75406133D01*
X140849500Y-75414979D01*
X140849500Y-75980361D01*
X140876598Y-76151451D01*
X140930127Y-76316195D01*
X141008768Y-76470538D01*
X141110586Y-76610678D01*
X141233072Y-76733164D01*
X141373212Y-76834982D01*
X141527555Y-76913623D01*
X141692299Y-76967152D01*
X141863389Y-76994250D01*
X141863390Y-76994250D01*
X142036610Y-76994250D01*
X142036611Y-76994250D01*
X142207701Y-76967152D01*
X142372445Y-76913623D01*
X142526788Y-76834982D01*
X142666928Y-76733164D01*
X142789414Y-76610678D01*
X142891232Y-76470538D01*
X142969873Y-76316195D01*
X143023402Y-76151451D01*
X143050500Y-75980361D01*
X143050500Y-75007139D01*
X143023402Y-74836049D01*
X142969873Y-74671305D01*
X142969870Y-74671299D01*
X142920572Y-74574544D01*
X142907676Y-74505875D01*
X142933953Y-74441135D01*
X142991059Y-74400878D01*
X143031057Y-74394250D01*
X143408943Y-74394250D01*
X143475982Y-74413935D01*
X143521737Y-74466739D01*
X143531681Y-74535897D01*
X143519428Y-74574544D01*
X143470129Y-74671299D01*
X143416597Y-74836052D01*
X143389500Y-75007139D01*
X143389500Y-75980361D01*
X143416598Y-76151451D01*
X143470127Y-76316195D01*
X143548768Y-76470538D01*
X143650586Y-76610678D01*
X143773072Y-76733164D01*
X143913212Y-76834982D01*
X144067555Y-76913623D01*
X144232299Y-76967152D01*
X144403389Y-76994250D01*
X144403390Y-76994250D01*
X144576610Y-76994250D01*
X144576611Y-76994250D01*
X144747701Y-76967152D01*
X144912445Y-76913623D01*
X145066788Y-76834982D01*
X145206928Y-76733164D01*
X145329414Y-76610678D01*
X145431232Y-76470538D01*
X145509873Y-76316195D01*
X145563402Y-76151451D01*
X145590500Y-75980361D01*
X145590500Y-75007139D01*
X145563402Y-74836049D01*
X145509873Y-74671305D01*
X145509870Y-74671299D01*
X145460572Y-74574544D01*
X145447676Y-74505875D01*
X145473953Y-74441135D01*
X145531059Y-74400878D01*
X145571057Y-74394250D01*
X145948943Y-74394250D01*
X146015982Y-74413935D01*
X146061737Y-74466739D01*
X146071681Y-74535897D01*
X146059428Y-74574544D01*
X146010129Y-74671299D01*
X145956597Y-74836052D01*
X145929500Y-75007139D01*
X145929500Y-75980361D01*
X145956598Y-76151451D01*
X146010127Y-76316195D01*
X146088768Y-76470538D01*
X146190586Y-76610678D01*
X146313072Y-76733164D01*
X146453212Y-76834982D01*
X146607555Y-76913623D01*
X146772299Y-76967152D01*
X146943389Y-76994250D01*
X146943390Y-76994250D01*
X147116610Y-76994250D01*
X147116611Y-76994250D01*
X147287701Y-76967152D01*
X147452445Y-76913623D01*
X147606788Y-76834982D01*
X147746928Y-76733164D01*
X147869414Y-76610678D01*
X147971232Y-76470538D01*
X148049873Y-76316195D01*
X148103402Y-76151451D01*
X148130500Y-75980361D01*
X148130500Y-75007139D01*
X148103402Y-74836049D01*
X148049873Y-74671305D01*
X148049870Y-74671299D01*
X148000572Y-74574544D01*
X147987676Y-74505875D01*
X148013953Y-74441135D01*
X148071059Y-74400878D01*
X148111057Y-74394250D01*
X148488943Y-74394250D01*
X148555982Y-74413935D01*
X148601737Y-74466739D01*
X148611681Y-74535897D01*
X148599428Y-74574544D01*
X148550129Y-74671299D01*
X148496597Y-74836052D01*
X148469500Y-75007139D01*
X148469500Y-75980361D01*
X148496598Y-76151451D01*
X148550127Y-76316195D01*
X148628768Y-76470538D01*
X148730586Y-76610678D01*
X148853072Y-76733164D01*
X148993212Y-76834982D01*
X149147555Y-76913623D01*
X149312299Y-76967152D01*
X149483389Y-76994250D01*
X149483390Y-76994250D01*
X149656610Y-76994250D01*
X149656611Y-76994250D01*
X149827701Y-76967152D01*
X149992445Y-76913623D01*
X150146788Y-76834982D01*
X150286928Y-76733164D01*
X150409414Y-76610678D01*
X150511232Y-76470538D01*
X150589873Y-76316195D01*
X150643402Y-76151451D01*
X150670500Y-75980361D01*
X150670500Y-75007139D01*
X151009500Y-75007139D01*
X151009500Y-75980361D01*
X151036598Y-76151451D01*
X151090127Y-76316195D01*
X151168768Y-76470538D01*
X151270586Y-76610678D01*
X151393072Y-76733164D01*
X151533212Y-76834982D01*
X151687555Y-76913623D01*
X151852299Y-76967152D01*
X152023389Y-76994250D01*
X152023390Y-76994250D01*
X152196610Y-76994250D01*
X152196611Y-76994250D01*
X152367701Y-76967152D01*
X152532445Y-76913623D01*
X152686788Y-76834982D01*
X152826928Y-76733164D01*
X152949414Y-76610678D01*
X153051232Y-76470538D01*
X153129873Y-76316195D01*
X153183402Y-76151451D01*
X153210500Y-75980361D01*
X153210500Y-75007139D01*
X153549500Y-75007139D01*
X153549500Y-75980361D01*
X153576598Y-76151451D01*
X153630127Y-76316195D01*
X153708768Y-76470538D01*
X153810586Y-76610678D01*
X153933072Y-76733164D01*
X154073212Y-76834982D01*
X154227555Y-76913623D01*
X154392299Y-76967152D01*
X154563389Y-76994250D01*
X154563390Y-76994250D01*
X154736610Y-76994250D01*
X154736611Y-76994250D01*
X154907701Y-76967152D01*
X155072445Y-76913623D01*
X155226788Y-76834982D01*
X155366928Y-76733164D01*
X155489414Y-76610678D01*
X155591232Y-76470538D01*
X155669873Y-76316195D01*
X155723402Y-76151451D01*
X155750500Y-75980361D01*
X155750500Y-75007139D01*
X156089500Y-75007139D01*
X156089500Y-75980361D01*
X156116598Y-76151451D01*
X156170127Y-76316195D01*
X156248768Y-76470538D01*
X156350586Y-76610678D01*
X156473072Y-76733164D01*
X156613212Y-76834982D01*
X156767555Y-76913623D01*
X156932299Y-76967152D01*
X157103389Y-76994250D01*
X157103390Y-76994250D01*
X157276610Y-76994250D01*
X157276611Y-76994250D01*
X157447701Y-76967152D01*
X157612445Y-76913623D01*
X157766788Y-76834982D01*
X157906928Y-76733164D01*
X158029414Y-76610678D01*
X158131232Y-76470538D01*
X158209873Y-76316195D01*
X158263402Y-76151451D01*
X158290500Y-75980361D01*
X158290500Y-75007139D01*
X158629500Y-75007139D01*
X158629500Y-75980361D01*
X158656598Y-76151451D01*
X158710127Y-76316195D01*
X158788768Y-76470538D01*
X158890586Y-76610678D01*
X159013072Y-76733164D01*
X159153212Y-76834982D01*
X159307555Y-76913623D01*
X159472299Y-76967152D01*
X159643389Y-76994250D01*
X159643390Y-76994250D01*
X159816610Y-76994250D01*
X159816611Y-76994250D01*
X159987701Y-76967152D01*
X160152445Y-76913623D01*
X160306788Y-76834982D01*
X160446928Y-76733164D01*
X160569414Y-76610678D01*
X160671232Y-76470538D01*
X160749873Y-76316195D01*
X160803402Y-76151451D01*
X160830500Y-75980361D01*
X160830500Y-75007139D01*
X160803402Y-74836049D01*
X160749873Y-74671305D01*
X160671232Y-74516962D01*
X160569414Y-74376822D01*
X160446928Y-74254336D01*
X160306788Y-74152518D01*
X160152445Y-74073877D01*
X159987701Y-74020348D01*
X159987699Y-74020347D01*
X159987698Y-74020347D01*
X159856271Y-73999531D01*
X159816611Y-73993250D01*
X159643389Y-73993250D01*
X159603728Y-73999531D01*
X159472302Y-74020347D01*
X159307552Y-74073878D01*
X159153211Y-74152518D01*
X159073256Y-74210609D01*
X159013072Y-74254336D01*
X159013070Y-74254338D01*
X159013069Y-74254338D01*
X158890588Y-74376819D01*
X158890588Y-74376820D01*
X158890586Y-74376822D01*
X158863622Y-74413935D01*
X158788768Y-74516961D01*
X158710128Y-74671302D01*
X158656597Y-74836052D01*
X158629500Y-75007139D01*
X158290500Y-75007139D01*
X158263402Y-74836049D01*
X158209873Y-74671305D01*
X158131232Y-74516962D01*
X158029414Y-74376822D01*
X157906928Y-74254336D01*
X157766788Y-74152518D01*
X157612445Y-74073877D01*
X157447701Y-74020348D01*
X157447699Y-74020347D01*
X157447698Y-74020347D01*
X157316271Y-73999531D01*
X157276611Y-73993250D01*
X157103389Y-73993250D01*
X157063728Y-73999531D01*
X156932302Y-74020347D01*
X156767552Y-74073878D01*
X156613211Y-74152518D01*
X156533256Y-74210609D01*
X156473072Y-74254336D01*
X156473070Y-74254338D01*
X156473069Y-74254338D01*
X156350588Y-74376819D01*
X156350588Y-74376820D01*
X156350586Y-74376822D01*
X156323622Y-74413935D01*
X156248768Y-74516961D01*
X156170128Y-74671302D01*
X156116597Y-74836052D01*
X156089500Y-75007139D01*
X155750500Y-75007139D01*
X155723402Y-74836049D01*
X155669873Y-74671305D01*
X155591232Y-74516962D01*
X155489414Y-74376822D01*
X155366928Y-74254336D01*
X155226788Y-74152518D01*
X155072445Y-74073877D01*
X154907701Y-74020348D01*
X154907699Y-74020347D01*
X154907698Y-74020347D01*
X154776271Y-73999531D01*
X154736611Y-73993250D01*
X154563389Y-73993250D01*
X154523728Y-73999531D01*
X154392302Y-74020347D01*
X154227552Y-74073878D01*
X154073211Y-74152518D01*
X153993256Y-74210609D01*
X153933072Y-74254336D01*
X153933070Y-74254338D01*
X153933069Y-74254338D01*
X153810588Y-74376819D01*
X153810588Y-74376820D01*
X153810586Y-74376822D01*
X153783622Y-74413935D01*
X153708768Y-74516961D01*
X153630128Y-74671302D01*
X153576597Y-74836052D01*
X153549500Y-75007139D01*
X153210500Y-75007139D01*
X153183402Y-74836049D01*
X153129873Y-74671305D01*
X153051232Y-74516962D01*
X152949414Y-74376822D01*
X152826928Y-74254336D01*
X152686788Y-74152518D01*
X152532445Y-74073877D01*
X152367701Y-74020348D01*
X152367699Y-74020347D01*
X152367698Y-74020347D01*
X152236271Y-73999531D01*
X152196611Y-73993250D01*
X152023389Y-73993250D01*
X151983728Y-73999531D01*
X151852302Y-74020347D01*
X151687552Y-74073878D01*
X151533211Y-74152518D01*
X151453256Y-74210609D01*
X151393072Y-74254336D01*
X151393070Y-74254338D01*
X151393069Y-74254338D01*
X151270588Y-74376819D01*
X151270588Y-74376820D01*
X151270586Y-74376822D01*
X151243622Y-74413935D01*
X151168768Y-74516961D01*
X151090128Y-74671302D01*
X151036597Y-74836052D01*
X151009500Y-75007139D01*
X150670500Y-75007139D01*
X150643402Y-74836049D01*
X150589873Y-74671305D01*
X150511232Y-74516962D01*
X150409414Y-74376822D01*
X150286928Y-74254336D01*
X150146788Y-74152518D01*
X149992445Y-74073877D01*
X149827701Y-74020348D01*
X149827699Y-74020347D01*
X149827698Y-74020347D01*
X149709840Y-74001680D01*
X149657423Y-73993378D01*
X149594290Y-73963450D01*
X149557358Y-73904139D01*
X149558356Y-73834276D01*
X149589139Y-73783227D01*
X155219097Y-68153269D01*
X155280418Y-68119786D01*
X155350110Y-68124770D01*
X155406043Y-68166642D01*
X155424705Y-68202630D01*
X155487158Y-68394839D01*
X155585093Y-68587049D01*
X155711891Y-68761571D01*
X155864429Y-68914109D01*
X156038951Y-69040907D01*
X156231161Y-69138842D01*
X156436324Y-69205504D01*
X156516223Y-69218158D01*
X156649384Y-69239250D01*
X156649389Y-69239250D01*
X157315116Y-69239250D01*
X157433480Y-69220502D01*
X157528176Y-69205504D01*
X157733339Y-69138842D01*
X157925549Y-69040907D01*
X158100071Y-68914109D01*
X158252609Y-68761571D01*
X158379407Y-68587049D01*
X158477342Y-68394839D01*
X158544004Y-68189676D01*
X158559002Y-68094980D01*
X158577750Y-67976616D01*
X158577750Y-67760883D01*
X158544004Y-67547827D01*
X158544004Y-67547824D01*
X158477342Y-67342661D01*
X158379407Y-67150451D01*
X158252609Y-66975929D01*
X158100071Y-66823391D01*
X157928954Y-66699067D01*
X157886290Y-66643738D01*
X157880311Y-66574124D01*
X157912917Y-66512330D01*
X157928952Y-66498434D01*
X158100071Y-66374109D01*
X158252609Y-66221571D01*
X158379407Y-66047049D01*
X158477342Y-65854839D01*
X158544004Y-65649676D01*
X158566497Y-65507661D01*
X158577750Y-65436616D01*
X158577750Y-65220883D01*
X162586750Y-65220883D01*
X162586750Y-65436616D01*
X162620495Y-65649672D01*
X162620496Y-65649676D01*
X162687158Y-65854839D01*
X162785093Y-66047049D01*
X162911891Y-66221571D01*
X163064429Y-66374109D01*
X163185704Y-66462221D01*
X163235544Y-66498432D01*
X163278209Y-66553762D01*
X163284188Y-66623376D01*
X163251582Y-66685171D01*
X163235544Y-66699068D01*
X163064429Y-66823391D01*
X163064427Y-66823393D01*
X163064426Y-66823393D01*
X162911893Y-66975926D01*
X162911893Y-66975927D01*
X162911891Y-66975929D01*
X162887123Y-67010019D01*
X162785093Y-67150450D01*
X162687159Y-67342658D01*
X162620495Y-67547827D01*
X162586750Y-67760883D01*
X162586750Y-67976616D01*
X162620495Y-68189672D01*
X162620496Y-68189676D01*
X162687158Y-68394839D01*
X162785093Y-68587049D01*
X162911891Y-68761571D01*
X163064429Y-68914109D01*
X163238951Y-69040907D01*
X163431161Y-69138842D01*
X163636324Y-69205504D01*
X163716223Y-69218158D01*
X163849384Y-69239250D01*
X163849389Y-69239250D01*
X164515116Y-69239250D01*
X164633480Y-69220502D01*
X164728176Y-69205504D01*
X164933339Y-69138842D01*
X165125549Y-69040907D01*
X165300071Y-68914109D01*
X165452609Y-68761571D01*
X165579407Y-68587049D01*
X165677342Y-68394839D01*
X165744004Y-68189676D01*
X165759002Y-68094980D01*
X165777750Y-67976616D01*
X165777750Y-67760883D01*
X165744004Y-67547827D01*
X165744004Y-67547824D01*
X165677342Y-67342661D01*
X165579407Y-67150451D01*
X165452609Y-66975929D01*
X165300071Y-66823391D01*
X165128954Y-66699067D01*
X165086290Y-66643738D01*
X165080311Y-66574124D01*
X165112917Y-66512330D01*
X165128952Y-66498434D01*
X165300071Y-66374109D01*
X165452609Y-66221571D01*
X165579407Y-66047049D01*
X165677342Y-65854839D01*
X165744004Y-65649676D01*
X165766497Y-65507661D01*
X165777750Y-65436616D01*
X165777750Y-65220883D01*
X165744004Y-65007827D01*
X165744004Y-65007824D01*
X165677342Y-64802661D01*
X165579407Y-64610451D01*
X165452609Y-64435929D01*
X165300071Y-64283391D01*
X165125549Y-64156593D01*
X164933339Y-64058658D01*
X164728176Y-63991996D01*
X164728174Y-63991995D01*
X164728172Y-63991995D01*
X164515116Y-63958250D01*
X164515111Y-63958250D01*
X163849389Y-63958250D01*
X163849384Y-63958250D01*
X163636327Y-63991995D01*
X163431158Y-64058659D01*
X163238950Y-64156593D01*
X163153200Y-64218895D01*
X163064429Y-64283391D01*
X163064427Y-64283393D01*
X163064426Y-64283393D01*
X162911893Y-64435926D01*
X162911893Y-64435927D01*
X162911891Y-64435929D01*
X162896383Y-64457274D01*
X162785093Y-64610450D01*
X162687159Y-64802658D01*
X162620495Y-65007827D01*
X162586750Y-65220883D01*
X158577750Y-65220883D01*
X158544004Y-65007827D01*
X158544004Y-65007824D01*
X158477342Y-64802661D01*
X158379407Y-64610451D01*
X158252609Y-64435929D01*
X158100071Y-64283391D01*
X157925549Y-64156593D01*
X157733339Y-64058658D01*
X157528176Y-63991996D01*
X157528174Y-63991995D01*
X157528172Y-63991995D01*
X157315116Y-63958250D01*
X157315111Y-63958250D01*
X156649389Y-63958250D01*
X156649384Y-63958250D01*
X156436327Y-63991995D01*
X156231158Y-64058659D01*
X156038950Y-64156593D01*
X155953200Y-64218895D01*
X155864429Y-64283391D01*
X155864427Y-64283393D01*
X155864426Y-64283393D01*
X155711893Y-64435926D01*
X155711893Y-64435927D01*
X155711891Y-64435929D01*
X155696383Y-64457274D01*
X155585093Y-64610450D01*
X155487159Y-64802658D01*
X155420495Y-65007827D01*
X155386750Y-65220883D01*
X155386750Y-65436616D01*
X155420496Y-65649677D01*
X155420496Y-65649680D01*
X155441024Y-65712857D01*
X155443019Y-65782698D01*
X155410774Y-65838856D01*
X148392701Y-72856931D01*
X148331378Y-72890416D01*
X148305020Y-72893250D01*
X141186080Y-72893250D01*
X141041092Y-72922090D01*
X141041082Y-72922093D01*
X140904511Y-72978662D01*
X140904498Y-72978669D01*
X140781584Y-73060798D01*
X140781580Y-73060801D01*
X139837916Y-74004464D01*
X139776593Y-74037949D01*
X139711917Y-74034714D01*
X139667704Y-74020348D01*
X139539383Y-74000024D01*
X139496611Y-73993250D01*
X139323389Y-73993250D01*
X139283728Y-73999531D01*
X139152302Y-74020347D01*
X138987552Y-74073878D01*
X138833211Y-74152518D01*
X138753256Y-74210609D01*
X138693072Y-74254336D01*
X138693070Y-74254338D01*
X138693069Y-74254338D01*
X138570588Y-74376819D01*
X138570588Y-74376820D01*
X138570586Y-74376822D01*
X138543622Y-74413935D01*
X138468768Y-74516961D01*
X138390128Y-74671302D01*
X138336597Y-74836052D01*
X138309500Y-75007139D01*
X137970500Y-75007139D01*
X137943402Y-74836049D01*
X137889873Y-74671305D01*
X137811232Y-74516962D01*
X137709414Y-74376822D01*
X137586928Y-74254336D01*
X137446788Y-74152518D01*
X137292445Y-74073877D01*
X137127701Y-74020348D01*
X137127698Y-74020347D01*
X137123068Y-74018843D01*
X137123679Y-74016961D01*
X137070335Y-73986296D01*
X137038204Y-73924253D01*
X137044716Y-73854687D01*
X137072236Y-73812880D01*
X138704548Y-72180569D01*
X138765871Y-72147084D01*
X138792229Y-72144250D01*
X143841170Y-72144250D01*
X143938712Y-72124846D01*
X143986163Y-72115408D01*
X144122745Y-72058834D01*
X144171979Y-72025936D01*
X144245666Y-71976702D01*
X148392143Y-67830222D01*
X148453464Y-67796739D01*
X148518139Y-67799973D01*
X148581324Y-67820504D01*
X148661223Y-67833158D01*
X148794384Y-67854250D01*
X148794389Y-67854250D01*
X149010116Y-67854250D01*
X149128480Y-67835502D01*
X149223176Y-67820504D01*
X149428339Y-67753842D01*
X149620549Y-67655907D01*
X149795071Y-67529109D01*
X149947609Y-67376571D01*
X150071932Y-67205454D01*
X150127262Y-67162790D01*
X150196876Y-67156811D01*
X150258670Y-67189417D01*
X150272565Y-67205452D01*
X150396891Y-67376571D01*
X150549429Y-67529109D01*
X150723951Y-67655907D01*
X150916161Y-67753842D01*
X151121324Y-67820504D01*
X151201223Y-67833158D01*
X151334384Y-67854250D01*
X151334389Y-67854250D01*
X151550116Y-67854250D01*
X151668480Y-67835502D01*
X151763176Y-67820504D01*
X151968339Y-67753842D01*
X152160549Y-67655907D01*
X152335071Y-67529109D01*
X152487609Y-67376571D01*
X152614407Y-67202049D01*
X152712342Y-67009839D01*
X152779004Y-66804676D01*
X152804494Y-66643738D01*
X152812750Y-66591616D01*
X152812750Y-65925883D01*
X152779004Y-65712827D01*
X152779004Y-65712824D01*
X152712342Y-65507661D01*
X152614407Y-65315451D01*
X152487609Y-65140929D01*
X152335071Y-64988391D01*
X152160549Y-64861593D01*
X151968339Y-64763658D01*
X151763176Y-64696996D01*
X151763174Y-64696995D01*
X151763172Y-64696995D01*
X151550116Y-64663250D01*
X151550111Y-64663250D01*
X151334389Y-64663250D01*
X151334384Y-64663250D01*
X151121327Y-64696995D01*
X150916158Y-64763659D01*
X150723950Y-64861593D01*
X150648696Y-64916269D01*
X150549429Y-64988391D01*
X150549427Y-64988393D01*
X150549426Y-64988393D01*
X150396893Y-65140926D01*
X150396893Y-65140927D01*
X150396891Y-65140929D01*
X150352184Y-65202463D01*
X150272568Y-65312044D01*
X150217238Y-65354709D01*
X150147624Y-65360688D01*
X150085829Y-65328082D01*
X150071932Y-65312044D01*
X150005703Y-65220889D01*
X149947609Y-65140929D01*
X149795071Y-64988391D01*
X149620549Y-64861593D01*
X149428339Y-64763658D01*
X149223176Y-64696996D01*
X149223174Y-64696995D01*
X149223172Y-64696995D01*
X149010116Y-64663250D01*
X149010111Y-64663250D01*
X148794389Y-64663250D01*
X148794384Y-64663250D01*
X148581327Y-64696995D01*
X148376158Y-64763659D01*
X148183950Y-64861593D01*
X148108696Y-64916269D01*
X148009429Y-64988391D01*
X148009427Y-64988393D01*
X148009426Y-64988393D01*
X147856893Y-65140926D01*
X147856893Y-65140927D01*
X147856891Y-65140929D01*
X147812184Y-65202463D01*
X147732568Y-65312044D01*
X147677238Y-65354709D01*
X147607624Y-65360688D01*
X147545829Y-65328082D01*
X147531932Y-65312044D01*
X147465703Y-65220889D01*
X147407609Y-65140929D01*
X147255071Y-64988391D01*
X147080549Y-64861593D01*
X146888339Y-64763658D01*
X146683176Y-64696996D01*
X146683174Y-64696995D01*
X146683172Y-64696995D01*
X146470116Y-64663250D01*
X146470111Y-64663250D01*
X146254389Y-64663250D01*
X146254384Y-64663250D01*
X146041327Y-64696995D01*
X145836158Y-64763659D01*
X145643950Y-64861593D01*
X145568696Y-64916269D01*
X145469429Y-64988391D01*
X145469427Y-64988393D01*
X145469426Y-64988393D01*
X145316893Y-65140926D01*
X145316893Y-65140927D01*
X145316891Y-65140929D01*
X145272184Y-65202463D01*
X145192568Y-65312044D01*
X145137238Y-65354709D01*
X145067624Y-65360688D01*
X145005829Y-65328082D01*
X144991932Y-65312044D01*
X144925703Y-65220889D01*
X144867609Y-65140929D01*
X144715071Y-64988391D01*
X144540549Y-64861593D01*
X144348339Y-64763658D01*
X144143176Y-64696996D01*
X144143174Y-64696995D01*
X144143172Y-64696995D01*
X143930116Y-64663250D01*
X143930111Y-64663250D01*
X143714389Y-64663250D01*
X143714384Y-64663250D01*
X143501327Y-64696995D01*
X143296158Y-64763659D01*
X143103950Y-64861593D01*
X143028696Y-64916269D01*
X142929429Y-64988391D01*
X142929427Y-64988393D01*
X142929426Y-64988393D01*
X142776893Y-65140926D01*
X142776893Y-65140927D01*
X142776891Y-65140929D01*
X142732184Y-65202463D01*
X142650093Y-65315450D01*
X142552159Y-65507658D01*
X142485495Y-65712827D01*
X142451750Y-65925883D01*
X142451750Y-66516520D01*
X142432065Y-66583559D01*
X142415431Y-66604201D01*
X139862701Y-69156931D01*
X139801378Y-69190416D01*
X139775020Y-69193250D01*
X136684999Y-69193250D01*
X136617960Y-69173565D01*
X136572205Y-69120761D01*
X136562261Y-69051603D01*
X136591286Y-68988047D01*
X136612109Y-68968934D01*
X136687571Y-68914109D01*
X136840109Y-68761571D01*
X136966907Y-68587049D01*
X137064842Y-68394839D01*
X137131504Y-68189676D01*
X137146502Y-68094980D01*
X137165250Y-67976616D01*
X137165250Y-67760883D01*
X137131504Y-67547827D01*
X137131504Y-67547824D01*
X137064842Y-67342661D01*
X136966907Y-67150451D01*
X136840109Y-66975929D01*
X136687571Y-66823391D01*
X136513049Y-66696593D01*
X136320839Y-66598658D01*
X136115676Y-66531996D01*
X136115674Y-66531995D01*
X136115672Y-66531995D01*
X135902616Y-66498250D01*
X135902611Y-66498250D01*
X135236889Y-66498250D01*
X135236884Y-66498250D01*
X135023827Y-66531995D01*
X134818658Y-66598659D01*
X134626450Y-66696593D01*
X134526879Y-66768936D01*
X134451929Y-66823391D01*
X134451927Y-66823393D01*
X134451926Y-66823393D01*
X134299393Y-66975926D01*
X134299393Y-66975927D01*
X134299391Y-66975929D01*
X134274623Y-67010019D01*
X134172593Y-67150450D01*
X134074659Y-67342658D01*
X134007995Y-67547827D01*
X133974250Y-67760883D01*
X133974250Y-67976616D01*
X134007995Y-68189672D01*
X134007996Y-68189676D01*
X134074658Y-68394839D01*
X134172593Y-68587049D01*
X134299391Y-68761571D01*
X134451929Y-68914109D01*
X134575379Y-69003801D01*
X134589676Y-69014188D01*
X134632342Y-69069518D01*
X134638321Y-69139131D01*
X134605715Y-69200926D01*
X134564245Y-69229067D01*
X134539662Y-69239250D01*
X134501080Y-69255230D01*
X134444506Y-69278665D01*
X134417936Y-69296419D01*
X134321582Y-69360799D01*
X134321579Y-69360802D01*
X129677916Y-74004464D01*
X129616593Y-74037949D01*
X129551917Y-74034714D01*
X129507704Y-74020348D01*
X129379383Y-74000024D01*
X129336611Y-73993250D01*
X129163389Y-73993250D01*
X129123728Y-73999531D01*
X128992302Y-74020347D01*
X128827552Y-74073878D01*
X128673211Y-74152518D01*
X128593256Y-74210609D01*
X128533072Y-74254336D01*
X128533070Y-74254338D01*
X128533069Y-74254338D01*
X128410588Y-74376819D01*
X128410588Y-74376820D01*
X128410586Y-74376822D01*
X128383622Y-74413935D01*
X128308768Y-74516961D01*
X128230128Y-74671302D01*
X128176597Y-74836052D01*
X128149500Y-75007139D01*
X127810500Y-75007139D01*
X127783402Y-74836049D01*
X127729873Y-74671305D01*
X127651232Y-74516962D01*
X127549414Y-74376822D01*
X127426928Y-74254336D01*
X127286788Y-74152518D01*
X127132445Y-74073877D01*
X126967701Y-74020348D01*
X126967699Y-74020347D01*
X126967698Y-74020347D01*
X126836271Y-73999531D01*
X126796611Y-73993250D01*
X126623389Y-73993250D01*
X126583728Y-73999531D01*
X126452302Y-74020347D01*
X126287552Y-74073878D01*
X126133211Y-74152518D01*
X126053256Y-74210609D01*
X125993072Y-74254336D01*
X125993070Y-74254338D01*
X125993069Y-74254338D01*
X125870588Y-74376819D01*
X125870588Y-74376820D01*
X125870586Y-74376822D01*
X125843622Y-74413935D01*
X125768768Y-74516961D01*
X125690128Y-74671302D01*
X125636597Y-74836052D01*
X125609500Y-75007139D01*
X125270500Y-75007139D01*
X125243402Y-74836049D01*
X125189873Y-74671305D01*
X125111232Y-74516962D01*
X125009414Y-74376822D01*
X124886928Y-74254336D01*
X124746788Y-74152518D01*
X124592445Y-74073877D01*
X124427701Y-74020348D01*
X124427699Y-74020347D01*
X124427698Y-74020347D01*
X124296271Y-73999531D01*
X124256611Y-73993250D01*
X124083389Y-73993250D01*
X124043728Y-73999531D01*
X123912302Y-74020347D01*
X123747552Y-74073878D01*
X123593211Y-74152518D01*
X123513256Y-74210609D01*
X123453072Y-74254336D01*
X123453070Y-74254338D01*
X123453069Y-74254338D01*
X123330588Y-74376819D01*
X123330588Y-74376820D01*
X123330586Y-74376822D01*
X123303622Y-74413935D01*
X123228768Y-74516961D01*
X123150128Y-74671302D01*
X123096597Y-74836052D01*
X123069500Y-75007139D01*
X122730500Y-75007139D01*
X122703402Y-74836049D01*
X122649873Y-74671305D01*
X122571232Y-74516962D01*
X122469414Y-74376822D01*
X122346928Y-74254336D01*
X122206788Y-74152518D01*
X122052445Y-74073877D01*
X121887701Y-74020348D01*
X121887699Y-74020347D01*
X121887698Y-74020347D01*
X121756271Y-73999531D01*
X121716611Y-73993250D01*
X121543389Y-73993250D01*
X121503728Y-73999531D01*
X121372302Y-74020347D01*
X121207552Y-74073878D01*
X121053211Y-74152518D01*
X120973256Y-74210609D01*
X120913072Y-74254336D01*
X120913070Y-74254338D01*
X120913069Y-74254338D01*
X120790588Y-74376819D01*
X120790588Y-74376820D01*
X120790586Y-74376822D01*
X120763622Y-74413935D01*
X120688768Y-74516961D01*
X120610128Y-74671302D01*
X120556597Y-74836052D01*
X120529500Y-75007139D01*
X120190500Y-75007139D01*
X120163402Y-74836049D01*
X120109873Y-74671305D01*
X120031232Y-74516962D01*
X119929414Y-74376822D01*
X119806928Y-74254336D01*
X119666788Y-74152518D01*
X119512445Y-74073877D01*
X119347701Y-74020348D01*
X119347699Y-74020347D01*
X119347698Y-74020347D01*
X119216271Y-73999531D01*
X119176611Y-73993250D01*
X119003389Y-73993250D01*
X118963728Y-73999531D01*
X118832302Y-74020347D01*
X118667552Y-74073878D01*
X118513211Y-74152518D01*
X118433256Y-74210609D01*
X118373072Y-74254336D01*
X118373070Y-74254338D01*
X118373069Y-74254338D01*
X118250588Y-74376819D01*
X118250588Y-74376820D01*
X118250586Y-74376822D01*
X118223622Y-74413935D01*
X118148768Y-74516961D01*
X118070128Y-74671302D01*
X118016597Y-74836052D01*
X117989500Y-75007139D01*
X117650500Y-75007139D01*
X117623402Y-74836049D01*
X117569873Y-74671305D01*
X117491232Y-74516962D01*
X117389414Y-74376822D01*
X117266928Y-74254336D01*
X117126788Y-74152518D01*
X116972445Y-74073877D01*
X116807701Y-74020348D01*
X116807699Y-74020347D01*
X116807698Y-74020347D01*
X116676271Y-73999531D01*
X116636611Y-73993250D01*
X116463389Y-73993250D01*
X116423728Y-73999531D01*
X116292302Y-74020347D01*
X116127552Y-74073878D01*
X115973211Y-74152518D01*
X115893256Y-74210609D01*
X115833072Y-74254336D01*
X115833070Y-74254338D01*
X115833069Y-74254338D01*
X115710588Y-74376819D01*
X115710588Y-74376820D01*
X115710586Y-74376822D01*
X115683622Y-74413935D01*
X115608768Y-74516961D01*
X115530128Y-74671302D01*
X115476597Y-74836052D01*
X115449500Y-75007139D01*
X112570500Y-75007139D01*
X112543402Y-74836049D01*
X112489873Y-74671305D01*
X112411232Y-74516962D01*
X112309414Y-74376822D01*
X112186928Y-74254336D01*
X112046788Y-74152518D01*
X111892445Y-74073877D01*
X111727701Y-74020348D01*
X111727699Y-74020347D01*
X111727698Y-74020347D01*
X111596271Y-73999531D01*
X111556611Y-73993250D01*
X111383389Y-73993250D01*
X111343728Y-73999531D01*
X111212302Y-74020347D01*
X111047552Y-74073878D01*
X110893211Y-74152518D01*
X110813256Y-74210609D01*
X110753072Y-74254336D01*
X110753070Y-74254338D01*
X110753069Y-74254338D01*
X110630588Y-74376819D01*
X110630588Y-74376820D01*
X110630586Y-74376822D01*
X110603622Y-74413935D01*
X110528768Y-74516961D01*
X110450128Y-74671302D01*
X110396597Y-74836052D01*
X110369500Y-75007139D01*
X99328250Y-75007139D01*
X99328250Y-67760883D01*
X111984500Y-67760883D01*
X111984500Y-67976616D01*
X112018245Y-68189672D01*
X112018246Y-68189676D01*
X112084908Y-68394839D01*
X112182843Y-68587049D01*
X112309641Y-68761571D01*
X112462179Y-68914109D01*
X112636701Y-69040907D01*
X112828911Y-69138842D01*
X113034074Y-69205504D01*
X113113973Y-69218158D01*
X113247134Y-69239250D01*
X113247139Y-69239250D01*
X113912866Y-69239250D01*
X114031230Y-69220502D01*
X114125926Y-69205504D01*
X114331089Y-69138842D01*
X114523299Y-69040907D01*
X114697821Y-68914109D01*
X114850359Y-68761571D01*
X114977157Y-68587049D01*
X115075092Y-68394839D01*
X115141754Y-68189676D01*
X115156752Y-68094980D01*
X115175500Y-67976616D01*
X115175500Y-67760883D01*
X119314417Y-67760883D01*
X119314417Y-67976616D01*
X119348162Y-68189672D01*
X119348163Y-68189676D01*
X119414825Y-68394839D01*
X119512760Y-68587049D01*
X119639558Y-68761571D01*
X119792096Y-68914109D01*
X119966618Y-69040907D01*
X120158828Y-69138842D01*
X120363991Y-69205504D01*
X120443890Y-69218158D01*
X120577051Y-69239250D01*
X120577056Y-69239250D01*
X121242783Y-69239250D01*
X121361147Y-69220502D01*
X121455843Y-69205504D01*
X121661006Y-69138842D01*
X121853216Y-69040907D01*
X122027738Y-68914109D01*
X122180276Y-68761571D01*
X122307074Y-68587049D01*
X122405009Y-68394839D01*
X122471671Y-68189676D01*
X122486669Y-68094980D01*
X122505417Y-67976616D01*
X122505417Y-67760883D01*
X126644333Y-67760883D01*
X126644333Y-67976616D01*
X126678078Y-68189672D01*
X126678079Y-68189676D01*
X126744741Y-68394839D01*
X126842676Y-68587049D01*
X126969474Y-68761571D01*
X127122012Y-68914109D01*
X127296534Y-69040907D01*
X127488744Y-69138842D01*
X127693907Y-69205504D01*
X127773806Y-69218158D01*
X127906967Y-69239250D01*
X127906972Y-69239250D01*
X128572699Y-69239250D01*
X128691063Y-69220502D01*
X128785759Y-69205504D01*
X128990922Y-69138842D01*
X129183132Y-69040907D01*
X129357654Y-68914109D01*
X129510192Y-68761571D01*
X129636990Y-68587049D01*
X129734925Y-68394839D01*
X129801587Y-68189676D01*
X129816585Y-68094980D01*
X129835333Y-67976616D01*
X129835333Y-67760883D01*
X129801587Y-67547827D01*
X129801587Y-67547824D01*
X129734925Y-67342661D01*
X129636990Y-67150451D01*
X129510192Y-66975929D01*
X129357654Y-66823391D01*
X129183132Y-66696593D01*
X128990922Y-66598658D01*
X128785759Y-66531996D01*
X128785757Y-66531995D01*
X128785755Y-66531995D01*
X128572699Y-66498250D01*
X128572694Y-66498250D01*
X127906972Y-66498250D01*
X127906967Y-66498250D01*
X127693910Y-66531995D01*
X127488741Y-66598659D01*
X127296533Y-66696593D01*
X127196962Y-66768936D01*
X127122012Y-66823391D01*
X127122010Y-66823393D01*
X127122009Y-66823393D01*
X126969476Y-66975926D01*
X126969476Y-66975927D01*
X126969474Y-66975929D01*
X126944706Y-67010019D01*
X126842676Y-67150450D01*
X126744742Y-67342658D01*
X126678078Y-67547827D01*
X126644333Y-67760883D01*
X122505417Y-67760883D01*
X122471671Y-67547827D01*
X122471671Y-67547824D01*
X122405009Y-67342661D01*
X122307074Y-67150451D01*
X122180276Y-66975929D01*
X122027738Y-66823391D01*
X121853216Y-66696593D01*
X121661006Y-66598658D01*
X121455843Y-66531996D01*
X121455841Y-66531995D01*
X121455839Y-66531995D01*
X121242783Y-66498250D01*
X121242778Y-66498250D01*
X120577056Y-66498250D01*
X120577051Y-66498250D01*
X120363994Y-66531995D01*
X120158825Y-66598659D01*
X119966617Y-66696593D01*
X119867046Y-66768936D01*
X119792096Y-66823391D01*
X119792094Y-66823393D01*
X119792093Y-66823393D01*
X119639560Y-66975926D01*
X119639560Y-66975927D01*
X119639558Y-66975929D01*
X119614790Y-67010019D01*
X119512760Y-67150450D01*
X119414826Y-67342658D01*
X119348162Y-67547827D01*
X119314417Y-67760883D01*
X115175500Y-67760883D01*
X115141754Y-67547827D01*
X115141754Y-67547824D01*
X115075092Y-67342661D01*
X114977157Y-67150451D01*
X114850359Y-66975929D01*
X114697821Y-66823391D01*
X114523299Y-66696593D01*
X114331089Y-66598658D01*
X114125926Y-66531996D01*
X114125924Y-66531995D01*
X114125922Y-66531995D01*
X113912866Y-66498250D01*
X113912861Y-66498250D01*
X113247139Y-66498250D01*
X113247134Y-66498250D01*
X113034077Y-66531995D01*
X112828908Y-66598659D01*
X112636700Y-66696593D01*
X112537129Y-66768936D01*
X112462179Y-66823391D01*
X112462177Y-66823393D01*
X112462176Y-66823393D01*
X112309643Y-66975926D01*
X112309643Y-66975927D01*
X112309641Y-66975929D01*
X112284873Y-67010019D01*
X112182843Y-67150450D01*
X112084909Y-67342658D01*
X112018245Y-67547827D01*
X111984500Y-67760883D01*
X99328250Y-67760883D01*
X99328250Y-62818872D01*
X102527250Y-62818872D01*
X102527250Y-63081127D01*
X102553873Y-63283339D01*
X102561480Y-63341116D01*
X102620544Y-63561546D01*
X102629352Y-63594418D01*
X102629355Y-63594428D01*
X102729703Y-63836690D01*
X102729708Y-63836700D01*
X102860825Y-64063803D01*
X103020468Y-64271851D01*
X103020476Y-64271860D01*
X103205890Y-64457274D01*
X103205898Y-64457281D01*
X103413946Y-64616924D01*
X103641049Y-64748041D01*
X103641059Y-64748046D01*
X103772912Y-64802661D01*
X103883331Y-64848398D01*
X104136634Y-64916270D01*
X104396630Y-64950500D01*
X104396637Y-64950500D01*
X104658863Y-64950500D01*
X104658870Y-64950500D01*
X104918866Y-64916270D01*
X105172169Y-64848398D01*
X105414447Y-64748043D01*
X105641553Y-64616924D01*
X105849601Y-64457282D01*
X105849605Y-64457277D01*
X105849610Y-64457274D01*
X106035024Y-64271860D01*
X106035027Y-64271855D01*
X106035032Y-64271851D01*
X106194674Y-64063803D01*
X106325793Y-63836697D01*
X106426148Y-63594419D01*
X106494020Y-63341116D01*
X106528250Y-63081120D01*
X106528250Y-62818880D01*
X106494020Y-62558884D01*
X106426148Y-62305581D01*
X106426143Y-62305571D01*
X106426142Y-62305565D01*
X106367105Y-62163036D01*
X106348754Y-62118733D01*
X111984500Y-62118733D01*
X111984500Y-63458751D01*
X111984501Y-63458768D01*
X111995000Y-63561546D01*
X111995001Y-63561549D01*
X112023826Y-63648536D01*
X112050186Y-63728084D01*
X112142288Y-63877406D01*
X112266344Y-64001462D01*
X112415666Y-64093564D01*
X112582203Y-64148749D01*
X112684991Y-64159250D01*
X114475008Y-64159249D01*
X114577797Y-64148749D01*
X114744334Y-64093564D01*
X114893656Y-64001462D01*
X115017712Y-63877406D01*
X115109814Y-63728084D01*
X115164999Y-63561547D01*
X115175500Y-63458759D01*
X115175499Y-62118742D01*
X115175498Y-62118733D01*
X119314417Y-62118733D01*
X119314417Y-63458751D01*
X119314418Y-63458768D01*
X119324917Y-63561546D01*
X119324918Y-63561549D01*
X119353743Y-63648536D01*
X119380103Y-63728084D01*
X119472205Y-63877406D01*
X119596261Y-64001462D01*
X119745583Y-64093564D01*
X119912120Y-64148749D01*
X120014908Y-64159250D01*
X121804925Y-64159249D01*
X121907714Y-64148749D01*
X122074251Y-64093564D01*
X122223573Y-64001462D01*
X122347629Y-63877406D01*
X122439731Y-63728084D01*
X122494916Y-63561547D01*
X122505417Y-63458759D01*
X122505416Y-62118742D01*
X122505415Y-62118733D01*
X126644333Y-62118733D01*
X126644333Y-63458751D01*
X126644334Y-63458768D01*
X126654833Y-63561546D01*
X126654834Y-63561549D01*
X126683659Y-63648536D01*
X126710019Y-63728084D01*
X126802121Y-63877406D01*
X126926177Y-64001462D01*
X127075499Y-64093564D01*
X127242036Y-64148749D01*
X127344824Y-64159250D01*
X129134841Y-64159249D01*
X129237630Y-64148749D01*
X129404167Y-64093564D01*
X129553489Y-64001462D01*
X129677545Y-63877406D01*
X129769647Y-63728084D01*
X129824832Y-63561547D01*
X129835333Y-63458759D01*
X129835332Y-62118742D01*
X129835331Y-62118733D01*
X133974250Y-62118733D01*
X133974250Y-63458751D01*
X133974251Y-63458768D01*
X133984750Y-63561546D01*
X133984751Y-63561549D01*
X134013576Y-63648536D01*
X134039936Y-63728084D01*
X134132038Y-63877406D01*
X134256094Y-64001462D01*
X134405416Y-64093564D01*
X134571953Y-64148749D01*
X134674741Y-64159250D01*
X136464758Y-64159249D01*
X136567547Y-64148749D01*
X136734084Y-64093564D01*
X136883406Y-64001462D01*
X137007462Y-63877406D01*
X137099564Y-63728084D01*
X137154749Y-63561547D01*
X137165250Y-63458759D01*
X137165249Y-62118742D01*
X137159586Y-62063309D01*
X137154749Y-62015953D01*
X137154748Y-62015950D01*
X137099564Y-61849416D01*
X137007462Y-61700094D01*
X136883406Y-61576038D01*
X136734084Y-61483936D01*
X136567547Y-61428751D01*
X136567545Y-61428750D01*
X136464760Y-61418250D01*
X134674748Y-61418250D01*
X134674731Y-61418251D01*
X134571953Y-61428750D01*
X134571950Y-61428751D01*
X134405418Y-61483935D01*
X134405413Y-61483937D01*
X134256092Y-61576039D01*
X134132039Y-61700092D01*
X134039937Y-61849413D01*
X134039935Y-61849418D01*
X134032824Y-61870878D01*
X133984751Y-62015953D01*
X133984751Y-62015954D01*
X133984750Y-62015954D01*
X133974250Y-62118733D01*
X129835331Y-62118733D01*
X129829669Y-62063309D01*
X129824832Y-62015953D01*
X129824831Y-62015950D01*
X129769647Y-61849416D01*
X129677545Y-61700094D01*
X129553489Y-61576038D01*
X129404167Y-61483936D01*
X129237630Y-61428751D01*
X129237628Y-61428750D01*
X129134843Y-61418250D01*
X127344831Y-61418250D01*
X127344814Y-61418251D01*
X127242036Y-61428750D01*
X127242033Y-61428751D01*
X127075501Y-61483935D01*
X127075496Y-61483937D01*
X126926175Y-61576039D01*
X126802122Y-61700092D01*
X126710020Y-61849413D01*
X126710018Y-61849418D01*
X126702907Y-61870878D01*
X126654834Y-62015953D01*
X126654834Y-62015954D01*
X126654833Y-62015954D01*
X126644333Y-62118733D01*
X122505415Y-62118733D01*
X122499753Y-62063309D01*
X122494916Y-62015953D01*
X122494915Y-62015950D01*
X122439731Y-61849416D01*
X122347629Y-61700094D01*
X122223573Y-61576038D01*
X122074251Y-61483936D01*
X121907714Y-61428751D01*
X121907712Y-61428750D01*
X121804927Y-61418250D01*
X120014915Y-61418250D01*
X120014898Y-61418251D01*
X119912120Y-61428750D01*
X119912117Y-61428751D01*
X119745585Y-61483935D01*
X119745580Y-61483937D01*
X119596259Y-61576039D01*
X119472206Y-61700092D01*
X119380104Y-61849413D01*
X119380102Y-61849418D01*
X119372991Y-61870878D01*
X119324918Y-62015953D01*
X119324918Y-62015954D01*
X119324917Y-62015954D01*
X119314417Y-62118733D01*
X115175498Y-62118733D01*
X115169836Y-62063309D01*
X115164999Y-62015953D01*
X115164998Y-62015950D01*
X115109814Y-61849416D01*
X115017712Y-61700094D01*
X114893656Y-61576038D01*
X114744334Y-61483936D01*
X114577797Y-61428751D01*
X114577795Y-61428750D01*
X114475010Y-61418250D01*
X112684998Y-61418250D01*
X112684981Y-61418251D01*
X112582203Y-61428750D01*
X112582200Y-61428751D01*
X112415668Y-61483935D01*
X112415663Y-61483937D01*
X112266342Y-61576039D01*
X112142289Y-61700092D01*
X112050187Y-61849413D01*
X112050185Y-61849418D01*
X112043074Y-61870878D01*
X111995001Y-62015953D01*
X111995001Y-62015954D01*
X111995000Y-62015954D01*
X111984500Y-62118733D01*
X106348754Y-62118733D01*
X106325796Y-62063309D01*
X106325791Y-62063299D01*
X106194674Y-61836196D01*
X106035031Y-61628148D01*
X106035024Y-61628140D01*
X105849610Y-61442726D01*
X105849601Y-61442718D01*
X105641553Y-61283075D01*
X105414450Y-61151958D01*
X105414440Y-61151953D01*
X105172178Y-61051605D01*
X105172171Y-61051603D01*
X105172169Y-61051602D01*
X104918866Y-60983730D01*
X104861089Y-60976123D01*
X104658877Y-60949500D01*
X104658870Y-60949500D01*
X104396630Y-60949500D01*
X104396622Y-60949500D01*
X104165522Y-60979926D01*
X104136634Y-60983730D01*
X103883331Y-61051602D01*
X103883321Y-61051605D01*
X103641059Y-61151953D01*
X103641049Y-61151958D01*
X103413946Y-61283075D01*
X103205898Y-61442718D01*
X103020468Y-61628148D01*
X102860825Y-61836196D01*
X102729708Y-62063299D01*
X102729703Y-62063309D01*
X102629355Y-62305571D01*
X102629352Y-62305581D01*
X102589984Y-62452507D01*
X102561480Y-62558885D01*
X102527250Y-62818872D01*
X99328250Y-62818872D01*
X99328250Y-59454427D01*
X99328566Y-59445581D01*
X99344915Y-59216980D01*
X99347431Y-59199476D01*
X99395207Y-58979852D01*
X99400184Y-58962901D01*
X99478736Y-58752295D01*
X99486075Y-58736226D01*
X99593793Y-58538955D01*
X99603349Y-58524086D01*
X99738043Y-58344156D01*
X99749617Y-58330799D01*
X99908549Y-58171867D01*
X99921906Y-58160293D01*
X100101836Y-58025599D01*
X100116705Y-58016043D01*
X100313976Y-57908325D01*
X100330045Y-57900986D01*
X100540651Y-57822434D01*
X100557602Y-57817457D01*
X100777226Y-57769681D01*
X100794723Y-57767165D01*
X101023332Y-57750816D01*
X101032178Y-57750500D01*
X101075344Y-57750500D01*
X196980156Y-57750500D01*
X197023322Y-57750500D01*
X197032168Y-57750816D01*
G37*
%TD.AperFunction*%
%TD*%
M02*
