%TF.GenerationSoftware,KiCad,Pcbnew,10.0.3*%
%TF.CreationDate,2026-06-03T21:10:31+08:00*%
%TF.ProjectId,iium_sumo,6969756d-5f73-4756-9d6f-2e6b69636164,rev?*%
%TF.SameCoordinates,Original*%
%TF.FileFunction,Plated,1,2,PTH,Mixed*%
%TF.FilePolarity,Positive*%
%FSLAX46Y46*%
G04 Gerber Fmt 4.6, Leading zero omitted, Abs format (unit mm)*
G04 Created by KiCad (PCBNEW 10.0.3) date 2026-06-03 21:10:31*
%MOMM*%
%LPD*%
G01*
G04 APERTURE LIST*
%TA.AperFunction,ViaDrill*%
%ADD10C,0.300000*%
%TD*%
%TA.AperFunction,ComponentDrill*%
%ADD11C,0.300000*%
%TD*%
%TA.AperFunction,ComponentDrill*%
%ADD12C,0.800000*%
%TD*%
%TA.AperFunction,ComponentDrill*%
%ADD13C,1.000000*%
%TD*%
%TA.AperFunction,ComponentDrill*%
%ADD14C,1.190000*%
%TD*%
G04 aperture for slot hole*
%TA.AperFunction,ComponentDrill*%
%ADD15C,1.200000*%
%TD*%
%TA.AperFunction,ComponentDrill*%
%ADD16C,1.400000*%
%TD*%
G04 APERTURE END LIST*
D10*
X102800000Y-100298750D03*
X102807005Y-70095755D03*
X106500000Y-83143750D03*
X106500000Y-87243750D03*
X106500000Y-101506250D03*
X106507005Y-68788255D03*
X109600000Y-82843750D03*
X109650000Y-87511439D03*
X116300000Y-82843750D03*
X116305924Y-87511439D03*
X116322500Y-112118750D03*
X117352250Y-112118750D03*
X118862500Y-112118750D03*
X119892250Y-112118750D03*
X120133333Y-82843750D03*
X120139257Y-87511439D03*
X121402500Y-112118750D03*
X122432250Y-112118750D03*
X123966667Y-82843750D03*
X123972591Y-87511439D03*
X127800000Y-82843750D03*
X127805924Y-87511439D03*
X131850000Y-82843750D03*
X131855924Y-87511439D03*
X135683333Y-82843750D03*
X135689257Y-87511439D03*
X139516667Y-82843750D03*
X139522591Y-87511439D03*
X143350000Y-82843750D03*
X143355924Y-87511439D03*
X145730181Y-58811780D03*
X150850000Y-90693750D03*
X160900000Y-83643750D03*
X162000000Y-88743750D03*
X162300000Y-82343750D03*
X163400000Y-87443750D03*
X163550000Y-81200000D03*
X164650000Y-86300000D03*
X168900000Y-75793750D03*
X169100000Y-81993750D03*
X170200000Y-74593750D03*
X170400000Y-80793750D03*
X171450000Y-73493750D03*
X171650000Y-79693750D03*
X175146644Y-88523750D03*
X175148970Y-87573750D03*
X180771939Y-74745816D03*
X180771939Y-75870816D03*
X180771939Y-77287483D03*
X180771939Y-78412483D03*
X180771939Y-79829149D03*
X180771939Y-80954149D03*
X180771939Y-82370816D03*
X180771939Y-83495816D03*
X181130065Y-93341770D03*
X181130065Y-95816770D03*
X181130065Y-98321770D03*
X182804439Y-83862483D03*
X182964144Y-69398750D03*
X182964144Y-71998750D03*
X182969969Y-70501220D03*
X182969969Y-73101220D03*
X184004439Y-83862483D03*
X184796644Y-86723750D03*
X184796644Y-88008173D03*
X184796644Y-89273750D03*
X186686644Y-85048750D03*
X186686644Y-86073750D03*
X186686644Y-87473750D03*
X186686644Y-88498750D03*
X186686644Y-89973750D03*
X186686644Y-90998750D03*
X189791644Y-75801250D03*
X191061644Y-75798750D03*
X193996644Y-89648750D03*
X195364144Y-89648750D03*
X196502101Y-69181942D03*
X196504571Y-70318617D03*
D11*
%TO.C,U1*%
X189896644Y-79301250D03*
X189896644Y-80501250D03*
X191096644Y-79301250D03*
X191096644Y-80501250D03*
X192396644Y-79301250D03*
X192396644Y-80501250D03*
X193496644Y-79301250D03*
X193496644Y-80501250D03*
D12*
%TO.C,U4*%
X111470000Y-75493750D03*
X111470000Y-95493750D03*
X114010000Y-75493750D03*
X114010000Y-95493750D03*
X116550000Y-75493750D03*
X116550000Y-95493750D03*
X119090000Y-75493750D03*
X119090000Y-95493750D03*
X121630000Y-75493750D03*
X121630000Y-95493750D03*
X124170000Y-75493750D03*
X124170000Y-95493750D03*
X126710000Y-75493750D03*
X126710000Y-95493750D03*
X129250000Y-75493750D03*
X129250000Y-95493750D03*
X131790000Y-75493750D03*
X131790000Y-95493750D03*
X134330000Y-75493750D03*
X134330000Y-95493750D03*
X136870000Y-75493750D03*
X136870000Y-95493750D03*
X139410000Y-75493750D03*
X139410000Y-95493750D03*
X141950000Y-75493750D03*
X141950000Y-95493750D03*
X144490000Y-75493750D03*
X144490000Y-95493750D03*
X147030000Y-75493750D03*
X147030000Y-95493750D03*
X149570000Y-75493750D03*
X149570000Y-95493750D03*
X152110000Y-75493750D03*
X152110000Y-95493750D03*
X154650000Y-75493750D03*
X154650000Y-95493750D03*
X157190000Y-75493750D03*
X157190000Y-95493750D03*
X159730000Y-75493750D03*
X159730000Y-95493750D03*
D13*
%TO.C,J14*%
X169882250Y-62768750D03*
X169882250Y-65308750D03*
X169882250Y-67848750D03*
X169882250Y-70388750D03*
%TO.C,J12*%
X173672250Y-62768750D03*
X173672250Y-65308750D03*
X173672250Y-67848750D03*
X173672250Y-70388750D03*
%TO.C,J13*%
X177462250Y-62768750D03*
X177462250Y-65308750D03*
X177462250Y-67848750D03*
X177462250Y-70388750D03*
D14*
%TO.C,J6*%
X113580000Y-62788750D03*
X113580000Y-65328750D03*
X113580000Y-67868750D03*
%TO.C,J7*%
X120909917Y-62788750D03*
X120909917Y-65328750D03*
X120909917Y-67868750D03*
%TO.C,J18*%
X126982250Y-102751250D03*
X126982250Y-105291250D03*
X126982250Y-107831250D03*
%TO.C,J8*%
X128239833Y-62788750D03*
X128239833Y-65328750D03*
X128239833Y-67868750D03*
%TO.C,J15*%
X134411417Y-102751250D03*
X134411417Y-105291250D03*
X134411417Y-107831250D03*
X134411417Y-110371250D03*
X134411417Y-112911250D03*
%TO.C,J9*%
X135569750Y-62788750D03*
X135569750Y-65328750D03*
X135569750Y-67868750D03*
%TO.C,J10*%
X141282250Y-66258750D03*
%TO.C,J1*%
X141840583Y-102751250D03*
X141840583Y-105291250D03*
X141840583Y-107831250D03*
X141840583Y-110371250D03*
X141840583Y-112911250D03*
%TO.C,J10*%
X143822250Y-66258750D03*
X146362250Y-66258750D03*
X148902250Y-66258750D03*
%TO.C,J2*%
X149269750Y-102751250D03*
X149269750Y-105291250D03*
X149269750Y-107831250D03*
X149269750Y-110371250D03*
X149269750Y-112911250D03*
%TO.C,J10*%
X151442250Y-66258750D03*
%TO.C,J3*%
X156698917Y-102751250D03*
X156698917Y-105291250D03*
X156698917Y-107831250D03*
X156698917Y-110371250D03*
X156698917Y-112911250D03*
%TO.C,J19*%
X156982250Y-62788750D03*
X156982250Y-65328750D03*
X156982250Y-67868750D03*
%TO.C,J4*%
X164128083Y-102751250D03*
X164128083Y-105291250D03*
X164128083Y-107831250D03*
X164128083Y-110371250D03*
X164128083Y-112911250D03*
%TO.C,J11*%
X164182250Y-62788750D03*
X164182250Y-65328750D03*
X164182250Y-67868750D03*
%TO.C,J5*%
X171557250Y-102751250D03*
X171557250Y-105291250D03*
X171557250Y-107831250D03*
X171557250Y-110371250D03*
X171557250Y-112911250D03*
%TO.C,SW3*%
D15*
X184601644Y-97268750D02*
X184601644Y-95968750D01*
X189301644Y-97268750D02*
X189301644Y-95968750D01*
X194001644Y-97268750D02*
X194001644Y-95968750D01*
D16*
%TO.C,J16*%
X185500000Y-104000000D03*
X185500000Y-109000000D03*
M02*
